<svg width="40" height="40" viewBox="0 0 40 40" fill="none" xmlns="http://www.w3.org/2000/svg">
<path fill-rule="evenodd" clip-rule="evenodd" d="M16.3527 10.7998H13.5073C12.8503 10.7998 12.5217 10.7998 12.3249 10.9273C12.1121 11.065 11.9779 11.2962 11.9635 11.5493C11.9501 11.7836 12.1126 12.0694 12.4376 12.6408L18.4874 23.2796L18.4877 23.28C18.8248 23.8729 18.9935 24.1694 19.2065 24.2774C19.4367 24.3942 19.7092 24.3917 19.9373 24.2707C20.1483 24.1588 20.3115 23.8592 20.6379 23.2599L22.0871 20.599C22.3158 20.179 22.4301 19.969 22.4787 19.7488C22.5315 19.5091 22.5281 19.2604 22.4688 19.0222C22.4143 18.8033 22.2943 18.5965 22.0543 18.1829L18.4814 12.0261L18.4812 12.0257C18.2361 11.6034 18.1135 11.3921 17.9466 11.2343C17.7649 11.0624 17.5453 10.9358 17.3055 10.8649C17.0853 10.7998 16.8411 10.7998 16.3527 10.7998ZM4.31906 24.8H1.54543C0.887791 24.8 0.558974 24.8 0.362048 24.6724C0.149224 24.5345 0.0149795 24.3033 0.000740393 24.0499C-0.0124361 23.8156 0.150425 23.5298 0.476144 22.9582L6.54898 12.3019C6.87949 11.7219 7.04475 11.4319 7.25506 11.324C7.48219 11.2073 7.75159 11.2071 7.97894 11.3234C8.18935 11.4311 8.35505 11.7208 8.68641 12.3003L10.087 14.7497C10.328 15.1711 10.4485 15.3818 10.5014 15.6041C10.5591 15.8461 10.5592 16.0983 10.5018 16.3403C10.449 16.5626 10.3287 16.7735 10.088 17.1951L6.45663 23.5582C6.21251 23.986 6.09043 24.1999 5.9232 24.3598C5.74118 24.5338 5.52042 24.6621 5.27912 24.734C5.05742 24.8 4.81129 24.8 4.31906 24.8ZM10.9982 24.8H14.2139C14.8784 24.8 15.2107 24.8 15.4083 24.6712C15.6219 24.5319 15.7556 24.2987 15.768 24.0439C15.7795 23.8082 15.6119 23.521 15.2766 22.9468L13.6661 20.1884C13.3355 19.6222 13.1703 19.3392 12.9613 19.2333C12.7355 19.119 12.4688 19.1192 12.2432 19.2339C12.0344 19.34 11.8695 19.6233 11.5398 20.1899L9.93457 22.9483C9.60061 23.5222 9.43361 23.8092 9.44531 24.0447C9.45791 24.2993 9.59182 24.5323 9.80523 24.6713C10.0028 24.8 10.3346 24.8 10.9982 24.8ZM28.1414 24.8H25.3677C24.7102 24.8 24.3813 24.8 24.1844 24.6724C23.9715 24.5345 23.8373 24.3033 23.823 24.0499C23.8099 23.8156 23.9728 23.5297 24.2985 22.9582L30.3713 12.3019C30.7018 11.7219 30.8671 11.4319 31.0774 11.324C31.3045 11.2073 31.5739 11.2071 31.8013 11.3234C32.0117 11.4311 32.1774 11.7208 32.5088 12.3003L33.9093 14.7497C34.1503 15.1711 34.2708 15.3818 34.3238 15.6041C34.3814 15.8461 34.3815 16.0983 34.3241 16.3403C34.2713 16.5626 34.151 16.7735 33.9104 17.1951L30.279 23.5582C30.0348 23.986 29.9128 24.1999 29.7455 24.3598C29.5635 24.5338 29.3428 24.6621 29.1015 24.734C28.8798 24.8 28.6336 24.8 28.1414 24.8ZM34.8205 24.8H38.0362C38.7008 24.8 39.033 24.8 39.2307 24.6712C39.4442 24.5319 39.578 24.2987 39.5904 24.0439C39.6018 23.8082 39.4342 23.521 39.0989 22.9468L37.4884 20.1884C37.1579 19.6224 36.9925 19.3392 36.7837 19.2333C36.5579 19.119 36.2911 19.1192 36.0655 19.2339C35.8568 19.3399 35.692 19.6231 35.3624 20.1894L35.3621 20.1899L33.7569 22.9483C33.4229 23.5222 33.2559 23.8092 33.2676 24.0447C33.2802 24.2993 33.4141 24.5323 33.6276 24.6713C33.8251 24.8 34.1569 24.8 34.8205 24.8ZM22.9599 10.7998H26.1802C26.8441 10.7998 27.1761 10.7998 27.3736 10.9286C27.5871 11.0676 27.7209 11.3008 27.7335 11.5554C27.7451 11.7909 27.5779 12.0779 27.2436 12.6517L25.6307 15.4203C25.3 15.9878 25.1347 16.2716 24.9257 16.3776C24.6997 16.4922 24.4327 16.492 24.2069 16.3771C23.998 16.2708 23.8331 15.9869 23.5034 15.4191L21.8957 12.6505C21.5626 12.0768 21.396 11.79 21.4079 11.5546C21.4207 11.3001 21.5546 11.0673 21.768 10.9284C21.9654 10.7998 22.2969 10.7998 22.9599 10.7998Z" fill="#111111"/>
</svg>
