<svg width="40" height="40" viewBox="0 0 40 40" fill="none" xmlns="http://www.w3.org/2000/svg">
<path d="M15.7895 35.7893C22.1853 35.7893 27.3684 30.6062 27.3684 24.2104C27.3684 17.8146 22.1853 12.6314 15.7895 12.6314C9.39368 12.6314 4.21053 17.8146 4.21053 24.2104C4.21053 30.6062 9.39368 35.7893 15.7895 35.7893ZM15.7895 39.9998C7.06947 39.9998 0 32.9304 0 24.2104C0 15.4904 7.06947 8.4209 15.7895 8.4209C24.5095 8.4209 31.5789 15.4904 31.5789 24.2104C31.5789 32.9304 24.5095 39.9998 15.7895 39.9998Z" fill="#111111"/>
<path d="M24.2113 27.3684C30.6071 27.3684 35.7903 22.1853 35.7903 15.7895C35.7903 9.39368 30.6071 4.21053 24.2113 4.21053C17.8156 4.21053 12.6324 9.39368 12.6324 15.7895C12.6324 22.1853 17.8156 27.3684 24.2113 27.3684ZM24.2113 31.5789C15.4913 31.5789 8.42188 24.5095 8.42188 15.7895C8.42188 7.06947 15.4913 0 24.2113 0C32.9313 0 40.0008 7.06947 40.0008 15.7895C40.0008 24.5095 32.9313 31.5789 24.2113 31.5789Z" fill="#7C7C7C"/>
<path d="M24.7335 31.5788C25.8282 30.2525 26.6114 28.6988 27.0282 27.0272C28.6956 26.6104 30.2492 25.8272 31.5798 24.7325C31.5208 26.6651 31.104 28.5683 30.3503 30.3535C28.5692 31.103 26.6661 31.5198 24.7335 31.5788ZM12.9735 12.9725C11.3061 13.3893 9.7524 14.1725 8.42188 15.2672C8.48082 13.3346 8.89766 11.4314 9.65135 9.65037C11.4324 8.9009 13.3398 8.48406 15.2682 8.4209C14.1735 9.74721 13.3903 11.3009 12.9735 12.9725Z" fill="#626262"/>
</svg>
