<svg width="40" height="40" viewBox="0 0 40 40" fill="none" xmlns="http://www.w3.org/2000/svg">
<path fill-rule="evenodd" clip-rule="evenodd" d="M23.32 21.1388L25.0748 19.9888L23.3388 18.8548C23.328 18.9112 23.3208 18.9328 23.3208 18.954C23.32 19.6636 23.32 20.3728 23.32 21.1388V21.1388ZM16.4332 18.8456L14.6844 19.9904L16.4332 21.1328V18.8456ZM22.5844 22.4256L20.6152 23.5752L22.478 24.5352L22.5844 22.4256V22.4256ZM19.1452 23.5744L17.1768 22.4268L17.282 24.5352L19.1452 23.5744ZM22.584 17.5532L22.478 15.4436L20.6156 16.4064L22.5836 17.5532H22.584ZM17.2808 15.4432L17.1776 17.5528L19.144 16.4056L17.2808 15.4432ZM22.6088 19.9988C22.6088 19.5216 22.6064 19.0444 22.61 18.5668C22.6108 18.4512 22.5768 18.3768 22.4712 18.316C21.6468 17.8408 20.8247 17.3618 20.0048 16.8788C19.914 16.8252 19.8468 16.8248 19.7556 16.8788C18.9356 17.3613 18.1136 17.8403 17.2896 18.316C17.1936 18.3716 17.1512 18.4348 17.1516 18.5492C17.1556 19.5092 17.1556 20.47 17.1516 21.43C17.1516 21.5444 17.1932 21.608 17.2892 21.6636C18.1132 22.1395 18.9352 22.6187 19.7552 23.1012C19.8464 23.1548 19.9132 23.1548 20.0044 23.1012C20.8243 22.6183 21.6464 22.1392 22.4708 21.664C22.5764 21.6032 22.6108 21.5288 22.6096 21.4128C22.6056 20.9416 22.608 20.47 22.6084 19.9988H22.6088ZM8.00721 12.2836C7.75361 12.3288 7.49841 12.3664 7.24721 12.4212C7.10121 12.4532 7.02881 12.5652 7.07841 12.7108C7.16041 12.9508 7.23521 13.1996 7.36001 13.4168C7.87081 14.3068 8.58081 15.0304 9.30881 15.736C9.34081 15.7672 9.43361 15.768 9.48001 15.7452C9.90921 15.5332 10.3732 15.584 10.72 15.8904C11.062 16.1924 11.1776 16.6448 11.0188 17.0964C10.9868 17.1872 10.9908 17.2404 11.0708 17.3012C12.04 18.03 13.0056 18.7636 13.976 19.4904C14.0168 19.5208 14.112 19.5244 14.1544 19.4972C14.901 19.0173 15.6451 18.5333 16.3864 18.0452C16.4232 18.0208 16.4608 17.9664 16.4632 17.9244C16.5128 17.0304 16.5592 16.1364 16.598 15.2424C16.6004 15.1864 16.5468 15.098 16.496 15.074C14.6336 14.186 12.7376 13.3828 10.7552 12.8068C9.85881 12.5464 8.95121 12.3388 8.00721 12.2836V12.2836ZM17.3412 25.2996C17.3636 25.5428 17.3808 25.786 17.4096 26.0276C17.5264 27.0028 17.6468 27.9776 17.7664 28.952C17.7772 29.0408 17.7972 29.1056 17.9104 29.1304C18.3632 29.2308 18.6564 29.5196 18.752 29.9748C18.8492 30.4396 18.682 30.8208 18.3064 31.104C18.2368 31.156 18.1836 31.1936 18.2156 31.2976C18.4396 32.0172 18.6308 32.7484 18.8896 33.4548C19.0392 33.8628 19.2672 34.2512 19.5108 34.6132C19.7808 35.0144 19.968 35.0112 20.246 34.6196C20.4556 34.3244 20.6404 34.0036 20.7848 33.6708C21.3332 32.4072 21.6492 31.072 21.8556 29.7156C22.0728 28.286 22.226 26.8468 22.4116 25.4124C22.4244 25.3108 22.3876 25.2744 22.3056 25.2324C21.548 24.8451 20.7929 24.4528 20.0404 24.0556C19.9188 23.9916 19.826 23.9916 19.7116 24.0612C19.5444 24.1628 19.3688 24.2504 19.1956 24.3404C18.5788 24.6604 17.9616 24.9788 17.3412 25.2996ZM25.7024 19.5508C27.0072 18.6416 28.2724 17.6812 29.4724 16.636C30.42 15.8108 31.3384 14.952 32.0712 13.9192C32.3032 13.5928 32.4852 13.2232 32.644 12.8532C32.7716 12.556 32.6892 12.4504 32.3724 12.3764C31.9564 12.2792 31.5368 12.308 31.1188 12.3564C30.236 12.4588 29.3812 12.6904 28.5308 12.9428C28.4124 12.9784 28.362 13.0348 28.3356 13.16C28.162 13.9968 27.2248 14.3296 26.5772 13.7848C26.4772 13.7008 26.3996 13.6936 26.2872 13.7432C25.2916 14.1824 24.2952 14.6192 23.2964 15.05C23.1708 15.1044 23.1492 15.1808 23.1564 15.306C23.206 16.1652 23.2468 17.0248 23.2964 17.8836C23.2992 17.9416 23.3368 18.0196 23.3828 18.0496C24.15 18.5512 24.9212 19.0468 25.7024 19.5508ZM23.2988 22.2932C23.2508 23.1052 23.206 23.8944 23.1568 24.6832C23.1496 24.7988 23.1688 24.8696 23.2888 24.9264C24.888 25.6832 26.5128 26.3752 28.194 26.9244C29.2728 27.2772 30.3636 27.5908 31.5036 27.6492C31.8372 27.6664 32.176 27.6032 32.51 27.5572C32.6548 27.5376 32.7308 27.4184 32.6808 27.2708C32.5988 27.0308 32.5236 26.7828 32.4 26.5648C31.9628 25.7896 31.3636 25.1432 30.7388 24.5224C29.224 23.0168 27.5368 21.7256 25.8012 20.4948C25.7052 20.4268 25.6452 20.4496 25.5592 20.506C24.9056 20.9388 24.2532 21.374 23.59 21.792C23.3856 21.9208 23.2084 22.0336 23.2988 22.2932V22.2932ZM14.0596 20.426C13.9492 20.504 13.836 20.5832 13.7236 20.6632C12.0624 21.8492 10.45 23.0968 8.99881 24.5436C8.38321 25.1572 7.79401 25.7972 7.36001 26.5608C7.24306 26.7736 7.15086 26.9991 7.08521 27.2328C7.02521 27.4368 7.07481 27.5184 7.27921 27.566C7.51281 27.62 7.75521 27.6624 7.99361 27.662C8.80441 27.6596 9.59361 27.49 10.372 27.2788C12.4948 26.7036 14.512 25.8468 16.5 24.912C16.6024 24.864 16.6076 24.7932 16.6024 24.7016C16.5596 23.9468 16.4904 23.1924 16.4876 22.4376C16.4864 22.0716 16.3484 21.8896 16.054 21.7132C15.378 21.308 14.726 20.86 14.0596 20.426ZM17.3416 14.6732C18.1656 15.106 18.9736 15.5328 19.7864 15.9508C19.842 15.9796 19.9408 15.9656 20.0012 15.9348C20.7692 15.5428 21.5332 15.142 22.3012 14.75C22.3928 14.7032 22.4224 14.6596 22.4104 14.5548C22.3512 14.0236 22.3052 13.4908 22.2464 12.9588C22.0744 11.3924 21.8364 9.83723 21.4476 8.30883C21.2268 7.44123 20.9724 6.58363 20.536 5.79683C20.414 5.57683 20.2524 5.37403 20.0844 5.18563C19.934 5.01763 19.8204 5.01323 19.6768 5.18563C19.4788 5.42363 19.288 5.67683 19.1436 5.95003C18.7708 6.65563 18.5412 7.41883 18.3424 8.19003C17.7944 10.3176 17.532 12.4908 17.3416 14.6732V14.6732ZM13.4504 19.9932C13.1388 19.7672 12.8368 19.5572 12.5452 19.3332C11.8949 18.8339 11.2478 18.3303 10.604 17.8224C10.508 17.7464 10.4292 17.7288 10.3092 17.7652C9.53881 18.0004 8.79481 17.3276 8.93521 16.5252C8.95441 16.414 8.92801 16.344 8.84761 16.2668C8.05561 15.5016 7.29561 14.7084 6.73961 13.7428C6.54881 13.4108 6.38281 13.0644 6.37881 12.6668C6.37441 12.2168 6.56441 11.9408 6.98121 11.7728C7.31321 11.6388 7.66281 11.6124 8.01321 11.616C9.02601 11.6268 10.0024 11.8592 10.9692 12.1376C12.8372 12.676 14.6292 13.4176 16.3916 14.2376C16.474 14.2764 16.5572 14.3136 16.6588 14.36C16.6868 14.1112 16.7104 13.8776 16.7392 13.644C16.8532 12.7292 16.9576 11.8132 17.086 10.9004C17.2469 9.7481 17.4902 8.60878 17.814 7.49123C18.0296 6.75043 18.274 6.01843 18.6748 5.35603C18.8296 5.09854 19.0154 4.86103 19.228 4.64883C19.624 4.25723 20.128 4.27123 20.54 4.64763C20.9512 5.02363 21.2008 5.50803 21.4192 6.00963C21.8576 7.01603 22.1424 8.07243 22.354 9.14683C22.5372 10.078 22.6972 11.0148 22.8324 11.9548C22.944 12.7296 23.004 13.512 23.0872 14.2908C23.0888 14.3068 23.096 14.3228 23.1052 14.3556C23.396 14.2236 23.6796 14.0884 23.968 13.9644C24.654 13.6696 25.3412 13.3768 26.0308 13.0912C26.144 13.0444 26.1788 12.9872 26.19 12.8648C26.2332 12.3984 26.4824 12.0724 26.9172 11.916C27.3552 11.7584 27.7468 11.8668 28.0668 12.2056C28.1456 12.2888 28.208 12.3148 28.318 12.28C29.15 12.0168 29.9928 11.7964 30.858 11.68C31.422 11.604 31.99 11.5632 32.554 11.7012C33.2432 11.8692 33.5244 12.3452 33.3268 13.032C33.1572 13.6232 32.8156 14.12 32.4444 14.5964C31.5596 15.7324 30.512 16.7044 29.4072 17.6104C28.4072 18.4304 27.3732 19.208 26.3488 20.0084C26.3504 20.0096 26.3756 20.038 26.4052 20.0592C27.8188 21.0624 29.1904 22.12 30.47 23.2952C31.336 24.0904 32.1648 24.9224 32.822 25.9096C33.0532 26.2576 33.2564 26.6216 33.3468 27.0372C33.4848 27.6736 33.2256 28.1052 32.5996 28.27C32.114 28.3976 31.618 28.3912 31.1268 28.3288C28.7504 28.0264 26.554 27.1352 24.3732 26.1972C23.9516 26.016 23.536 25.82 23.0992 25.6228C23.0712 25.8788 23.046 26.124 23.018 26.3688C22.9352 27.0888 22.8788 27.814 22.7612 28.5284C22.5932 29.55 22.4008 30.5688 22.1812 31.5804C21.9764 32.5264 21.6868 33.4492 21.2548 34.3196C21.0736 34.6848 20.8624 35.0292 20.5628 35.3116C20.1312 35.7176 19.624 35.7188 19.1952 35.3092C18.7272 34.8628 18.4432 34.2952 18.234 33.6976C17.9748 32.9564 17.764 32.1976 17.5412 31.444C17.5092 31.3368 17.4668 31.2824 17.3604 31.246C17.1747 31.1862 17.0084 31.0778 16.8787 30.9321C16.7491 30.7863 16.6607 30.6085 16.6229 30.4172C16.5851 30.2258 16.5991 30.0278 16.6636 29.8436C16.7281 29.6595 16.8406 29.496 16.9896 29.37C17.0916 29.282 17.098 29.192 17.0836 29.08C16.9596 28.108 16.834 27.136 16.7116 26.164C16.69 25.9916 16.6824 25.8172 16.666 25.6172C16.4552 25.7144 16.2596 25.8052 16.0632 25.8948C14.29 26.7028 12.488 27.4348 10.6048 27.9428C9.82281 28.1536 9.03361 28.3372 8.22081 28.3528C7.88481 28.3596 7.54041 28.3408 7.21241 28.2724C6.50681 28.1252 6.23321 27.6344 6.43601 26.9372C6.60601 26.3516 6.94361 25.8596 7.31081 25.388C8.19521 24.252 9.23921 23.2752 10.3484 22.3744C11.3384 21.5704 12.3704 20.8184 13.3836 20.0436L13.4504 19.9936V19.9932ZM21.734 19.9892C21.7332 21.0108 20.892 21.8472 19.87 21.8424C18.8556 21.8376 18.0256 21.0024 18.0256 19.9876C18.0256 18.9664 18.868 18.1288 19.8892 18.134C20.9032 18.1392 21.7348 18.9752 21.734 19.9892V19.9892ZM20.0008 2.59323C17.668 2.59323 15.4048 3.05323 13.2752 3.96083C11.2196 4.83608 9.35393 6.10311 7.78241 7.69123C6.20252 9.27938 4.94498 11.1583 4.07921 13.2244C3.17847 15.3696 2.71684 17.6735 2.72161 20C2.71684 22.3266 3.17847 24.6305 4.07921 26.7756C4.94499 28.8417 6.20252 30.7207 7.78241 32.3088C9.35394 33.8969 11.2196 35.164 13.2752 36.0392C15.4013 36.9461 17.6894 37.4115 20.0008 37.4072C22.3336 37.4072 24.5968 36.9472 26.7264 36.0392C28.7821 35.164 30.6477 33.8969 32.2192 32.3088C33.7991 30.7207 35.0566 28.8417 35.9224 26.7756C36.8232 24.6305 37.2848 22.3266 37.28 20C37.2848 17.6735 36.8232 15.3695 35.9224 13.2244C35.0567 11.1583 33.7991 9.27937 32.2192 7.69123C30.6477 6.10312 28.7821 4.83609 26.7264 3.96083C24.6004 3.05396 22.3122 2.58854 20.0008 2.59283V2.59323ZM20.0008 38C17.5888 38 15.2488 37.524 13.046 36.5852C10.9205 35.6802 8.99138 34.3701 7.36641 32.728C5.73289 31.0858 4.43271 29.1428 3.53761 27.0064C2.60561 24.7872 2.13281 22.43 2.13281 20C2.13281 17.57 2.60521 15.2128 3.53681 12.9936C4.43203 10.8572 5.73235 8.91426 7.36601 7.27203C8.99097 5.62991 10.92 4.31981 13.0456 3.41483C15.2442 2.47695 17.6105 1.99561 20.0008 2.00003C22.4128 2.00003 24.7528 2.47603 26.9556 3.41483C29.0812 4.31981 31.0103 5.62991 32.6352 7.27203C34.2689 8.91426 35.5692 10.8572 36.4644 12.9936C37.396 15.2128 37.8684 17.57 37.8684 20C37.8684 22.43 37.396 24.7872 36.4644 27.0064C35.5692 29.1429 34.2689 31.0858 32.6352 32.728C31.0103 34.3701 29.0812 35.6802 26.9556 36.5852C24.7571 37.5231 22.391 38.0044 20.0008 38V38Z" fill="#111111"/>
</svg>
