<svg width="40" height="40" viewBox="0 0 40 40" fill="none" xmlns="http://www.w3.org/2000/svg">
<g clip-path="url(#clip0)">
<path d="M24.203 40C21.4046 40 19.362 39.3125 18.0753 37.9374C16.8834 36.7735 16.1917 35.1756 16.1514 33.493C16.1369 32.9818 16.2531 32.4756 16.4884 32.0241C16.708 31.6339 17.0251 31.3102 17.4074 31.086C17.8518 30.8599 18.3416 30.7422 18.8382 30.7422C19.3348 30.7422 19.8247 30.8599 20.2691 31.086C20.6507 31.3093 20.9664 31.6334 21.1829 32.0241C21.425 32.4734 21.5455 32.9804 21.532 33.493C21.557 34.1051 21.3848 34.7088 21.0418 35.2118C20.7559 35.6223 20.3473 35.9273 19.8771 36.0811C20.3369 36.6781 20.9874 37.0917 21.7154 37.2499C22.5298 37.4912 23.3734 37.6153 24.2215 37.6185C25.3444 37.6285 26.4441 37.2931 27.3773 36.6561C28.3454 35.9585 29.0673 34.9613 29.4361 33.8124C29.9036 32.445 30.1318 31.0043 30.1101 29.5563C30.1479 28.0466 29.8981 26.5438 29.3748 25.1312C28.9812 24.0013 28.234 23.0349 27.2485 22.3811C26.3326 21.7899 25.2693 21.4797 24.1853 21.4875C23.2408 21.5691 22.33 21.8845 21.532 22.4063L19.5645 23.4124V22.4063L28.4066 10.3076H16.1514V22.8625C16.1168 23.7685 16.3518 24.664 16.8255 25.4312C17.0547 25.7656 17.3646 26.0339 17.7253 26.2101C18.086 26.3864 18.4852 26.4647 18.8843 26.4374C19.6216 26.4222 20.3347 26.1659 20.9185 25.7062C21.5802 25.2115 22.1561 24.6073 22.6221 23.9186C22.664 23.7979 22.7413 23.6932 22.8436 23.6188C22.9257 23.5464 23.0305 23.5065 23.139 23.5063C23.3519 23.5262 23.5534 23.6135 23.7151 23.7562C23.9199 23.9896 24.0314 24.2929 24.0275 24.6061C24.0038 24.8166 23.967 25.0254 23.9172 25.2311C23.4819 26.3059 22.7521 27.23 21.8153 27.8928C20.9452 28.4933 19.9176 28.8117 18.8671 28.8062C16.2137 28.8062 14.3756 28.2729 13.3526 27.2063C12.8268 26.6167 12.4216 25.9261 12.1606 25.1748C11.8997 24.4236 11.7883 23.6268 11.8329 22.8311V10.3076H5.59961V7.97488H11.862V2.65612L10.4282 1.19272V0H14.5887L16.1514 0.825109V7.97488L32.3403 7.92466L33.952 9.57463L24.0253 19.7489C24.625 19.5029 25.2566 19.3471 25.9002 19.2864C27.1741 19.3433 28.417 19.7051 29.5284 20.3427C30.8154 20.9667 31.9 21.9539 32.6537 23.1874C33.329 24.2316 33.807 25.3954 34.0631 26.6187C34.2736 27.5836 34.3866 28.5681 34.4001 29.5565C34.4067 31.4429 33.9873 33.3056 33.1746 35.0001C32.4039 36.641 31.1067 37.9641 29.4979 38.7502C27.8511 39.5779 26.0389 40.0057 24.203 40V40Z" fill="#111111"/>
</g>
<defs>
<clipPath id="clip0">
<rect width="40" height="40" fill="white"/>
</clipPath>
</defs>
</svg>
