<svg width="197" height="76" viewBox="0 0 197 76" fill="none" xmlns="http://www.w3.org/2000/svg">
<path d="M4.49432 -100.379C4.92581 -99.9505 5.14156 -99.379 5.14156 -98.6647C5.14156 -97.9504 4.92581 -97.3789 4.49432 -96.9503C4.06281 -96.5218 3.51626 -96.3075 2.85462 -96.3075C2.22176 -96.3075 1.6752 -96.5218 1.21493 -96.9503C0.783436 -97.4075 0.567688 -97.979 0.567688 -98.6647C0.567688 -99.3505 0.783436 -99.9076 1.21493 -100.336C1.6752 -100.793 2.22176 -101.022 2.85462 -101.022C3.51626 -101.022 4.06281 -100.808 4.49432 -100.379ZM17.2791 -100.379C17.7106 -99.9505 17.9263 -99.379 17.9263 -98.6647C17.9263 -97.9504 17.7106 -97.3789 17.2791 -96.9503C16.8476 -96.5218 16.301 -96.3075 15.6394 -96.3075C15.0065 -96.3075 14.46 -96.5218 13.9998 -96.9503C13.5683 -97.4075 13.3525 -97.979 13.3525 -98.6647C13.3525 -99.3505 13.5683 -99.9076 13.9998 -100.336C14.46 -100.793 15.0065 -101.022 15.6394 -101.022C16.301 -101.022 16.8476 -100.808 17.2791 -100.379ZM30.0639 -100.379C30.4954 -99.9505 30.7111 -99.379 30.7111 -98.6647C30.7111 -97.9504 30.4954 -97.3789 30.0639 -96.9503C29.6324 -96.5218 29.0859 -96.3075 28.4242 -96.3075C27.7913 -96.3075 27.2448 -96.5218 26.7846 -96.9503C26.3531 -97.4075 26.1373 -97.979 26.1373 -98.6647C26.1373 -99.3505 26.3531 -99.9076 26.7846 -100.336C27.2448 -100.793 27.7913 -101.022 28.4242 -101.022C29.0859 -101.022 29.6324 -100.808 30.0639 -100.379ZM42.8487 -100.379C43.2802 -99.9505 43.4959 -99.379 43.4959 -98.6647C43.4959 -97.9504 43.2802 -97.3789 42.8487 -96.9503C42.4172 -96.5218 41.8707 -96.3075 41.209 -96.3075C40.5761 -96.3075 40.0296 -96.5218 39.5694 -96.9503C39.1379 -97.4075 38.9221 -97.979 38.9221 -98.6647C38.9221 -99.3505 39.1379 -99.9076 39.5694 -100.336C40.0296 -100.793 40.5761 -101.022 41.209 -101.022C41.8707 -101.022 42.4172 -100.808 42.8487 -100.379ZM55.6335 -100.379C56.065 -99.9505 56.2807 -99.379 56.2807 -98.6647C56.2807 -97.9504 56.065 -97.3789 55.6335 -96.9503C55.202 -96.5218 54.6555 -96.3075 53.9938 -96.3075C53.3609 -96.3075 52.8144 -96.5218 52.3541 -96.9503C51.9227 -97.4075 51.7068 -97.979 51.7068 -98.6647C51.7068 -99.3505 51.9227 -99.9076 52.3541 -100.336C52.8144 -100.793 53.3609 -101.022 53.9938 -101.022C54.6555 -101.022 55.202 -100.808 55.6335 -100.379ZM68.4183 -100.379C68.8498 -99.9505 69.0655 -99.379 69.0655 -98.6647C69.0655 -97.9504 68.8498 -97.3789 68.4183 -96.9503C67.9868 -96.5218 67.4403 -96.3075 66.7786 -96.3075C66.1457 -96.3075 65.5992 -96.5218 65.1389 -96.9503C64.7074 -97.4075 64.4916 -97.979 64.4916 -98.6647C64.4916 -99.3505 64.7074 -99.9076 65.1389 -100.336C65.5992 -100.793 66.1457 -101.022 66.7786 -101.022C67.4403 -101.022 67.9868 -100.808 68.4183 -100.379ZM81.2031 -100.379C81.6346 -99.9505 81.8504 -99.379 81.8504 -98.6647C81.8504 -97.9504 81.6346 -97.3789 81.2031 -96.9503C80.7716 -96.5218 80.2251 -96.3075 79.5634 -96.3075C78.9305 -96.3075 78.3839 -96.5218 77.9237 -96.9503C77.4922 -97.4075 77.2764 -97.979 77.2764 -98.6647C77.2764 -99.3505 77.4922 -99.9076 77.9237 -100.336C78.3839 -100.793 78.9305 -101.022 79.5634 -101.022C80.2251 -101.022 80.7716 -100.808 81.2031 -100.379ZM93.9879 -100.379C94.4194 -99.9505 94.6352 -99.379 94.6352 -98.6647C94.6352 -97.9504 94.4194 -97.3789 93.9879 -96.9503C93.5564 -96.5218 93.0099 -96.3075 92.3482 -96.3075C91.7152 -96.3075 91.1687 -96.5218 90.7085 -96.9503C90.277 -97.4075 90.0612 -97.979 90.0612 -98.6647C90.0612 -99.3505 90.277 -99.9076 90.7085 -100.336C91.1687 -100.793 91.7152 -101.022 92.3482 -101.022C93.0099 -101.022 93.5564 -100.808 93.9879 -100.379ZM106.773 -100.379C107.204 -99.9505 107.42 -99.379 107.42 -98.6647C107.42 -97.9504 107.204 -97.3789 106.773 -96.9503C106.341 -96.5218 105.795 -96.3075 105.133 -96.3075C104.5 -96.3075 103.954 -96.5218 103.493 -96.9503C103.062 -97.4075 102.846 -97.979 102.846 -98.6647C102.846 -99.3505 103.062 -99.9076 103.493 -100.336C103.954 -100.793 104.5 -101.022 105.133 -101.022C105.795 -101.022 106.341 -100.808 106.773 -100.379ZM119.557 -100.379C119.989 -99.9505 120.205 -99.379 120.205 -98.6647C120.205 -97.9504 119.989 -97.3789 119.557 -96.9503C119.126 -96.5218 118.579 -96.3075 117.918 -96.3075C117.285 -96.3075 116.738 -96.5218 116.278 -96.9503C115.847 -97.4075 115.631 -97.979 115.631 -98.6647C115.631 -99.3505 115.847 -99.9076 116.278 -100.336C116.738 -100.793 117.285 -101.022 117.918 -101.022C118.579 -101.022 119.126 -100.808 119.557 -100.379ZM132.342 -100.379C132.774 -99.9505 132.989 -99.379 132.989 -98.6647C132.989 -97.9504 132.774 -97.3789 132.342 -96.9503C131.911 -96.5218 131.365 -96.3075 130.702 -96.3075C130.07 -96.3075 129.523 -96.5218 129.063 -96.9503C128.631 -97.4075 128.416 -97.979 128.416 -98.6647C128.416 -99.3505 128.631 -99.9076 129.063 -100.336C129.523 -100.793 130.07 -101.022 130.702 -101.022C131.365 -101.022 131.911 -100.808 132.342 -100.379ZM145.127 -100.379C145.559 -99.9505 145.775 -99.379 145.775 -98.6647C145.775 -97.9504 145.559 -97.3789 145.127 -96.9503C144.696 -96.5218 144.149 -96.3075 143.487 -96.3075C142.854 -96.3075 142.308 -96.5218 141.848 -96.9503C141.417 -97.4075 141.201 -97.979 141.201 -98.6647C141.201 -99.3505 141.417 -99.9076 141.848 -100.336C142.308 -100.793 142.854 -101.022 143.487 -101.022C144.149 -101.022 144.696 -100.808 145.127 -100.379ZM157.911 -100.379C158.343 -99.9505 158.56 -99.379 158.56 -98.6647C158.56 -97.9504 158.343 -97.3789 157.911 -96.9503C157.48 -96.5218 156.934 -96.3075 156.272 -96.3075C155.639 -96.3075 155.092 -96.5218 154.632 -96.9503C154.201 -97.4075 153.985 -97.979 153.985 -98.6647C153.985 -99.3505 154.201 -99.9076 154.632 -100.336C155.092 -100.793 155.639 -101.022 156.272 -101.022C156.934 -101.022 157.48 -100.808 157.911 -100.379ZM170.697 -100.379C171.128 -99.9505 171.344 -99.379 171.344 -98.6647C171.344 -97.9504 171.128 -97.3789 170.697 -96.9503C170.265 -96.5218 169.719 -96.3075 169.056 -96.3075C168.423 -96.3075 167.877 -96.5218 167.417 -96.9503C166.986 -97.4075 166.77 -97.979 166.77 -98.6647C166.77 -99.3505 166.986 -99.9076 167.417 -100.336C167.877 -100.793 168.423 -101.022 169.056 -101.022C169.719 -101.022 170.265 -100.808 170.697 -100.379ZM183.482 -100.379C183.913 -99.9505 184.129 -99.379 184.129 -98.6647C184.129 -97.9504 183.913 -97.3789 183.482 -96.9503C183.05 -96.5218 182.503 -96.3075 181.841 -96.3075C181.209 -96.3075 180.663 -96.5218 180.202 -96.9503C179.771 -97.4075 179.555 -97.979 179.555 -98.6647C179.555 -99.3505 179.771 -99.9076 180.202 -100.336C180.663 -100.793 181.209 -101.022 181.841 -101.022C182.503 -101.022 183.05 -100.808 183.482 -100.379ZM196.267 -100.379C196.697 -99.9505 196.914 -99.379 196.914 -98.6647C196.914 -97.9504 196.697 -97.3789 196.267 -96.9503C195.834 -96.5218 195.288 -96.3075 194.627 -96.3075C193.994 -96.3075 193.448 -96.5218 192.986 -96.9503C192.555 -97.4075 192.339 -97.979 192.339 -98.6647C192.339 -99.3505 192.555 -99.9076 192.986 -100.336C193.448 -100.793 193.994 -101.022 194.627 -101.022C195.288 -101.022 195.834 -100.808 196.267 -100.379ZM4.49432 -78.9181C4.92581 -78.4895 5.14156 -77.9181 5.14156 -77.2037C5.14156 -76.4894 4.92581 -75.9179 4.49432 -75.4894C4.06281 -75.0608 3.51626 -74.8464 2.85462 -74.8464C2.22176 -74.8464 1.6752 -75.0608 1.21493 -75.4894C0.783436 -75.9465 0.567688 -76.518 0.567688 -77.2037C0.567688 -77.8894 0.783436 -78.4467 1.21493 -78.8753C1.6752 -79.3324 2.22176 -79.561 2.85462 -79.561C3.51626 -79.561 4.06281 -79.3466 4.49432 -78.9181ZM17.2791 -78.9181C17.7106 -78.4895 17.9263 -77.9181 17.9263 -77.2037C17.9263 -76.4894 17.7106 -75.9179 17.2791 -75.4894C16.8476 -75.0608 16.301 -74.8464 15.6394 -74.8464C15.0065 -74.8464 14.46 -75.0608 13.9998 -75.4894C13.5683 -75.9465 13.3525 -76.518 13.3525 -77.2037C13.3525 -77.8894 13.5683 -78.4467 13.9998 -78.8753C14.46 -79.3324 15.0065 -79.561 15.6394 -79.561C16.301 -79.561 16.8476 -79.3466 17.2791 -78.9181ZM30.0639 -78.9181C30.4954 -78.4895 30.7111 -77.9181 30.7111 -77.2037C30.7111 -76.4894 30.4954 -75.9179 30.0639 -75.4894C29.6324 -75.0608 29.0859 -74.8464 28.4242 -74.8464C27.7913 -74.8464 27.2448 -75.0608 26.7846 -75.4894C26.3531 -75.9465 26.1373 -76.518 26.1373 -77.2037C26.1373 -77.8894 26.3531 -78.4467 26.7846 -78.8753C27.2448 -79.3324 27.7913 -79.561 28.4242 -79.561C29.0859 -79.561 29.6324 -79.3466 30.0639 -78.9181ZM42.8487 -78.9181C43.2802 -78.4895 43.4959 -77.9181 43.4959 -77.2037C43.4959 -76.4894 43.2802 -75.9179 42.8487 -75.4894C42.4172 -75.0608 41.8707 -74.8464 41.209 -74.8464C40.5761 -74.8464 40.0296 -75.0608 39.5694 -75.4894C39.1379 -75.9465 38.9221 -76.518 38.9221 -77.2037C38.9221 -77.8894 39.1379 -78.4467 39.5694 -78.8753C40.0296 -79.3324 40.5761 -79.561 41.209 -79.561C41.8707 -79.561 42.4172 -79.3466 42.8487 -78.9181ZM55.6335 -78.9181C56.065 -78.4895 56.2807 -77.9181 56.2807 -77.2037C56.2807 -76.4894 56.065 -75.9179 55.6335 -75.4894C55.202 -75.0608 54.6555 -74.8464 53.9938 -74.8464C53.3609 -74.8464 52.8144 -75.0608 52.3541 -75.4894C51.9227 -75.9465 51.7068 -76.518 51.7068 -77.2037C51.7068 -77.8894 51.9227 -78.4467 52.3541 -78.8753C52.8144 -79.3324 53.3609 -79.561 53.9938 -79.561C54.6555 -79.561 55.202 -79.3466 55.6335 -78.9181ZM68.4183 -78.9181C68.8498 -78.4895 69.0655 -77.9181 69.0655 -77.2037C69.0655 -76.4894 68.8498 -75.9179 68.4183 -75.4894C67.9868 -75.0608 67.4403 -74.8464 66.7786 -74.8464C66.1457 -74.8464 65.5992 -75.0608 65.1389 -75.4894C64.7074 -75.9465 64.4916 -76.518 64.4916 -77.2037C64.4916 -77.8894 64.7074 -78.4467 65.1389 -78.8753C65.5992 -79.3324 66.1457 -79.561 66.7786 -79.561C67.4403 -79.561 67.9868 -79.3466 68.4183 -78.9181ZM81.2031 -78.9181C81.6346 -78.4895 81.8504 -77.9181 81.8504 -77.2037C81.8504 -76.4894 81.6346 -75.9179 81.2031 -75.4894C80.7716 -75.0608 80.2251 -74.8464 79.5634 -74.8464C78.9305 -74.8464 78.3839 -75.0608 77.9237 -75.4894C77.4922 -75.9465 77.2764 -76.518 77.2764 -77.2037C77.2764 -77.8894 77.4922 -78.4467 77.9237 -78.8753C78.3839 -79.3324 78.9305 -79.561 79.5634 -79.561C80.2251 -79.561 80.7716 -79.3466 81.2031 -78.9181ZM93.9879 -78.9181C94.4194 -78.4895 94.6352 -77.9181 94.6352 -77.2037C94.6352 -76.4894 94.4194 -75.9179 93.9879 -75.4894C93.5564 -75.0608 93.0099 -74.8464 92.3482 -74.8464C91.7152 -74.8464 91.1687 -75.0608 90.7085 -75.4894C90.277 -75.9465 90.0612 -76.518 90.0612 -77.2037C90.0612 -77.8894 90.277 -78.4467 90.7085 -78.8753C91.1687 -79.3324 91.7152 -79.561 92.3482 -79.561C93.0099 -79.561 93.5564 -79.3466 93.9879 -78.9181ZM106.773 -78.9181C107.204 -78.4895 107.42 -77.9181 107.42 -77.2037C107.42 -76.4894 107.204 -75.9179 106.773 -75.4894C106.341 -75.0608 105.795 -74.8464 105.133 -74.8464C104.5 -74.8464 103.954 -75.0608 103.493 -75.4894C103.062 -75.9465 102.846 -76.518 102.846 -77.2037C102.846 -77.8894 103.062 -78.4467 103.493 -78.8753C103.954 -79.3324 104.5 -79.561 105.133 -79.561C105.795 -79.561 106.341 -79.3466 106.773 -78.9181ZM119.557 -78.9181C119.989 -78.4895 120.205 -77.9181 120.205 -77.2037C120.205 -76.4894 119.989 -75.9179 119.557 -75.4894C119.126 -75.0608 118.579 -74.8464 117.918 -74.8464C117.285 -74.8464 116.738 -75.0608 116.278 -75.4894C115.847 -75.9465 115.631 -76.518 115.631 -77.2037C115.631 -77.8894 115.847 -78.4467 116.278 -78.8753C116.738 -79.3324 117.285 -79.561 117.918 -79.561C118.579 -79.561 119.126 -79.3466 119.557 -78.9181ZM132.342 -78.9181C132.774 -78.4895 132.989 -77.9181 132.989 -77.2037C132.989 -76.4894 132.774 -75.9179 132.342 -75.4894C131.911 -75.0608 131.365 -74.8464 130.702 -74.8464C130.07 -74.8464 129.523 -75.0608 129.063 -75.4894C128.631 -75.9465 128.416 -76.518 128.416 -77.2037C128.416 -77.8894 128.631 -78.4467 129.063 -78.8753C129.523 -79.3324 130.07 -79.561 130.702 -79.561C131.365 -79.561 131.911 -79.3466 132.342 -78.9181ZM145.127 -78.9181C145.559 -78.4895 145.775 -77.9181 145.775 -77.2037C145.775 -76.4894 145.559 -75.9179 145.127 -75.4894C144.696 -75.0608 144.149 -74.8464 143.487 -74.8464C142.854 -74.8464 142.308 -75.0608 141.848 -75.4894C141.417 -75.9465 141.201 -76.518 141.201 -77.2037C141.201 -77.8894 141.417 -78.4467 141.848 -78.8753C142.308 -79.3324 142.854 -79.561 143.487 -79.561C144.149 -79.561 144.696 -79.3466 145.127 -78.9181ZM157.911 -78.9181C158.343 -78.4895 158.56 -77.9181 158.56 -77.2037C158.56 -76.4894 158.343 -75.9179 157.911 -75.4894C157.48 -75.0608 156.934 -74.8464 156.272 -74.8464C155.639 -74.8464 155.092 -75.0608 154.632 -75.4894C154.201 -75.9465 153.985 -76.518 153.985 -77.2037C153.985 -77.8894 154.201 -78.4467 154.632 -78.8753C155.092 -79.3324 155.639 -79.561 156.272 -79.561C156.934 -79.561 157.48 -79.3466 157.911 -78.9181ZM170.697 -78.9181C171.128 -78.4895 171.344 -77.9181 171.344 -77.2037C171.344 -76.4894 171.128 -75.9179 170.697 -75.4894C170.265 -75.0608 169.719 -74.8464 169.056 -74.8464C168.423 -74.8464 167.877 -75.0608 167.417 -75.4894C166.986 -75.9465 166.77 -76.518 166.77 -77.2037C166.77 -77.8894 166.986 -78.4467 167.417 -78.8753C167.877 -79.3324 168.423 -79.561 169.056 -79.561C169.719 -79.561 170.265 -79.3466 170.697 -78.9181ZM183.482 -78.9181C183.913 -78.4895 184.129 -77.9181 184.129 -77.2037C184.129 -76.4894 183.913 -75.9179 183.482 -75.4894C183.05 -75.0608 182.503 -74.8464 181.841 -74.8464C181.209 -74.8464 180.663 -75.0608 180.202 -75.4894C179.771 -75.9465 179.555 -76.518 179.555 -77.2037C179.555 -77.8894 179.771 -78.4467 180.202 -78.8753C180.663 -79.3324 181.209 -79.561 181.841 -79.561C182.503 -79.561 183.05 -79.3466 183.482 -78.9181ZM196.267 -78.9181C196.697 -78.4895 196.914 -77.9181 196.914 -77.2037C196.914 -76.4894 196.697 -75.9179 196.267 -75.4894C195.834 -75.0608 195.288 -74.8464 194.627 -74.8464C193.994 -74.8464 193.448 -75.0608 192.986 -75.4894C192.555 -75.9465 192.339 -76.518 192.339 -77.2037C192.339 -77.8894 192.555 -78.4467 192.986 -78.8753C193.448 -79.3324 193.994 -79.561 194.627 -79.561C195.288 -79.561 195.834 -79.3466 196.267 -78.9181ZM4.49432 -57.4571C4.92581 -57.0285 5.14156 -56.4571 5.14156 -55.7427C5.14156 -55.0284 4.92581 -54.4569 4.49432 -54.0284C4.06281 -53.5998 3.51626 -53.3854 2.85462 -53.3854C2.22176 -53.3854 1.6752 -53.5998 1.21493 -54.0284C0.783436 -54.4855 0.567688 -55.057 0.567688 -55.7427C0.567688 -56.4285 0.783436 -56.9857 1.21493 -57.4143C1.6752 -57.8714 2.22176 -58.1 2.85462 -58.1C3.51626 -58.1 4.06281 -57.8857 4.49432 -57.4571ZM17.2791 -57.4571C17.7106 -57.0285 17.9263 -56.4571 17.9263 -55.7427C17.9263 -55.0284 17.7106 -54.4569 17.2791 -54.0284C16.8476 -53.5998 16.301 -53.3854 15.6394 -53.3854C15.0065 -53.3854 14.46 -53.5998 13.9998 -54.0284C13.5683 -54.4855 13.3525 -55.057 13.3525 -55.7427C13.3525 -56.4285 13.5683 -56.9857 13.9998 -57.4143C14.46 -57.8714 15.0065 -58.1 15.6394 -58.1C16.301 -58.1 16.8476 -57.8857 17.2791 -57.4571ZM30.0639 -57.4571C30.4954 -57.0285 30.7111 -56.4571 30.7111 -55.7427C30.7111 -55.0284 30.4954 -54.4569 30.0639 -54.0284C29.6324 -53.5998 29.0859 -53.3854 28.4242 -53.3854C27.7913 -53.3854 27.2448 -53.5998 26.7846 -54.0284C26.3531 -54.4855 26.1373 -55.057 26.1373 -55.7427C26.1373 -56.4285 26.3531 -56.9857 26.7846 -57.4143C27.2448 -57.8714 27.7913 -58.1 28.4242 -58.1C29.0859 -58.1 29.6324 -57.8857 30.0639 -57.4571ZM42.8487 -57.4571C43.2802 -57.0285 43.4959 -56.4571 43.4959 -55.7427C43.4959 -55.0284 43.2802 -54.4569 42.8487 -54.0284C42.4172 -53.5998 41.8707 -53.3854 41.209 -53.3854C40.5761 -53.3854 40.0296 -53.5998 39.5694 -54.0284C39.1379 -54.4855 38.9221 -55.057 38.9221 -55.7427C38.9221 -56.4285 39.1379 -56.9857 39.5694 -57.4143C40.0296 -57.8714 40.5761 -58.1 41.209 -58.1C41.8707 -58.1 42.4172 -57.8857 42.8487 -57.4571ZM55.6335 -57.4571C56.065 -57.0285 56.2807 -56.4571 56.2807 -55.7427C56.2807 -55.0284 56.065 -54.4569 55.6335 -54.0284C55.202 -53.5998 54.6555 -53.3854 53.9938 -53.3854C53.3609 -53.3854 52.8144 -53.5998 52.3541 -54.0284C51.9227 -54.4855 51.7068 -55.057 51.7068 -55.7427C51.7068 -56.4285 51.9227 -56.9857 52.3541 -57.4143C52.8144 -57.8714 53.3609 -58.1 53.9938 -58.1C54.6555 -58.1 55.202 -57.8857 55.6335 -57.4571ZM68.4183 -57.4571C68.8498 -57.0285 69.0655 -56.4571 69.0655 -55.7427C69.0655 -55.0284 68.8498 -54.4569 68.4183 -54.0284C67.9868 -53.5998 67.4403 -53.3854 66.7786 -53.3854C66.1457 -53.3854 65.5992 -53.5998 65.1389 -54.0284C64.7074 -54.4855 64.4916 -55.057 64.4916 -55.7427C64.4916 -56.4285 64.7074 -56.9857 65.1389 -57.4143C65.5992 -57.8714 66.1457 -58.1 66.7786 -58.1C67.4403 -58.1 67.9868 -57.8857 68.4183 -57.4571ZM81.2031 -57.4571C81.6346 -57.0285 81.8504 -56.4571 81.8504 -55.7427C81.8504 -55.0284 81.6346 -54.4569 81.2031 -54.0284C80.7716 -53.5998 80.2251 -53.3854 79.5634 -53.3854C78.9305 -53.3854 78.3839 -53.5998 77.9237 -54.0284C77.4922 -54.4855 77.2764 -55.057 77.2764 -55.7427C77.2764 -56.4285 77.4922 -56.9857 77.9237 -57.4143C78.3839 -57.8714 78.9305 -58.1 79.5634 -58.1C80.2251 -58.1 80.7716 -57.8857 81.2031 -57.4571ZM93.9879 -57.4571C94.4194 -57.0285 94.6352 -56.4571 94.6352 -55.7427C94.6352 -55.0284 94.4194 -54.4569 93.9879 -54.0284C93.5564 -53.5998 93.0099 -53.3854 92.3482 -53.3854C91.7152 -53.3854 91.1687 -53.5998 90.7085 -54.0284C90.277 -54.4855 90.0612 -55.057 90.0612 -55.7427C90.0612 -56.4285 90.277 -56.9857 90.7085 -57.4143C91.1687 -57.8714 91.7152 -58.1 92.3482 -58.1C93.0099 -58.1 93.5564 -57.8857 93.9879 -57.4571ZM106.773 -57.4571C107.204 -57.0285 107.42 -56.4571 107.42 -55.7427C107.42 -55.0284 107.204 -54.4569 106.773 -54.0284C106.341 -53.5998 105.795 -53.3854 105.133 -53.3854C104.5 -53.3854 103.954 -53.5998 103.493 -54.0284C103.062 -54.4855 102.846 -55.057 102.846 -55.7427C102.846 -56.4285 103.062 -56.9857 103.493 -57.4143C103.954 -57.8714 104.5 -58.1 105.133 -58.1C105.795 -58.1 106.341 -57.8857 106.773 -57.4571ZM119.557 -57.4571C119.989 -57.0285 120.205 -56.4571 120.205 -55.7427C120.205 -55.0284 119.989 -54.4569 119.557 -54.0284C119.126 -53.5998 118.579 -53.3854 117.918 -53.3854C117.285 -53.3854 116.738 -53.5998 116.278 -54.0284C115.847 -54.4855 115.631 -55.057 115.631 -55.7427C115.631 -56.4285 115.847 -56.9857 116.278 -57.4143C116.738 -57.8714 117.285 -58.1 117.918 -58.1C118.579 -58.1 119.126 -57.8857 119.557 -57.4571ZM132.342 -57.4571C132.774 -57.0285 132.989 -56.4571 132.989 -55.7427C132.989 -55.0284 132.774 -54.4569 132.342 -54.0284C131.911 -53.5998 131.365 -53.3854 130.702 -53.3854C130.07 -53.3854 129.523 -53.5998 129.063 -54.0284C128.631 -54.4855 128.416 -55.057 128.416 -55.7427C128.416 -56.4285 128.631 -56.9857 129.063 -57.4143C129.523 -57.8714 130.07 -58.1 130.702 -58.1C131.365 -58.1 131.911 -57.8857 132.342 -57.4571ZM145.127 -57.4571C145.559 -57.0285 145.775 -56.4571 145.775 -55.7427C145.775 -55.0284 145.559 -54.4569 145.127 -54.0284C144.696 -53.5998 144.149 -53.3854 143.487 -53.3854C142.854 -53.3854 142.308 -53.5998 141.848 -54.0284C141.417 -54.4855 141.201 -55.057 141.201 -55.7427C141.201 -56.4285 141.417 -56.9857 141.848 -57.4143C142.308 -57.8714 142.854 -58.1 143.487 -58.1C144.149 -58.1 144.696 -57.8857 145.127 -57.4571ZM157.911 -57.4571C158.343 -57.0285 158.56 -56.4571 158.56 -55.7427C158.56 -55.0284 158.343 -54.4569 157.911 -54.0284C157.48 -53.5998 156.934 -53.3854 156.272 -53.3854C155.639 -53.3854 155.092 -53.5998 154.632 -54.0284C154.201 -54.4855 153.985 -55.057 153.985 -55.7427C153.985 -56.4285 154.201 -56.9857 154.632 -57.4143C155.092 -57.8714 155.639 -58.1 156.272 -58.1C156.934 -58.1 157.48 -57.8857 157.911 -57.4571ZM170.697 -57.4571C171.128 -57.0285 171.344 -56.4571 171.344 -55.7427C171.344 -55.0284 171.128 -54.4569 170.697 -54.0284C170.265 -53.5998 169.719 -53.3854 169.056 -53.3854C168.423 -53.3854 167.877 -53.5998 167.417 -54.0284C166.986 -54.4855 166.77 -55.057 166.77 -55.7427C166.77 -56.4285 166.986 -56.9857 167.417 -57.4143C167.877 -57.8714 168.423 -58.1 169.056 -58.1C169.719 -58.1 170.265 -57.8857 170.697 -57.4571ZM183.482 -57.4571C183.913 -57.0285 184.129 -56.4571 184.129 -55.7427C184.129 -55.0284 183.913 -54.4569 183.482 -54.0284C183.05 -53.5998 182.503 -53.3854 181.841 -53.3854C181.209 -53.3854 180.663 -53.5998 180.202 -54.0284C179.771 -54.4855 179.555 -55.057 179.555 -55.7427C179.555 -56.4285 179.771 -56.9857 180.202 -57.4143C180.663 -57.8714 181.209 -58.1 181.841 -58.1C182.503 -58.1 183.05 -57.8857 183.482 -57.4571ZM196.267 -57.4571C196.697 -57.0285 196.914 -56.4571 196.914 -55.7427C196.914 -55.0284 196.697 -54.4569 196.267 -54.0284C195.834 -53.5998 195.288 -53.3854 194.627 -53.3854C193.994 -53.3854 193.448 -53.5998 192.986 -54.0284C192.555 -54.4855 192.339 -55.057 192.339 -55.7427C192.339 -56.4285 192.555 -56.9857 192.986 -57.4143C193.448 -57.8714 193.994 -58.1 194.627 -58.1C195.288 -58.1 195.834 -57.8857 196.267 -57.4571ZM4.49432 -35.9961C4.92581 -35.5675 5.14156 -34.9961 5.14156 -34.2817C5.14156 -33.5674 4.92581 -32.9959 4.49432 -32.5674C4.06281 -32.1388 3.51626 -31.9244 2.85462 -31.9244C2.22176 -31.9244 1.6752 -32.1388 1.21493 -32.5674C0.783436 -33.0245 0.567688 -33.596 0.567688 -34.2817C0.567688 -34.9675 0.783436 -35.5247 1.21493 -35.9533C1.6752 -36.4104 2.22176 -36.639 2.85462 -36.639C3.51626 -36.639 4.06281 -36.4247 4.49432 -35.9961ZM17.2791 -35.9961C17.7106 -35.5675 17.9263 -34.9961 17.9263 -34.2817C17.9263 -33.5674 17.7106 -32.9959 17.2791 -32.5674C16.8476 -32.1388 16.301 -31.9244 15.6394 -31.9244C15.0065 -31.9244 14.46 -32.1388 13.9998 -32.5674C13.5683 -33.0245 13.3525 -33.596 13.3525 -34.2817C13.3525 -34.9675 13.5683 -35.5247 13.9998 -35.9533C14.46 -36.4104 15.0065 -36.639 15.6394 -36.639C16.301 -36.639 16.8476 -36.4247 17.2791 -35.9961ZM30.0639 -35.9961C30.4954 -35.5675 30.7111 -34.9961 30.7111 -34.2817C30.7111 -33.5674 30.4954 -32.9959 30.0639 -32.5674C29.6324 -32.1388 29.0859 -31.9244 28.4242 -31.9244C27.7913 -31.9244 27.2448 -32.1388 26.7846 -32.5674C26.3531 -33.0245 26.1373 -33.596 26.1373 -34.2817C26.1373 -34.9675 26.3531 -35.5247 26.7846 -35.9533C27.2448 -36.4104 27.7913 -36.639 28.4242 -36.639C29.0859 -36.639 29.6324 -36.4247 30.0639 -35.9961ZM42.8487 -35.9961C43.2802 -35.5675 43.4959 -34.9961 43.4959 -34.2817C43.4959 -33.5674 43.2802 -32.9959 42.8487 -32.5674C42.4172 -32.1388 41.8707 -31.9244 41.209 -31.9244C40.5761 -31.9244 40.0296 -32.1388 39.5694 -32.5674C39.1379 -33.0245 38.9221 -33.596 38.9221 -34.2817C38.9221 -34.9675 39.1379 -35.5247 39.5694 -35.9533C40.0296 -36.4104 40.5761 -36.639 41.209 -36.639C41.8707 -36.639 42.4172 -36.4247 42.8487 -35.9961ZM55.6335 -35.9961C56.065 -35.5675 56.2807 -34.9961 56.2807 -34.2817C56.2807 -33.5674 56.065 -32.9959 55.6335 -32.5674C55.202 -32.1388 54.6555 -31.9244 53.9938 -31.9244C53.3609 -31.9244 52.8144 -32.1388 52.3541 -32.5674C51.9227 -33.0245 51.7068 -33.596 51.7068 -34.2817C51.7068 -34.9675 51.9227 -35.5247 52.3541 -35.9533C52.8144 -36.4104 53.3609 -36.639 53.9938 -36.639C54.6555 -36.639 55.202 -36.4247 55.6335 -35.9961ZM68.4183 -35.9961C68.8498 -35.5675 69.0655 -34.9961 69.0655 -34.2817C69.0655 -33.5674 68.8498 -32.9959 68.4183 -32.5674C67.9868 -32.1388 67.4403 -31.9244 66.7786 -31.9244C66.1457 -31.9244 65.5992 -32.1388 65.1389 -32.5674C64.7074 -33.0245 64.4916 -33.596 64.4916 -34.2817C64.4916 -34.9675 64.7074 -35.5247 65.1389 -35.9533C65.5992 -36.4104 66.1457 -36.639 66.7786 -36.639C67.4403 -36.639 67.9868 -36.4247 68.4183 -35.9961ZM81.2031 -35.9961C81.6346 -35.5675 81.8504 -34.9961 81.8504 -34.2817C81.8504 -33.5674 81.6346 -32.9959 81.2031 -32.5674C80.7716 -32.1388 80.2251 -31.9244 79.5634 -31.9244C78.9305 -31.9244 78.3839 -32.1388 77.9237 -32.5674C77.4922 -33.0245 77.2764 -33.596 77.2764 -34.2817C77.2764 -34.9675 77.4922 -35.5247 77.9237 -35.9533C78.3839 -36.4104 78.9305 -36.639 79.5634 -36.639C80.2251 -36.639 80.7716 -36.4247 81.2031 -35.9961ZM93.9879 -35.9961C94.4194 -35.5675 94.6352 -34.9961 94.6352 -34.2817C94.6352 -33.5674 94.4194 -32.9959 93.9879 -32.5674C93.5564 -32.1388 93.0099 -31.9244 92.3482 -31.9244C91.7152 -31.9244 91.1687 -32.1388 90.7085 -32.5674C90.277 -33.0245 90.0612 -33.596 90.0612 -34.2817C90.0612 -34.9675 90.277 -35.5247 90.7085 -35.9533C91.1687 -36.4104 91.7152 -36.639 92.3482 -36.639C93.0099 -36.639 93.5564 -36.4247 93.9879 -35.9961ZM106.773 -35.9961C107.204 -35.5675 107.42 -34.9961 107.42 -34.2817C107.42 -33.5674 107.204 -32.9959 106.773 -32.5674C106.341 -32.1388 105.795 -31.9244 105.133 -31.9244C104.5 -31.9244 103.954 -32.1388 103.493 -32.5674C103.062 -33.0245 102.846 -33.596 102.846 -34.2817C102.846 -34.9675 103.062 -35.5247 103.493 -35.9533C103.954 -36.4104 104.5 -36.639 105.133 -36.639C105.795 -36.639 106.341 -36.4247 106.773 -35.9961ZM119.557 -35.9961C119.989 -35.5675 120.205 -34.9961 120.205 -34.2817C120.205 -33.5674 119.989 -32.9959 119.557 -32.5674C119.126 -32.1388 118.579 -31.9244 117.918 -31.9244C117.285 -31.9244 116.738 -32.1388 116.278 -32.5674C115.847 -33.0245 115.631 -33.596 115.631 -34.2817C115.631 -34.9675 115.847 -35.5247 116.278 -35.9533C116.738 -36.4104 117.285 -36.639 117.918 -36.639C118.579 -36.639 119.126 -36.4247 119.557 -35.9961ZM132.342 -35.9961C132.774 -35.5675 132.989 -34.9961 132.989 -34.2817C132.989 -33.5674 132.774 -32.9959 132.342 -32.5674C131.911 -32.1388 131.365 -31.9244 130.702 -31.9244C130.07 -31.9244 129.523 -32.1388 129.063 -32.5674C128.631 -33.0245 128.416 -33.596 128.416 -34.2817C128.416 -34.9675 128.631 -35.5247 129.063 -35.9533C129.523 -36.4104 130.07 -36.639 130.702 -36.639C131.365 -36.639 131.911 -36.4247 132.342 -35.9961ZM145.127 -35.9961C145.559 -35.5675 145.775 -34.9961 145.775 -34.2817C145.775 -33.5674 145.559 -32.9959 145.127 -32.5674C144.696 -32.1388 144.149 -31.9244 143.487 -31.9244C142.854 -31.9244 142.308 -32.1388 141.848 -32.5674C141.417 -33.0245 141.201 -33.596 141.201 -34.2817C141.201 -34.9675 141.417 -35.5247 141.848 -35.9533C142.308 -36.4104 142.854 -36.639 143.487 -36.639C144.149 -36.639 144.696 -36.4247 145.127 -35.9961ZM157.911 -35.9961C158.343 -35.5675 158.56 -34.9961 158.56 -34.2817C158.56 -33.5674 158.343 -32.9959 157.911 -32.5674C157.48 -32.1388 156.934 -31.9244 156.272 -31.9244C155.639 -31.9244 155.092 -32.1388 154.632 -32.5674C154.201 -33.0245 153.985 -33.596 153.985 -34.2817C153.985 -34.9675 154.201 -35.5247 154.632 -35.9533C155.092 -36.4104 155.639 -36.639 156.272 -36.639C156.934 -36.639 157.48 -36.4247 157.911 -35.9961ZM170.697 -35.9961C171.128 -35.5675 171.344 -34.9961 171.344 -34.2817C171.344 -33.5674 171.128 -32.9959 170.697 -32.5674C170.265 -32.1388 169.719 -31.9244 169.056 -31.9244C168.423 -31.9244 167.877 -32.1388 167.417 -32.5674C166.986 -33.0245 166.77 -33.596 166.77 -34.2817C166.77 -34.9675 166.986 -35.5247 167.417 -35.9533C167.877 -36.4104 168.423 -36.639 169.056 -36.639C169.719 -36.639 170.265 -36.4247 170.697 -35.9961ZM183.482 -35.9961C183.913 -35.5675 184.129 -34.9961 184.129 -34.2817C184.129 -33.5674 183.913 -32.9959 183.482 -32.5674C183.05 -32.1388 182.503 -31.9244 181.841 -31.9244C181.209 -31.9244 180.663 -32.1388 180.202 -32.5674C179.771 -33.0245 179.555 -33.596 179.555 -34.2817C179.555 -34.9675 179.771 -35.5247 180.202 -35.9533C180.663 -36.4104 181.209 -36.639 181.841 -36.639C182.503 -36.639 183.05 -36.4247 183.482 -35.9961ZM196.267 -35.9961C196.697 -35.5675 196.914 -34.9961 196.914 -34.2817C196.914 -33.5674 196.697 -32.9959 196.267 -32.5674C195.834 -32.1388 195.288 -31.9244 194.627 -31.9244C193.994 -31.9244 193.448 -32.1388 192.986 -32.5674C192.555 -33.0245 192.339 -33.596 192.339 -34.2817C192.339 -34.9675 192.555 -35.5247 192.986 -35.9533C193.448 -36.4104 193.994 -36.639 194.627 -36.639C195.288 -36.639 195.834 -36.4247 196.267 -35.9961ZM4.49432 -14.5351C4.92581 -14.1065 5.14156 -13.5351 5.14156 -12.8207C5.14156 -12.1065 4.92581 -11.535 4.49432 -11.1064C4.06281 -10.6778 3.51626 -10.4634 2.85462 -10.4634C2.22176 -10.4634 1.6752 -10.6778 1.21493 -11.1064C0.783436 -11.5635 0.567688 -12.135 0.567688 -12.8207C0.567688 -13.5065 0.783436 -14.0637 1.21493 -14.4923C1.6752 -14.9494 2.22176 -15.178 2.85462 -15.178C3.51626 -15.178 4.06281 -14.9637 4.49432 -14.5351ZM17.2791 -14.5351C17.7106 -14.1065 17.9263 -13.5351 17.9263 -12.8207C17.9263 -12.1065 17.7106 -11.535 17.2791 -11.1064C16.8476 -10.6778 16.301 -10.4634 15.6394 -10.4634C15.0065 -10.4634 14.46 -10.6778 13.9998 -11.1064C13.5683 -11.5635 13.3525 -12.135 13.3525 -12.8207C13.3525 -13.5065 13.5683 -14.0637 13.9998 -14.4923C14.46 -14.9494 15.0065 -15.178 15.6394 -15.178C16.301 -15.178 16.8476 -14.9637 17.2791 -14.5351ZM30.0639 -14.5351C30.4954 -14.1065 30.7111 -13.5351 30.7111 -12.8207C30.7111 -12.1065 30.4954 -11.535 30.0639 -11.1064C29.6324 -10.6778 29.0859 -10.4634 28.4242 -10.4634C27.7913 -10.4634 27.2448 -10.6778 26.7846 -11.1064C26.3531 -11.5635 26.1373 -12.135 26.1373 -12.8207C26.1373 -13.5065 26.3531 -14.0637 26.7846 -14.4923C27.2448 -14.9494 27.7913 -15.178 28.4242 -15.178C29.0859 -15.178 29.6324 -14.9637 30.0639 -14.5351ZM42.8487 -14.5351C43.2802 -14.1065 43.4959 -13.5351 43.4959 -12.8207C43.4959 -12.1065 43.2802 -11.535 42.8487 -11.1064C42.4172 -10.6778 41.8707 -10.4634 41.209 -10.4634C40.5761 -10.4634 40.0296 -10.6778 39.5694 -11.1064C39.1379 -11.5635 38.9221 -12.135 38.9221 -12.8207C38.9221 -13.5065 39.1379 -14.0637 39.5694 -14.4923C40.0296 -14.9494 40.5761 -15.178 41.209 -15.178C41.8707 -15.178 42.4172 -14.9637 42.8487 -14.5351ZM55.6335 -14.5351C56.065 -14.1065 56.2807 -13.5351 56.2807 -12.8207C56.2807 -12.1065 56.065 -11.535 55.6335 -11.1064C55.202 -10.6778 54.6555 -10.4634 53.9938 -10.4634C53.3609 -10.4634 52.8144 -10.6778 52.3541 -11.1064C51.9227 -11.5635 51.7068 -12.135 51.7068 -12.8207C51.7068 -13.5065 51.9227 -14.0637 52.3541 -14.4923C52.8144 -14.9494 53.3609 -15.178 53.9938 -15.178C54.6555 -15.178 55.202 -14.9637 55.6335 -14.5351ZM68.4183 -14.5351C68.8498 -14.1065 69.0655 -13.5351 69.0655 -12.8207C69.0655 -12.1065 68.8498 -11.535 68.4183 -11.1064C67.9868 -10.6778 67.4403 -10.4634 66.7786 -10.4634C66.1457 -10.4634 65.5992 -10.6778 65.1389 -11.1064C64.7074 -11.5635 64.4916 -12.135 64.4916 -12.8207C64.4916 -13.5065 64.7074 -14.0637 65.1389 -14.4923C65.5992 -14.9494 66.1457 -15.178 66.7786 -15.178C67.4403 -15.178 67.9868 -14.9637 68.4183 -14.5351ZM81.2031 -14.5351C81.6346 -14.1065 81.8504 -13.5351 81.8504 -12.8207C81.8504 -12.1065 81.6346 -11.535 81.2031 -11.1064C80.7716 -10.6778 80.2251 -10.4634 79.5634 -10.4634C78.9305 -10.4634 78.3839 -10.6778 77.9237 -11.1064C77.4922 -11.5635 77.2764 -12.135 77.2764 -12.8207C77.2764 -13.5065 77.4922 -14.0637 77.9237 -14.4923C78.3839 -14.9494 78.9305 -15.178 79.5634 -15.178C80.2251 -15.178 80.7716 -14.9637 81.2031 -14.5351ZM93.9879 -14.5351C94.4194 -14.1065 94.6352 -13.5351 94.6352 -12.8207C94.6352 -12.1065 94.4194 -11.535 93.9879 -11.1064C93.5564 -10.6778 93.0099 -10.4634 92.3482 -10.4634C91.7152 -10.4634 91.1687 -10.6778 90.7085 -11.1064C90.277 -11.5635 90.0612 -12.135 90.0612 -12.8207C90.0612 -13.5065 90.277 -14.0637 90.7085 -14.4923C91.1687 -14.9494 91.7152 -15.178 92.3482 -15.178C93.0099 -15.178 93.5564 -14.9637 93.9879 -14.5351ZM106.773 -14.5351C107.204 -14.1065 107.42 -13.5351 107.42 -12.8207C107.42 -12.1065 107.204 -11.535 106.773 -11.1064C106.341 -10.6778 105.795 -10.4634 105.133 -10.4634C104.5 -10.4634 103.954 -10.6778 103.493 -11.1064C103.062 -11.5635 102.846 -12.135 102.846 -12.8207C102.846 -13.5065 103.062 -14.0637 103.493 -14.4923C103.954 -14.9494 104.5 -15.178 105.133 -15.178C105.795 -15.178 106.341 -14.9637 106.773 -14.5351ZM119.557 -14.5351C119.989 -14.1065 120.205 -13.5351 120.205 -12.8207C120.205 -12.1065 119.989 -11.535 119.557 -11.1064C119.126 -10.6778 118.579 -10.4634 117.918 -10.4634C117.285 -10.4634 116.738 -10.6778 116.278 -11.1064C115.847 -11.5635 115.631 -12.135 115.631 -12.8207C115.631 -13.5065 115.847 -14.0637 116.278 -14.4923C116.738 -14.9494 117.285 -15.178 117.918 -15.178C118.579 -15.178 119.126 -14.9637 119.557 -14.5351ZM132.342 -14.5351C132.774 -14.1065 132.989 -13.5351 132.989 -12.8207C132.989 -12.1065 132.774 -11.535 132.342 -11.1064C131.911 -10.6778 131.365 -10.4634 130.702 -10.4634C130.07 -10.4634 129.523 -10.6778 129.063 -11.1064C128.631 -11.5635 128.416 -12.135 128.416 -12.8207C128.416 -13.5065 128.631 -14.0637 129.063 -14.4923C129.523 -14.9494 130.07 -15.178 130.702 -15.178C131.365 -15.178 131.911 -14.9637 132.342 -14.5351ZM145.127 -14.5351C145.559 -14.1065 145.775 -13.5351 145.775 -12.8207C145.775 -12.1065 145.559 -11.535 145.127 -11.1064C144.696 -10.6778 144.149 -10.4634 143.487 -10.4634C142.854 -10.4634 142.308 -10.6778 141.848 -11.1064C141.417 -11.5635 141.201 -12.135 141.201 -12.8207C141.201 -13.5065 141.417 -14.0637 141.848 -14.4923C142.308 -14.9494 142.854 -15.178 143.487 -15.178C144.149 -15.178 144.696 -14.9637 145.127 -14.5351ZM157.911 -14.5351C158.343 -14.1065 158.56 -13.5351 158.56 -12.8207C158.56 -12.1065 158.343 -11.535 157.911 -11.1064C157.48 -10.6778 156.934 -10.4634 156.272 -10.4634C155.639 -10.4634 155.092 -10.6778 154.632 -11.1064C154.201 -11.5635 153.985 -12.135 153.985 -12.8207C153.985 -13.5065 154.201 -14.0637 154.632 -14.4923C155.092 -14.9494 155.639 -15.178 156.272 -15.178C156.934 -15.178 157.48 -14.9637 157.911 -14.5351ZM170.697 -14.5351C171.128 -14.1065 171.344 -13.5351 171.344 -12.8207C171.344 -12.1065 171.128 -11.535 170.697 -11.1064C170.265 -10.6778 169.719 -10.4634 169.056 -10.4634C168.423 -10.4634 167.877 -10.6778 167.417 -11.1064C166.986 -11.5635 166.77 -12.135 166.77 -12.8207C166.77 -13.5065 166.986 -14.0637 167.417 -14.4923C167.877 -14.9494 168.423 -15.178 169.056 -15.178C169.719 -15.178 170.265 -14.9637 170.697 -14.5351ZM183.482 -14.5351C183.913 -14.1065 184.129 -13.5351 184.129 -12.8207C184.129 -12.1065 183.913 -11.535 183.482 -11.1064C183.05 -10.6778 182.503 -10.4634 181.841 -10.4634C181.209 -10.4634 180.663 -10.6778 180.202 -11.1064C179.771 -11.5635 179.555 -12.135 179.555 -12.8207C179.555 -13.5065 179.771 -14.0637 180.202 -14.4923C180.663 -14.9494 181.209 -15.178 181.841 -15.178C182.503 -15.178 183.05 -14.9637 183.482 -14.5351ZM196.267 -14.5351C196.697 -14.1065 196.914 -13.5351 196.914 -12.8207C196.914 -12.1065 196.697 -11.535 196.267 -11.1064C195.834 -10.6778 195.288 -10.4634 194.627 -10.4634C193.994 -10.4634 193.448 -10.6778 192.986 -11.1064C192.555 -11.5635 192.339 -12.135 192.339 -12.8207C192.339 -13.5065 192.555 -14.0637 192.986 -14.4923C193.448 -14.9494 193.994 -15.178 194.627 -15.178C195.288 -15.178 195.834 -14.9637 196.267 -14.5351ZM4.49432 6.92591C4.92581 7.3545 5.14156 7.92587 5.14156 8.64027C5.14156 9.35454 4.92581 9.92603 4.49432 10.3546C4.06281 10.7832 3.51626 10.9976 2.85462 10.9976C2.22176 10.9976 1.6752 10.7832 1.21493 10.3546C0.783436 9.89751 0.567688 9.32601 0.567688 8.64027C0.567688 7.95453 0.783436 7.3973 1.21493 6.96871C1.6752 6.5116 2.22176 6.28297 2.85462 6.28297C3.51626 6.28297 4.06281 6.49732 4.49432 6.92591ZM17.2791 6.92591C17.7106 7.3545 17.9263 7.92587 17.9263 8.64027C17.9263 9.35454 17.7106 9.92603 17.2791 10.3546C16.8476 10.7832 16.301 10.9976 15.6394 10.9976C15.0065 10.9976 14.46 10.7832 13.9998 10.3546C13.5683 9.89751 13.3525 9.32601 13.3525 8.64027C13.3525 7.95453 13.5683 7.3973 13.9998 6.96871C14.46 6.5116 15.0065 6.28297 15.6394 6.28297C16.301 6.28297 16.8476 6.49732 17.2791 6.92591ZM30.0639 6.92591C30.4954 7.3545 30.7111 7.92587 30.7111 8.64027C30.7111 9.35454 30.4954 9.92603 30.0639 10.3546C29.6324 10.7832 29.0859 10.9976 28.4242 10.9976C27.7913 10.9976 27.2448 10.7832 26.7846 10.3546C26.3531 9.89751 26.1373 9.32601 26.1373 8.64027C26.1373 7.95453 26.3531 7.3973 26.7846 6.96871C27.2448 6.5116 27.7913 6.28297 28.4242 6.28297C29.0859 6.28297 29.6324 6.49732 30.0639 6.92591ZM42.8487 6.92591C43.2802 7.3545 43.4959 7.92587 43.4959 8.64027C43.4959 9.35454 43.2802 9.92603 42.8487 10.3546C42.4172 10.7832 41.8707 10.9976 41.209 10.9976C40.5761 10.9976 40.0296 10.7832 39.5694 10.3546C39.1379 9.89751 38.9221 9.32601 38.9221 8.64027C38.9221 7.95453 39.1379 7.3973 39.5694 6.96871C40.0296 6.5116 40.5761 6.28297 41.209 6.28297C41.8707 6.28297 42.4172 6.49732 42.8487 6.92591ZM55.6335 6.92591C56.065 7.3545 56.2807 7.92587 56.2807 8.64027C56.2807 9.35454 56.065 9.92603 55.6335 10.3546C55.202 10.7832 54.6555 10.9976 53.9938 10.9976C53.3609 10.9976 52.8144 10.7832 52.3541 10.3546C51.9227 9.89751 51.7068 9.32601 51.7068 8.64027C51.7068 7.95453 51.9227 7.3973 52.3541 6.96871C52.8144 6.5116 53.3609 6.28297 53.9938 6.28297C54.6555 6.28297 55.202 6.49732 55.6335 6.92591ZM68.4183 6.92591C68.8498 7.3545 69.0655 7.92587 69.0655 8.64027C69.0655 9.35454 68.8498 9.92603 68.4183 10.3546C67.9868 10.7832 67.4403 10.9976 66.7786 10.9976C66.1457 10.9976 65.5992 10.7832 65.1389 10.3546C64.7074 9.89751 64.4916 9.32601 64.4916 8.64027C64.4916 7.95453 64.7074 7.3973 65.1389 6.96871C65.5992 6.5116 66.1457 6.28297 66.7786 6.28297C67.4403 6.28297 67.9868 6.49732 68.4183 6.92591ZM81.2031 6.92591C81.6346 7.3545 81.8504 7.92587 81.8504 8.64027C81.8504 9.35454 81.6346 9.92603 81.2031 10.3546C80.7716 10.7832 80.2251 10.9976 79.5634 10.9976C78.9305 10.9976 78.3839 10.7832 77.9237 10.3546C77.4922 9.89751 77.2764 9.32601 77.2764 8.64027C77.2764 7.95453 77.4922 7.3973 77.9237 6.96871C78.3839 6.5116 78.9305 6.28297 79.5634 6.28297C80.2251 6.28297 80.7716 6.49732 81.2031 6.92591ZM93.9879 6.92591C94.4194 7.3545 94.6352 7.92587 94.6352 8.64027C94.6352 9.35454 94.4194 9.92603 93.9879 10.3546C93.5564 10.7832 93.0099 10.9976 92.3482 10.9976C91.7152 10.9976 91.1687 10.7832 90.7085 10.3546C90.277 9.89751 90.0612 9.32601 90.0612 8.64027C90.0612 7.95453 90.277 7.3973 90.7085 6.96871C91.1687 6.5116 91.7152 6.28297 92.3482 6.28297C93.0099 6.28297 93.5564 6.49732 93.9879 6.92591ZM106.773 6.92591C107.204 7.3545 107.42 7.92587 107.42 8.64027C107.42 9.35454 107.204 9.92603 106.773 10.3546C106.341 10.7832 105.795 10.9976 105.133 10.9976C104.5 10.9976 103.954 10.7832 103.493 10.3546C103.062 9.89751 102.846 9.32601 102.846 8.64027C102.846 7.95453 103.062 7.3973 103.493 6.96871C103.954 6.5116 104.5 6.28297 105.133 6.28297C105.795 6.28297 106.341 6.49732 106.773 6.92591ZM119.557 6.92591C119.989 7.3545 120.205 7.92587 120.205 8.64027C120.205 9.35454 119.989 9.92603 119.557 10.3546C119.126 10.7832 118.579 10.9976 117.918 10.9976C117.285 10.9976 116.738 10.7832 116.278 10.3546C115.847 9.89751 115.631 9.32601 115.631 8.64027C115.631 7.95453 115.847 7.3973 116.278 6.96871C116.738 6.5116 117.285 6.28297 117.918 6.28297C118.579 6.28297 119.126 6.49732 119.557 6.92591ZM132.342 6.92591C132.774 7.3545 132.989 7.92587 132.989 8.64027C132.989 9.35454 132.774 9.92603 132.342 10.3546C131.911 10.7832 131.365 10.9976 130.702 10.9976C130.07 10.9976 129.523 10.7832 129.063 10.3546C128.631 9.89751 128.416 9.32601 128.416 8.64027C128.416 7.95453 128.631 7.3973 129.063 6.96871C129.523 6.5116 130.07 6.28297 130.702 6.28297C131.365 6.28297 131.911 6.49732 132.342 6.92591ZM145.127 6.92591C145.559 7.3545 145.775 7.92587 145.775 8.64027C145.775 9.35454 145.559 9.92603 145.127 10.3546C144.696 10.7832 144.149 10.9976 143.487 10.9976C142.854 10.9976 142.308 10.7832 141.848 10.3546C141.417 9.89751 141.201 9.32601 141.201 8.64027C141.201 7.95453 141.417 7.3973 141.848 6.96871C142.308 6.5116 142.854 6.28297 143.487 6.28297C144.149 6.28297 144.696 6.49732 145.127 6.92591ZM157.911 6.92591C158.343 7.3545 158.56 7.92587 158.56 8.64027C158.56 9.35454 158.343 9.92603 157.911 10.3546C157.48 10.7832 156.934 10.9976 156.272 10.9976C155.639 10.9976 155.092 10.7832 154.632 10.3546C154.201 9.89751 153.985 9.32601 153.985 8.64027C153.985 7.95453 154.201 7.3973 154.632 6.96871C155.092 6.5116 155.639 6.28297 156.272 6.28297C156.934 6.28297 157.48 6.49732 157.911 6.92591ZM170.697 6.92591C171.128 7.3545 171.344 7.92587 171.344 8.64027C171.344 9.35454 171.128 9.92603 170.697 10.3546C170.265 10.7832 169.719 10.9976 169.056 10.9976C168.423 10.9976 167.877 10.7832 167.417 10.3546C166.986 9.89751 166.77 9.32601 166.77 8.64027C166.77 7.95453 166.986 7.3973 167.417 6.96871C167.877 6.5116 168.423 6.28297 169.056 6.28297C169.719 6.28297 170.265 6.49732 170.697 6.92591ZM183.482 6.92591C183.913 7.3545 184.129 7.92587 184.129 8.64027C184.129 9.35454 183.913 9.92603 183.482 10.3546C183.05 10.7832 182.503 10.9976 181.841 10.9976C181.209 10.9976 180.663 10.7832 180.202 10.3546C179.771 9.89751 179.555 9.32601 179.555 8.64027C179.555 7.95453 179.771 7.3973 180.202 6.96871C180.663 6.5116 181.209 6.28297 181.841 6.28297C182.503 6.28297 183.05 6.49732 183.482 6.92591ZM196.267 6.92591C196.697 7.3545 196.914 7.92587 196.914 8.64027C196.914 9.35454 196.697 9.92603 196.267 10.3546C195.834 10.7832 195.288 10.9976 194.627 10.9976C193.994 10.9976 193.448 10.7832 192.986 10.3546C192.555 9.89751 192.339 9.32601 192.339 8.64027C192.339 7.95453 192.555 7.3973 192.986 6.96871C193.448 6.5116 193.994 6.28297 194.627 6.28297C195.288 6.28297 195.834 6.49732 196.267 6.92591ZM4.49432 28.3869C4.92581 28.8149 5.14156 29.3867 5.14156 30.1013C5.14156 30.8158 4.92581 31.3864 4.49432 31.8156C4.06281 32.2448 3.51626 32.4582 2.85462 32.4582C2.22176 32.4582 1.6752 32.2448 1.21493 31.8156C0.783436 31.3586 0.567688 30.7867 0.567688 30.1013C0.567688 29.4158 0.783436 28.8578 1.21493 28.4298C1.6752 27.9728 2.22176 27.7443 2.85462 27.7443C3.51626 27.7443 4.06281 27.9577 4.49432 28.3869ZM17.2791 28.3869C17.7106 28.8149 17.9263 29.3867 17.9263 30.1013C17.9263 30.8158 17.7106 31.3864 17.2791 31.8156C16.8476 32.2448 16.301 32.4582 15.6394 32.4582C15.0065 32.4582 14.46 32.2448 13.9998 31.8156C13.5683 31.3586 13.3525 30.7867 13.3525 30.1013C13.3525 29.4158 13.5683 28.8578 13.9998 28.4298C14.46 27.9728 15.0065 27.7443 15.6394 27.7443C16.301 27.7443 16.8476 27.9577 17.2791 28.3869ZM30.0639 28.3869C30.4954 28.8149 30.7111 29.3867 30.7111 30.1013C30.7111 30.8158 30.4954 31.3864 30.0639 31.8156C29.6324 32.2448 29.0859 32.4582 28.4242 32.4582C27.7913 32.4582 27.2448 32.2448 26.7846 31.8156C26.3531 31.3586 26.1373 30.7867 26.1373 30.1013C26.1373 29.4158 26.3531 28.8578 26.7846 28.4298C27.2448 27.9728 27.7913 27.7443 28.4242 27.7443C29.0859 27.7443 29.6324 27.9577 30.0639 28.3869ZM42.8487 28.3869C43.2802 28.8149 43.4959 29.3867 43.4959 30.1013C43.4959 30.8158 43.2802 31.3864 42.8487 31.8156C42.4172 32.2448 41.8707 32.4582 41.209 32.4582C40.5761 32.4582 40.0296 32.2448 39.5694 31.8156C39.1379 31.3586 38.9221 30.7867 38.9221 30.1013C38.9221 29.4158 39.1379 28.8578 39.5694 28.4298C40.0296 27.9728 40.5761 27.7443 41.209 27.7443C41.8707 27.7443 42.4172 27.9577 42.8487 28.3869ZM55.6335 28.3869C56.065 28.8149 56.2807 29.3867 56.2807 30.1013C56.2807 30.8158 56.065 31.3864 55.6335 31.8156C55.202 32.2448 54.6555 32.4582 53.9938 32.4582C53.3609 32.4582 52.8144 32.2448 52.3541 31.8156C51.9227 31.3586 51.7068 30.7867 51.7068 30.1013C51.7068 29.4158 51.9227 28.8578 52.3541 28.4298C52.8144 27.9728 53.3609 27.7443 53.9938 27.7443C54.6555 27.7443 55.202 27.9577 55.6335 28.3869ZM68.4183 28.3869C68.8498 28.8149 69.0655 29.3867 69.0655 30.1013C69.0655 30.8158 68.8498 31.3864 68.4183 31.8156C67.9868 32.2448 67.4403 32.4582 66.7786 32.4582C66.1457 32.4582 65.5992 32.2448 65.1389 31.8156C64.7074 31.3586 64.4916 30.7867 64.4916 30.1013C64.4916 29.4158 64.7074 28.8578 65.1389 28.4298C65.5992 27.9728 66.1457 27.7443 66.7786 27.7443C67.4403 27.7443 67.9868 27.9577 68.4183 28.3869ZM81.2031 28.3869C81.6346 28.8149 81.8504 29.3867 81.8504 30.1013C81.8504 30.8158 81.6346 31.3864 81.2031 31.8156C80.7716 32.2448 80.2251 32.4582 79.5634 32.4582C78.9305 32.4582 78.3839 32.2448 77.9237 31.8156C77.4922 31.3586 77.2764 30.7867 77.2764 30.1013C77.2764 29.4158 77.4922 28.8578 77.9237 28.4298C78.3839 27.9728 78.9305 27.7443 79.5634 27.7443C80.2251 27.7443 80.7716 27.9577 81.2031 28.3869ZM93.9879 28.3869C94.4194 28.8149 94.6352 29.3867 94.6352 30.1013C94.6352 30.8158 94.4194 31.3864 93.9879 31.8156C93.5564 32.2448 93.0099 32.4582 92.3482 32.4582C91.7152 32.4582 91.1687 32.2448 90.7085 31.8156C90.277 31.3586 90.0612 30.7867 90.0612 30.1013C90.0612 29.4158 90.277 28.8578 90.7085 28.4298C91.1687 27.9728 91.7152 27.7443 92.3482 27.7443C93.0099 27.7443 93.5564 27.9577 93.9879 28.3869ZM106.773 28.3869C107.204 28.8149 107.42 29.3867 107.42 30.1013C107.42 30.8158 107.204 31.3864 106.773 31.8156C106.341 32.2448 105.795 32.4582 105.133 32.4582C104.5 32.4582 103.954 32.2448 103.493 31.8156C103.062 31.3586 102.846 30.7867 102.846 30.1013C102.846 29.4158 103.062 28.8578 103.493 28.4298C103.954 27.9728 104.5 27.7443 105.133 27.7443C105.795 27.7443 106.341 27.9577 106.773 28.3869ZM119.557 28.3869C119.989 28.8149 120.205 29.3867 120.205 30.1013C120.205 30.8158 119.989 31.3864 119.557 31.8156C119.126 32.2448 118.579 32.4582 117.918 32.4582C117.285 32.4582 116.738 32.2448 116.278 31.8156C115.847 31.3586 115.631 30.7867 115.631 30.1013C115.631 29.4158 115.847 28.8578 116.278 28.4298C116.738 27.9728 117.285 27.7443 117.918 27.7443C118.579 27.7443 119.126 27.9577 119.557 28.3869ZM132.342 28.3869C132.774 28.8149 132.989 29.3867 132.989 30.1013C132.989 30.8158 132.774 31.3864 132.342 31.8156C131.911 32.2448 131.365 32.4582 130.702 32.4582C130.07 32.4582 129.523 32.2448 129.063 31.8156C128.631 31.3586 128.416 30.7867 128.416 30.1013C128.416 29.4158 128.631 28.8578 129.063 28.4298C129.523 27.9728 130.07 27.7443 130.702 27.7443C131.365 27.7443 131.911 27.9577 132.342 28.3869ZM145.127 28.3869C145.559 28.8149 145.775 29.3867 145.775 30.1013C145.775 30.8158 145.559 31.3864 145.127 31.8156C144.696 32.2448 144.149 32.4582 143.487 32.4582C142.854 32.4582 142.308 32.2448 141.848 31.8156C141.417 31.3586 141.201 30.7867 141.201 30.1013C141.201 29.4158 141.417 28.8578 141.848 28.4298C142.308 27.9728 142.854 27.7443 143.487 27.7443C144.149 27.7443 144.696 27.9577 145.127 28.3869ZM157.911 28.3869C158.343 28.8149 158.56 29.3867 158.56 30.1013C158.56 30.8158 158.343 31.3864 157.911 31.8156C157.48 32.2448 156.934 32.4582 156.272 32.4582C155.639 32.4582 155.092 32.2448 154.632 31.8156C154.201 31.3586 153.985 30.7867 153.985 30.1013C153.985 29.4158 154.201 28.8578 154.632 28.4298C155.092 27.9728 155.639 27.7443 156.272 27.7443C156.934 27.7443 157.48 27.9577 157.911 28.3869ZM170.697 28.3869C171.128 28.8149 171.344 29.3867 171.344 30.1013C171.344 30.8158 171.128 31.3864 170.697 31.8156C170.265 32.2448 169.719 32.4582 169.056 32.4582C168.423 32.4582 167.877 32.2448 167.417 31.8156C166.986 31.3586 166.77 30.7867 166.77 30.1013C166.77 29.4158 166.986 28.8578 167.417 28.4298C167.877 27.9728 168.423 27.7443 169.056 27.7443C169.719 27.7443 170.265 27.9577 170.697 28.3869ZM183.482 28.3869C183.913 28.8149 184.129 29.3867 184.129 30.1013C184.129 30.8158 183.913 31.3864 183.482 31.8156C183.05 32.2448 182.503 32.4582 181.841 32.4582C181.209 32.4582 180.663 32.2448 180.202 31.8156C179.771 31.3586 179.555 30.7867 179.555 30.1013C179.555 29.4158 179.771 28.8578 180.202 28.4298C180.663 27.9728 181.209 27.7443 181.841 27.7443C182.503 27.7443 183.05 27.9577 183.482 28.3869ZM196.267 28.3869C196.697 28.8149 196.914 29.3867 196.914 30.1013C196.914 30.8158 196.697 31.3864 196.267 31.8156C195.834 32.2448 195.288 32.4582 194.627 32.4582C193.994 32.4582 193.448 32.2448 192.986 31.8156C192.555 31.3586 192.339 30.7867 192.339 30.1013C192.339 29.4158 192.555 28.8578 192.986 28.4298C193.448 27.9728 193.994 27.7443 194.627 27.7443C195.288 27.7443 195.834 27.9577 196.267 28.3869ZM4.49432 49.8479C4.92581 50.2758 5.14156 50.8477 5.14156 51.5623C5.14156 52.2768 4.92581 52.8474 4.49432 53.2766C4.06281 53.7058 3.51626 53.9192 2.85462 53.9192C2.22176 53.9192 1.6752 53.7058 1.21493 53.2766C0.783436 52.8196 0.567688 52.2477 0.567688 51.5623C0.567688 50.8768 0.783436 50.3188 1.21493 49.8908C1.6752 49.4338 2.22176 49.2053 2.85462 49.2053C3.51626 49.2053 4.06281 49.4187 4.49432 49.8479ZM17.2791 49.8479C17.7106 50.2758 17.9263 50.8477 17.9263 51.5623C17.9263 52.2768 17.7106 52.8474 17.2791 53.2766C16.8476 53.7058 16.301 53.9192 15.6394 53.9192C15.0065 53.9192 14.46 53.7058 13.9998 53.2766C13.5683 52.8196 13.3525 52.2477 13.3525 51.5623C13.3525 50.8768 13.5683 50.3188 13.9998 49.8908C14.46 49.4338 15.0065 49.2053 15.6394 49.2053C16.301 49.2053 16.8476 49.4187 17.2791 49.8479ZM30.0639 49.8479C30.4954 50.2758 30.7111 50.8477 30.7111 51.5623C30.7111 52.2768 30.4954 52.8474 30.0639 53.2766C29.6324 53.7058 29.0859 53.9192 28.4242 53.9192C27.7913 53.9192 27.2448 53.7058 26.7846 53.2766C26.3531 52.8196 26.1373 52.2477 26.1373 51.5623C26.1373 50.8768 26.3531 50.3188 26.7846 49.8908C27.2448 49.4338 27.7913 49.2053 28.4242 49.2053C29.0859 49.2053 29.6324 49.4187 30.0639 49.8479ZM42.8487 49.8479C43.2802 50.2758 43.4959 50.8477 43.4959 51.5623C43.4959 52.2768 43.2802 52.8474 42.8487 53.2766C42.4172 53.7058 41.8707 53.9192 41.209 53.9192C40.5761 53.9192 40.0296 53.7058 39.5694 53.2766C39.1379 52.8196 38.9221 52.2477 38.9221 51.5623C38.9221 50.8768 39.1379 50.3188 39.5694 49.8908C40.0296 49.4338 40.5761 49.2053 41.209 49.2053C41.8707 49.2053 42.4172 49.4187 42.8487 49.8479ZM55.6335 49.8479C56.065 50.2758 56.2807 50.8477 56.2807 51.5623C56.2807 52.2768 56.065 52.8474 55.6335 53.2766C55.202 53.7058 54.6555 53.9192 53.9938 53.9192C53.3609 53.9192 52.8144 53.7058 52.3541 53.2766C51.9227 52.8196 51.7068 52.2477 51.7068 51.5623C51.7068 50.8768 51.9227 50.3188 52.3541 49.8908C52.8144 49.4338 53.3609 49.2053 53.9938 49.2053C54.6555 49.2053 55.202 49.4187 55.6335 49.8479ZM68.4183 49.8479C68.8498 50.2758 69.0655 50.8477 69.0655 51.5623C69.0655 52.2768 68.8498 52.8474 68.4183 53.2766C67.9868 53.7058 67.4403 53.9192 66.7786 53.9192C66.1457 53.9192 65.5992 53.7058 65.1389 53.2766C64.7074 52.8196 64.4916 52.2477 64.4916 51.5623C64.4916 50.8768 64.7074 50.3188 65.1389 49.8908C65.5992 49.4338 66.1457 49.2053 66.7786 49.2053C67.4403 49.2053 67.9868 49.4187 68.4183 49.8479ZM81.2031 49.8479C81.6346 50.2758 81.8504 50.8477 81.8504 51.5623C81.8504 52.2768 81.6346 52.8474 81.2031 53.2766C80.7716 53.7058 80.2251 53.9192 79.5634 53.9192C78.9305 53.9192 78.3839 53.7058 77.9237 53.2766C77.4922 52.8196 77.2764 52.2477 77.2764 51.5623C77.2764 50.8768 77.4922 50.3188 77.9237 49.8908C78.3839 49.4338 78.9305 49.2053 79.5634 49.2053C80.2251 49.2053 80.7716 49.4187 81.2031 49.8479ZM93.9879 49.8479C94.4194 50.2758 94.6352 50.8477 94.6352 51.5623C94.6352 52.2768 94.4194 52.8474 93.9879 53.2766C93.5564 53.7058 93.0099 53.9192 92.3482 53.9192C91.7152 53.9192 91.1687 53.7058 90.7085 53.2766C90.277 52.8196 90.0612 52.2477 90.0612 51.5623C90.0612 50.8768 90.277 50.3188 90.7085 49.8908C91.1687 49.4338 91.7152 49.2053 92.3482 49.2053C93.0099 49.2053 93.5564 49.4187 93.9879 49.8479ZM106.773 49.8479C107.204 50.2758 107.42 50.8477 107.42 51.5623C107.42 52.2768 107.204 52.8474 106.773 53.2766C106.341 53.7058 105.795 53.9192 105.133 53.9192C104.5 53.9192 103.954 53.7058 103.493 53.2766C103.062 52.8196 102.846 52.2477 102.846 51.5623C102.846 50.8768 103.062 50.3188 103.493 49.8908C103.954 49.4338 104.5 49.2053 105.133 49.2053C105.795 49.2053 106.341 49.4187 106.773 49.8479ZM119.557 49.8479C119.989 50.2758 120.205 50.8477 120.205 51.5623C120.205 52.2768 119.989 52.8474 119.557 53.2766C119.126 53.7058 118.579 53.9192 117.918 53.9192C117.285 53.9192 116.738 53.7058 116.278 53.2766C115.847 52.8196 115.631 52.2477 115.631 51.5623C115.631 50.8768 115.847 50.3188 116.278 49.8908C116.738 49.4338 117.285 49.2053 117.918 49.2053C118.579 49.2053 119.126 49.4187 119.557 49.8479ZM132.342 49.8479C132.774 50.2758 132.989 50.8477 132.989 51.5623C132.989 52.2768 132.774 52.8474 132.342 53.2766C131.911 53.7058 131.365 53.9192 130.702 53.9192C130.07 53.9192 129.523 53.7058 129.063 53.2766C128.631 52.8196 128.416 52.2477 128.416 51.5623C128.416 50.8768 128.631 50.3188 129.063 49.8908C129.523 49.4338 130.07 49.2053 130.702 49.2053C131.365 49.2053 131.911 49.4187 132.342 49.8479ZM145.127 49.8479C145.559 50.2758 145.775 50.8477 145.775 51.5623C145.775 52.2768 145.559 52.8474 145.127 53.2766C144.696 53.7058 144.149 53.9192 143.487 53.9192C142.854 53.9192 142.308 53.7058 141.848 53.2766C141.417 52.8196 141.201 52.2477 141.201 51.5623C141.201 50.8768 141.417 50.3188 141.848 49.8908C142.308 49.4338 142.854 49.2053 143.487 49.2053C144.149 49.2053 144.696 49.4187 145.127 49.8479ZM157.911 49.8479C158.343 50.2758 158.56 50.8477 158.56 51.5623C158.56 52.2768 158.343 52.8474 157.911 53.2766C157.48 53.7058 156.934 53.9192 156.272 53.9192C155.639 53.9192 155.092 53.7058 154.632 53.2766C154.201 52.8196 153.985 52.2477 153.985 51.5623C153.985 50.8768 154.201 50.3188 154.632 49.8908C155.092 49.4338 155.639 49.2053 156.272 49.2053C156.934 49.2053 157.48 49.4187 157.911 49.8479ZM170.697 49.8479C171.128 50.2758 171.344 50.8477 171.344 51.5623C171.344 52.2768 171.128 52.8474 170.697 53.2766C170.265 53.7058 169.719 53.9192 169.056 53.9192C168.423 53.9192 167.877 53.7058 167.417 53.2766C166.986 52.8196 166.77 52.2477 166.77 51.5623C166.77 50.8768 166.986 50.3188 167.417 49.8908C167.877 49.4338 168.423 49.2053 169.056 49.2053C169.719 49.2053 170.265 49.4187 170.697 49.8479ZM183.482 49.8479C183.913 50.2758 184.129 50.8477 184.129 51.5623C184.129 52.2768 183.913 52.8474 183.482 53.2766C183.05 53.7058 182.503 53.9192 181.841 53.9192C181.209 53.9192 180.663 53.7058 180.202 53.2766C179.771 52.8196 179.555 52.2477 179.555 51.5623C179.555 50.8768 179.771 50.3188 180.202 49.8908C180.663 49.4338 181.209 49.2053 181.841 49.2053C182.503 49.2053 183.05 49.4187 183.482 49.8479ZM196.267 49.8479C196.697 50.2758 196.914 50.8477 196.914 51.5623C196.914 52.2768 196.697 52.8474 196.267 53.2766C195.834 53.7058 195.288 53.9192 194.627 53.9192C193.994 53.9192 193.448 53.7058 192.986 53.2766C192.555 52.8196 192.339 52.2477 192.339 51.5623C192.339 50.8768 192.555 50.3188 192.986 49.8908C193.448 49.4338 193.994 49.2053 194.627 49.2053C195.288 49.2053 195.834 49.4187 196.267 49.8479ZM4.49432 71.3089C4.92581 71.7368 5.14156 72.3087 5.14156 73.0232C5.14156 73.7378 4.92581 74.3084 4.49432 74.7376C4.06281 75.1668 3.51626 75.3802 2.85462 75.3802C2.22176 75.3802 1.6752 75.1668 1.21493 74.7376C0.783436 74.2806 0.567688 73.7087 0.567688 73.0232C0.567688 72.3378 0.783436 71.7798 1.21493 71.3518C1.6752 70.8948 2.22176 70.6663 2.85462 70.6663C3.51626 70.6663 4.06281 70.8797 4.49432 71.3089ZM17.2791 71.3089C17.7106 71.7368 17.9263 72.3087 17.9263 73.0232C17.9263 73.7378 17.7106 74.3084 17.2791 74.7376C16.8476 75.1668 16.301 75.3802 15.6394 75.3802C15.0065 75.3802 14.46 75.1668 13.9998 74.7376C13.5683 74.2806 13.3525 73.7087 13.3525 73.0232C13.3525 72.3378 13.5683 71.7798 13.9998 71.3518C14.46 70.8948 15.0065 70.6663 15.6394 70.6663C16.301 70.6663 16.8476 70.8797 17.2791 71.3089ZM30.0639 71.3089C30.4954 71.7368 30.7111 72.3087 30.7111 73.0232C30.7111 73.7378 30.4954 74.3084 30.0639 74.7376C29.6324 75.1668 29.0859 75.3802 28.4242 75.3802C27.7913 75.3802 27.2448 75.1668 26.7846 74.7376C26.3531 74.2806 26.1373 73.7087 26.1373 73.0232C26.1373 72.3378 26.3531 71.7798 26.7846 71.3518C27.2448 70.8948 27.7913 70.6663 28.4242 70.6663C29.0859 70.6663 29.6324 70.8797 30.0639 71.3089ZM42.8487 71.3089C43.2802 71.7368 43.4959 72.3087 43.4959 73.0232C43.4959 73.7378 43.2802 74.3084 42.8487 74.7376C42.4172 75.1668 41.8707 75.3802 41.209 75.3802C40.5761 75.3802 40.0296 75.1668 39.5694 74.7376C39.1379 74.2806 38.9221 73.7087 38.9221 73.0232C38.9221 72.3378 39.1379 71.7798 39.5694 71.3518C40.0296 70.8948 40.5761 70.6663 41.209 70.6663C41.8707 70.6663 42.4172 70.8797 42.8487 71.3089ZM55.6335 71.3089C56.065 71.7368 56.2807 72.3087 56.2807 73.0232C56.2807 73.7378 56.065 74.3084 55.6335 74.7376C55.202 75.1668 54.6555 75.3802 53.9938 75.3802C53.3609 75.3802 52.8144 75.1668 52.3541 74.7376C51.9227 74.2806 51.7068 73.7087 51.7068 73.0232C51.7068 72.3378 51.9227 71.7798 52.3541 71.3518C52.8144 70.8948 53.3609 70.6663 53.9938 70.6663C54.6555 70.6663 55.202 70.8797 55.6335 71.3089ZM68.4183 71.3089C68.8498 71.7368 69.0655 72.3087 69.0655 73.0232C69.0655 73.7378 68.8498 74.3084 68.4183 74.7376C67.9868 75.1668 67.4403 75.3802 66.7786 75.3802C66.1457 75.3802 65.5992 75.1668 65.1389 74.7376C64.7074 74.2806 64.4916 73.7087 64.4916 73.0232C64.4916 72.3378 64.7074 71.7798 65.1389 71.3518C65.5992 70.8948 66.1457 70.6663 66.7786 70.6663C67.4403 70.6663 67.9868 70.8797 68.4183 71.3089ZM81.2031 71.3089C81.6346 71.7368 81.8504 72.3087 81.8504 73.0232C81.8504 73.7378 81.6346 74.3084 81.2031 74.7376C80.7716 75.1668 80.2251 75.3802 79.5634 75.3802C78.9305 75.3802 78.3839 75.1668 77.9237 74.7376C77.4922 74.2806 77.2764 73.7087 77.2764 73.0232C77.2764 72.3378 77.4922 71.7798 77.9237 71.3518C78.3839 70.8948 78.9305 70.6663 79.5634 70.6663C80.2251 70.6663 80.7716 70.8797 81.2031 71.3089ZM93.9879 71.3089C94.4194 71.7368 94.6352 72.3087 94.6352 73.0232C94.6352 73.7378 94.4194 74.3084 93.9879 74.7376C93.5564 75.1668 93.0099 75.3802 92.3482 75.3802C91.7152 75.3802 91.1687 75.1668 90.7085 74.7376C90.277 74.2806 90.0612 73.7087 90.0612 73.0232C90.0612 72.3378 90.277 71.7798 90.7085 71.3518C91.1687 70.8948 91.7152 70.6663 92.3482 70.6663C93.0099 70.6663 93.5564 70.8797 93.9879 71.3089ZM106.773 71.3089C107.204 71.7368 107.42 72.3087 107.42 73.0232C107.42 73.7378 107.204 74.3084 106.773 74.7376C106.341 75.1668 105.795 75.3802 105.133 75.3802C104.5 75.3802 103.954 75.1668 103.493 74.7376C103.062 74.2806 102.846 73.7087 102.846 73.0232C102.846 72.3378 103.062 71.7798 103.493 71.3518C103.954 70.8948 104.5 70.6663 105.133 70.6663C105.795 70.6663 106.341 70.8797 106.773 71.3089ZM119.557 71.3089C119.989 71.7368 120.205 72.3087 120.205 73.0232C120.205 73.7378 119.989 74.3084 119.557 74.7376C119.126 75.1668 118.579 75.3802 117.918 75.3802C117.285 75.3802 116.738 75.1668 116.278 74.7376C115.847 74.2806 115.631 73.7087 115.631 73.0232C115.631 72.3378 115.847 71.7798 116.278 71.3518C116.738 70.8948 117.285 70.6663 117.918 70.6663C118.579 70.6663 119.126 70.8797 119.557 71.3089ZM132.342 71.3089C132.774 71.7368 132.989 72.3087 132.989 73.0232C132.989 73.7378 132.774 74.3084 132.342 74.7376C131.911 75.1668 131.365 75.3802 130.702 75.3802C130.07 75.3802 129.523 75.1668 129.063 74.7376C128.631 74.2806 128.416 73.7087 128.416 73.0232C128.416 72.3378 128.631 71.7798 129.063 71.3518C129.523 70.8948 130.07 70.6663 130.702 70.6663C131.365 70.6663 131.911 70.8797 132.342 71.3089ZM145.127 71.3089C145.559 71.7368 145.775 72.3087 145.775 73.0232C145.775 73.7378 145.559 74.3084 145.127 74.7376C144.696 75.1668 144.149 75.3802 143.487 75.3802C142.854 75.3802 142.308 75.1668 141.848 74.7376C141.417 74.2806 141.201 73.7087 141.201 73.0232C141.201 72.3378 141.417 71.7798 141.848 71.3518C142.308 70.8948 142.854 70.6663 143.487 70.6663C144.149 70.6663 144.696 70.8797 145.127 71.3089ZM157.911 71.3089C158.343 71.7368 158.56 72.3087 158.56 73.0232C158.56 73.7378 158.343 74.3084 157.911 74.7376C157.48 75.1668 156.934 75.3802 156.272 75.3802C155.639 75.3802 155.092 75.1668 154.632 74.7376C154.201 74.2806 153.985 73.7087 153.985 73.0232C153.985 72.3378 154.201 71.7798 154.632 71.3518C155.092 70.8948 155.639 70.6663 156.272 70.6663C156.934 70.6663 157.48 70.8797 157.911 71.3089ZM170.697 71.3089C171.128 71.7368 171.344 72.3087 171.344 73.0232C171.344 73.7378 171.128 74.3084 170.697 74.7376C170.265 75.1668 169.719 75.3802 169.056 75.3802C168.423 75.3802 167.877 75.1668 167.417 74.7376C166.986 74.2806 166.77 73.7087 166.77 73.0232C166.77 72.3378 166.986 71.7798 167.417 71.3518C167.877 70.8948 168.423 70.6663 169.056 70.6663C169.719 70.6663 170.265 70.8797 170.697 71.3089ZM183.482 71.3089C183.913 71.7368 184.129 72.3087 184.129 73.0232C184.129 73.7378 183.913 74.3084 183.482 74.7376C183.05 75.1668 182.503 75.3802 181.841 75.3802C181.209 75.3802 180.663 75.1668 180.202 74.7376C179.771 74.2806 179.555 73.7087 179.555 73.0232C179.555 72.3378 179.771 71.7798 180.202 71.3518C180.663 70.8948 181.209 70.6663 181.841 70.6663C182.503 70.6663 183.05 70.8797 183.482 71.3089ZM196.267 71.3089C196.697 71.7368 196.914 72.3087 196.914 73.0232C196.914 73.7378 196.697 74.3084 196.267 74.7376C195.834 75.1668 195.288 75.3802 194.627 75.3802C193.994 75.3802 193.448 75.1668 192.986 74.7376C192.555 74.2806 192.339 73.7087 192.339 73.0232C192.339 72.3378 192.555 71.7798 192.986 71.3518C193.448 70.8948 193.994 70.6663 194.627 70.6663C195.288 70.6663 195.834 70.8797 196.267 71.3089Z" fill="#212529"/>
</svg>
