<svg width="197" height="79" viewBox="0 0 197 79" fill="none" xmlns="http://www.w3.org/2000/svg">
<path d="M4.49432 1.62092C4.92581 2.04951 5.14156 2.62097 5.14156 3.33529C5.14156 4.04961 4.92581 4.62107 4.49432 5.04966C4.06281 5.47824 3.51626 5.69254 2.85462 5.69254C2.22176 5.69254 1.6752 5.47824 1.21493 5.04966C0.783436 4.59249 0.567688 4.02103 0.567688 3.33529C0.567688 2.64953 0.783436 2.09237 1.21493 1.66378C1.6752 1.20661 2.22176 0.978027 2.85462 0.978027C3.51626 0.978027 4.06281 1.19232 4.49432 1.62092ZM17.2791 1.62092C17.7106 2.04951 17.9263 2.62097 17.9263 3.33529C17.9263 4.04961 17.7106 4.62107 17.2791 5.04966C16.8476 5.47824 16.301 5.69254 15.6394 5.69254C15.0065 5.69254 14.46 5.47824 13.9998 5.04966C13.5683 4.59249 13.3525 4.02103 13.3525 3.33529C13.3525 2.64953 13.5683 2.09237 13.9998 1.66378C14.46 1.20661 15.0065 0.978027 15.6394 0.978027C16.301 0.978027 16.8476 1.19232 17.2791 1.62092ZM30.0639 1.62092C30.4954 2.04951 30.7111 2.62097 30.7111 3.33529C30.7111 4.04961 30.4954 4.62107 30.0639 5.04966C29.6324 5.47824 29.0859 5.69254 28.4242 5.69254C27.7913 5.69254 27.2448 5.47824 26.7846 5.04966C26.3531 4.59249 26.1373 4.02103 26.1373 3.33529C26.1373 2.64953 26.3531 2.09237 26.7846 1.66378C27.2448 1.20661 27.7913 0.978027 28.4242 0.978027C29.0859 0.978027 29.6324 1.19232 30.0639 1.62092ZM42.8487 1.62092C43.2802 2.04951 43.4959 2.62097 43.4959 3.33529C43.4959 4.04961 43.2802 4.62107 42.8487 5.04966C42.4172 5.47824 41.8707 5.69254 41.209 5.69254C40.5761 5.69254 40.0296 5.47824 39.5694 5.04966C39.1379 4.59249 38.9221 4.02103 38.9221 3.33529C38.9221 2.64953 39.1379 2.09237 39.5694 1.66378C40.0296 1.20661 40.5761 0.978027 41.209 0.978027C41.8707 0.978027 42.4172 1.19232 42.8487 1.62092ZM55.6335 1.62092C56.065 2.04951 56.2807 2.62097 56.2807 3.33529C56.2807 4.04961 56.065 4.62107 55.6335 5.04966C55.202 5.47824 54.6555 5.69254 53.9938 5.69254C53.3609 5.69254 52.8144 5.47824 52.3541 5.04966C51.9227 4.59249 51.7068 4.02103 51.7068 3.33529C51.7068 2.64953 51.9227 2.09237 52.3541 1.66378C52.8144 1.20661 53.3609 0.978027 53.9938 0.978027C54.6555 0.978027 55.202 1.19232 55.6335 1.62092ZM68.4183 1.62092C68.8498 2.04951 69.0655 2.62097 69.0655 3.33529C69.0655 4.04961 68.8498 4.62107 68.4183 5.04966C67.9868 5.47824 67.4403 5.69254 66.7786 5.69254C66.1457 5.69254 65.5992 5.47824 65.1389 5.04966C64.7074 4.59249 64.4916 4.02103 64.4916 3.33529C64.4916 2.64953 64.7074 2.09237 65.1389 1.66378C65.5992 1.20661 66.1457 0.978027 66.7786 0.978027C67.4403 0.978027 67.9868 1.19232 68.4183 1.62092ZM81.2031 1.62092C81.6346 2.04951 81.8504 2.62097 81.8504 3.33529C81.8504 4.04961 81.6346 4.62107 81.2031 5.04966C80.7716 5.47824 80.2251 5.69254 79.5634 5.69254C78.9305 5.69254 78.3839 5.47824 77.9237 5.04966C77.4922 4.59249 77.2764 4.02103 77.2764 3.33529C77.2764 2.64953 77.4922 2.09237 77.9237 1.66378C78.3839 1.20661 78.9305 0.978027 79.5634 0.978027C80.2251 0.978027 80.7716 1.19232 81.2031 1.62092ZM93.9879 1.62092C94.4194 2.04951 94.6352 2.62097 94.6352 3.33529C94.6352 4.04961 94.4194 4.62107 93.9879 5.04966C93.5564 5.47824 93.0099 5.69254 92.3482 5.69254C91.7152 5.69254 91.1687 5.47824 90.7085 5.04966C90.277 4.59249 90.0612 4.02103 90.0612 3.33529C90.0612 2.64953 90.277 2.09237 90.7085 1.66378C91.1687 1.20661 91.7152 0.978027 92.3482 0.978027C93.0099 0.978027 93.5564 1.19232 93.9879 1.62092ZM106.773 1.62092C107.204 2.04951 107.42 2.62097 107.42 3.33529C107.42 4.04961 107.204 4.62107 106.773 5.04966C106.341 5.47824 105.795 5.69254 105.133 5.69254C104.5 5.69254 103.954 5.47824 103.493 5.04966C103.062 4.59249 102.846 4.02103 102.846 3.33529C102.846 2.64953 103.062 2.09237 103.493 1.66378C103.954 1.20661 104.5 0.978027 105.133 0.978027C105.795 0.978027 106.341 1.19232 106.773 1.62092ZM119.557 1.62092C119.989 2.04951 120.205 2.62097 120.205 3.33529C120.205 4.04961 119.989 4.62107 119.557 5.04966C119.126 5.47824 118.579 5.69254 117.918 5.69254C117.285 5.69254 116.738 5.47824 116.278 5.04966C115.847 4.59249 115.631 4.02103 115.631 3.33529C115.631 2.64953 115.847 2.09237 116.278 1.66378C116.738 1.20661 117.285 0.978027 117.918 0.978027C118.579 0.978027 119.126 1.19232 119.557 1.62092ZM132.342 1.62092C132.774 2.04951 132.989 2.62097 132.989 3.33529C132.989 4.04961 132.774 4.62107 132.342 5.04966C131.911 5.47824 131.365 5.69254 130.702 5.69254C130.07 5.69254 129.523 5.47824 129.063 5.04966C128.631 4.59249 128.416 4.02103 128.416 3.33529C128.416 2.64953 128.631 2.09237 129.063 1.66378C129.523 1.20661 130.07 0.978027 130.702 0.978027C131.365 0.978027 131.911 1.19232 132.342 1.62092ZM145.127 1.62092C145.559 2.04951 145.775 2.62097 145.775 3.33529C145.775 4.04961 145.559 4.62107 145.127 5.04966C144.696 5.47824 144.149 5.69254 143.487 5.69254C142.854 5.69254 142.308 5.47824 141.848 5.04966C141.417 4.59249 141.201 4.02103 141.201 3.33529C141.201 2.64953 141.417 2.09237 141.848 1.66378C142.308 1.20661 142.854 0.978027 143.487 0.978027C144.149 0.978027 144.696 1.19232 145.127 1.62092ZM157.911 1.62092C158.343 2.04951 158.56 2.62097 158.56 3.33529C158.56 4.04961 158.343 4.62107 157.911 5.04966C157.48 5.47824 156.934 5.69254 156.272 5.69254C155.639 5.69254 155.092 5.47824 154.632 5.04966C154.201 4.59249 153.985 4.02103 153.985 3.33529C153.985 2.64953 154.201 2.09237 154.632 1.66378C155.092 1.20661 155.639 0.978027 156.272 0.978027C156.934 0.978027 157.48 1.19232 157.911 1.62092ZM170.697 1.62092C171.128 2.04951 171.344 2.62097 171.344 3.33529C171.344 4.04961 171.128 4.62107 170.697 5.04966C170.265 5.47824 169.719 5.69254 169.056 5.69254C168.423 5.69254 167.877 5.47824 167.417 5.04966C166.986 4.59249 166.77 4.02103 166.77 3.33529C166.77 2.64953 166.986 2.09237 167.417 1.66378C167.877 1.20661 168.423 0.978027 169.056 0.978027C169.719 0.978027 170.265 1.19232 170.697 1.62092ZM183.482 1.62092C183.913 2.04951 184.129 2.62097 184.129 3.33529C184.129 4.04961 183.913 4.62107 183.482 5.04966C183.05 5.47824 182.503 5.69254 181.841 5.69254C181.209 5.69254 180.663 5.47824 180.202 5.04966C179.771 4.59249 179.555 4.02103 179.555 3.33529C179.555 2.64953 179.771 2.09237 180.202 1.66378C180.663 1.20661 181.209 0.978027 181.841 0.978027C182.503 0.978027 183.05 1.19232 183.482 1.62092ZM196.267 1.62092C196.697 2.04951 196.914 2.62097 196.914 3.33529C196.914 4.04961 196.697 4.62107 196.267 5.04966C195.834 5.47824 195.288 5.69254 194.627 5.69254C193.994 5.69254 193.448 5.47824 192.986 5.04966C192.555 4.59249 192.339 4.02103 192.339 3.33529C192.339 2.64953 192.555 2.09237 192.986 1.66378C193.448 1.20661 193.994 0.978027 194.627 0.978027C195.288 0.978027 195.834 1.19232 196.267 1.62092ZM4.49432 23.0819C4.92581 23.5105 5.14156 24.0819 5.14156 24.7963C5.14156 25.5106 4.92581 26.0821 4.49432 26.5106C4.06281 26.9392 3.51626 27.1536 2.85462 27.1536C2.22176 27.1536 1.6752 26.9392 1.21493 26.5106C0.783436 26.0535 0.567688 25.482 0.567688 24.7963C0.567688 24.1106 0.783436 23.5533 1.21493 23.1247C1.6752 22.6676 2.22176 22.439 2.85462 22.439C3.51626 22.439 4.06281 22.6534 4.49432 23.0819ZM17.2791 23.0819C17.7106 23.5105 17.9263 24.0819 17.9263 24.7963C17.9263 25.5106 17.7106 26.0821 17.2791 26.5106C16.8476 26.9392 16.301 27.1536 15.6394 27.1536C15.0065 27.1536 14.46 26.9392 13.9998 26.5106C13.5683 26.0535 13.3525 25.482 13.3525 24.7963C13.3525 24.1106 13.5683 23.5533 13.9998 23.1247C14.46 22.6676 15.0065 22.439 15.6394 22.439C16.301 22.439 16.8476 22.6534 17.2791 23.0819ZM30.0639 23.0819C30.4954 23.5105 30.7111 24.0819 30.7111 24.7963C30.7111 25.5106 30.4954 26.0821 30.0639 26.5106C29.6324 26.9392 29.0859 27.1536 28.4242 27.1536C27.7913 27.1536 27.2448 26.9392 26.7846 26.5106C26.3531 26.0535 26.1373 25.482 26.1373 24.7963C26.1373 24.1106 26.3531 23.5533 26.7846 23.1247C27.2448 22.6676 27.7913 22.439 28.4242 22.439C29.0859 22.439 29.6324 22.6534 30.0639 23.0819ZM42.8487 23.0819C43.2802 23.5105 43.4959 24.0819 43.4959 24.7963C43.4959 25.5106 43.2802 26.0821 42.8487 26.5106C42.4172 26.9392 41.8707 27.1536 41.209 27.1536C40.5761 27.1536 40.0296 26.9392 39.5694 26.5106C39.1379 26.0535 38.9221 25.482 38.9221 24.7963C38.9221 24.1106 39.1379 23.5533 39.5694 23.1247C40.0296 22.6676 40.5761 22.439 41.209 22.439C41.8707 22.439 42.4172 22.6534 42.8487 23.0819ZM55.6335 23.0819C56.065 23.5105 56.2807 24.0819 56.2807 24.7963C56.2807 25.5106 56.065 26.0821 55.6335 26.5106C55.202 26.9392 54.6555 27.1536 53.9938 27.1536C53.3609 27.1536 52.8144 26.9392 52.3541 26.5106C51.9227 26.0535 51.7068 25.482 51.7068 24.7963C51.7068 24.1106 51.9227 23.5533 52.3541 23.1247C52.8144 22.6676 53.3609 22.439 53.9938 22.439C54.6555 22.439 55.202 22.6534 55.6335 23.0819ZM68.4183 23.0819C68.8498 23.5105 69.0655 24.0819 69.0655 24.7963C69.0655 25.5106 68.8498 26.0821 68.4183 26.5106C67.9868 26.9392 67.4403 27.1536 66.7786 27.1536C66.1457 27.1536 65.5992 26.9392 65.1389 26.5106C64.7074 26.0535 64.4916 25.482 64.4916 24.7963C64.4916 24.1106 64.7074 23.5533 65.1389 23.1247C65.5992 22.6676 66.1457 22.439 66.7786 22.439C67.4403 22.439 67.9868 22.6534 68.4183 23.0819ZM81.2031 23.0819C81.6346 23.5105 81.8504 24.0819 81.8504 24.7963C81.8504 25.5106 81.6346 26.0821 81.2031 26.5106C80.7716 26.9392 80.2251 27.1536 79.5634 27.1536C78.9305 27.1536 78.3839 26.9392 77.9237 26.5106C77.4922 26.0535 77.2764 25.482 77.2764 24.7963C77.2764 24.1106 77.4922 23.5533 77.9237 23.1247C78.3839 22.6676 78.9305 22.439 79.5634 22.439C80.2251 22.439 80.7716 22.6534 81.2031 23.0819ZM93.9879 23.0819C94.4194 23.5105 94.6352 24.0819 94.6352 24.7963C94.6352 25.5106 94.4194 26.0821 93.9879 26.5106C93.5564 26.9392 93.0099 27.1536 92.3482 27.1536C91.7152 27.1536 91.1687 26.9392 90.7085 26.5106C90.277 26.0535 90.0612 25.482 90.0612 24.7963C90.0612 24.1106 90.277 23.5533 90.7085 23.1247C91.1687 22.6676 91.7152 22.439 92.3482 22.439C93.0099 22.439 93.5564 22.6534 93.9879 23.0819ZM106.773 23.0819C107.204 23.5105 107.42 24.0819 107.42 24.7963C107.42 25.5106 107.204 26.0821 106.773 26.5106C106.341 26.9392 105.795 27.1536 105.133 27.1536C104.5 27.1536 103.954 26.9392 103.493 26.5106C103.062 26.0535 102.846 25.482 102.846 24.7963C102.846 24.1106 103.062 23.5533 103.493 23.1247C103.954 22.6676 104.5 22.439 105.133 22.439C105.795 22.439 106.341 22.6534 106.773 23.0819ZM119.557 23.0819C119.989 23.5105 120.205 24.0819 120.205 24.7963C120.205 25.5106 119.989 26.0821 119.557 26.5106C119.126 26.9392 118.579 27.1536 117.918 27.1536C117.285 27.1536 116.738 26.9392 116.278 26.5106C115.847 26.0535 115.631 25.482 115.631 24.7963C115.631 24.1106 115.847 23.5533 116.278 23.1247C116.738 22.6676 117.285 22.439 117.918 22.439C118.579 22.439 119.126 22.6534 119.557 23.0819ZM132.342 23.0819C132.774 23.5105 132.989 24.0819 132.989 24.7963C132.989 25.5106 132.774 26.0821 132.342 26.5106C131.911 26.9392 131.365 27.1536 130.702 27.1536C130.07 27.1536 129.523 26.9392 129.063 26.5106C128.631 26.0535 128.416 25.482 128.416 24.7963C128.416 24.1106 128.631 23.5533 129.063 23.1247C129.523 22.6676 130.07 22.439 130.702 22.439C131.365 22.439 131.911 22.6534 132.342 23.0819ZM145.127 23.0819C145.559 23.5105 145.775 24.0819 145.775 24.7963C145.775 25.5106 145.559 26.0821 145.127 26.5106C144.696 26.9392 144.149 27.1536 143.487 27.1536C142.854 27.1536 142.308 26.9392 141.848 26.5106C141.417 26.0535 141.201 25.482 141.201 24.7963C141.201 24.1106 141.417 23.5533 141.848 23.1247C142.308 22.6676 142.854 22.439 143.487 22.439C144.149 22.439 144.696 22.6534 145.127 23.0819ZM157.911 23.0819C158.343 23.5105 158.56 24.0819 158.56 24.7963C158.56 25.5106 158.343 26.0821 157.911 26.5106C157.48 26.9392 156.934 27.1536 156.272 27.1536C155.639 27.1536 155.092 26.9392 154.632 26.5106C154.201 26.0535 153.985 25.482 153.985 24.7963C153.985 24.1106 154.201 23.5533 154.632 23.1247C155.092 22.6676 155.639 22.439 156.272 22.439C156.934 22.439 157.48 22.6534 157.911 23.0819ZM170.697 23.0819C171.128 23.5105 171.344 24.0819 171.344 24.7963C171.344 25.5106 171.128 26.0821 170.697 26.5106C170.265 26.9392 169.719 27.1536 169.056 27.1536C168.423 27.1536 167.877 26.9392 167.417 26.5106C166.986 26.0535 166.77 25.482 166.77 24.7963C166.77 24.1106 166.986 23.5533 167.417 23.1247C167.877 22.6676 168.423 22.439 169.056 22.439C169.719 22.439 170.265 22.6534 170.697 23.0819ZM183.482 23.0819C183.913 23.5105 184.129 24.0819 184.129 24.7963C184.129 25.5106 183.913 26.0821 183.482 26.5106C183.05 26.9392 182.503 27.1536 181.841 27.1536C181.209 27.1536 180.663 26.9392 180.202 26.5106C179.771 26.0535 179.555 25.482 179.555 24.7963C179.555 24.1106 179.771 23.5533 180.202 23.1247C180.663 22.6676 181.209 22.439 181.841 22.439C182.503 22.439 183.05 22.6534 183.482 23.0819ZM196.267 23.0819C196.697 23.5105 196.914 24.0819 196.914 24.7963C196.914 25.5106 196.697 26.0821 196.267 26.5106C195.834 26.9392 195.288 27.1536 194.627 27.1536C193.994 27.1536 193.448 26.9392 192.986 26.5106C192.555 26.0535 192.339 25.482 192.339 24.7963C192.339 24.1106 192.555 23.5533 192.986 23.1247C193.448 22.6676 193.994 22.439 194.627 22.439C195.288 22.439 195.834 22.6534 196.267 23.0819ZM4.49432 44.5429C4.92581 44.9715 5.14156 45.5429 5.14156 46.2573C5.14156 46.9716 4.92581 47.5431 4.49432 47.9716C4.06281 48.4002 3.51626 48.6146 2.85462 48.6146C2.22176 48.6146 1.6752 48.4002 1.21493 47.9716C0.783436 47.5145 0.567688 46.943 0.567688 46.2573C0.567688 45.5715 0.783436 45.0143 1.21493 44.5857C1.6752 44.1286 2.22176 43.9 2.85462 43.9C3.51626 43.9 4.06281 44.1143 4.49432 44.5429ZM17.2791 44.5429C17.7106 44.9715 17.9263 45.5429 17.9263 46.2573C17.9263 46.9716 17.7106 47.5431 17.2791 47.9716C16.8476 48.4002 16.301 48.6146 15.6394 48.6146C15.0065 48.6146 14.46 48.4002 13.9998 47.9716C13.5683 47.5145 13.3525 46.943 13.3525 46.2573C13.3525 45.5715 13.5683 45.0143 13.9998 44.5857C14.46 44.1286 15.0065 43.9 15.6394 43.9C16.301 43.9 16.8476 44.1143 17.2791 44.5429ZM30.0639 44.5429C30.4954 44.9715 30.7111 45.5429 30.7111 46.2573C30.7111 46.9716 30.4954 47.5431 30.0639 47.9716C29.6324 48.4002 29.0859 48.6146 28.4242 48.6146C27.7913 48.6146 27.2448 48.4002 26.7846 47.9716C26.3531 47.5145 26.1373 46.943 26.1373 46.2573C26.1373 45.5715 26.3531 45.0143 26.7846 44.5857C27.2448 44.1286 27.7913 43.9 28.4242 43.9C29.0859 43.9 29.6324 44.1143 30.0639 44.5429ZM42.8487 44.5429C43.2802 44.9715 43.4959 45.5429 43.4959 46.2573C43.4959 46.9716 43.2802 47.5431 42.8487 47.9716C42.4172 48.4002 41.8707 48.6146 41.209 48.6146C40.5761 48.6146 40.0296 48.4002 39.5694 47.9716C39.1379 47.5145 38.9221 46.943 38.9221 46.2573C38.9221 45.5715 39.1379 45.0143 39.5694 44.5857C40.0296 44.1286 40.5761 43.9 41.209 43.9C41.8707 43.9 42.4172 44.1143 42.8487 44.5429ZM55.6335 44.5429C56.065 44.9715 56.2807 45.5429 56.2807 46.2573C56.2807 46.9716 56.065 47.5431 55.6335 47.9716C55.202 48.4002 54.6555 48.6146 53.9938 48.6146C53.3609 48.6146 52.8144 48.4002 52.3541 47.9716C51.9227 47.5145 51.7068 46.943 51.7068 46.2573C51.7068 45.5715 51.9227 45.0143 52.3541 44.5857C52.8144 44.1286 53.3609 43.9 53.9938 43.9C54.6555 43.9 55.202 44.1143 55.6335 44.5429ZM68.4183 44.5429C68.8498 44.9715 69.0655 45.5429 69.0655 46.2573C69.0655 46.9716 68.8498 47.5431 68.4183 47.9716C67.9868 48.4002 67.4403 48.6146 66.7786 48.6146C66.1457 48.6146 65.5992 48.4002 65.1389 47.9716C64.7074 47.5145 64.4916 46.943 64.4916 46.2573C64.4916 45.5715 64.7074 45.0143 65.1389 44.5857C65.5992 44.1286 66.1457 43.9 66.7786 43.9C67.4403 43.9 67.9868 44.1143 68.4183 44.5429ZM81.2031 44.5429C81.6346 44.9715 81.8504 45.5429 81.8504 46.2573C81.8504 46.9716 81.6346 47.5431 81.2031 47.9716C80.7716 48.4002 80.2251 48.6146 79.5634 48.6146C78.9305 48.6146 78.3839 48.4002 77.9237 47.9716C77.4922 47.5145 77.2764 46.943 77.2764 46.2573C77.2764 45.5715 77.4922 45.0143 77.9237 44.5857C78.3839 44.1286 78.9305 43.9 79.5634 43.9C80.2251 43.9 80.7716 44.1143 81.2031 44.5429ZM93.9879 44.5429C94.4194 44.9715 94.6352 45.5429 94.6352 46.2573C94.6352 46.9716 94.4194 47.5431 93.9879 47.9716C93.5564 48.4002 93.0099 48.6146 92.3482 48.6146C91.7152 48.6146 91.1687 48.4002 90.7085 47.9716C90.277 47.5145 90.0612 46.943 90.0612 46.2573C90.0612 45.5715 90.277 45.0143 90.7085 44.5857C91.1687 44.1286 91.7152 43.9 92.3482 43.9C93.0099 43.9 93.5564 44.1143 93.9879 44.5429ZM106.773 44.5429C107.204 44.9715 107.42 45.5429 107.42 46.2573C107.42 46.9716 107.204 47.5431 106.773 47.9716C106.341 48.4002 105.795 48.6146 105.133 48.6146C104.5 48.6146 103.954 48.4002 103.493 47.9716C103.062 47.5145 102.846 46.943 102.846 46.2573C102.846 45.5715 103.062 45.0143 103.493 44.5857C103.954 44.1286 104.5 43.9 105.133 43.9C105.795 43.9 106.341 44.1143 106.773 44.5429ZM119.557 44.5429C119.989 44.9715 120.205 45.5429 120.205 46.2573C120.205 46.9716 119.989 47.5431 119.557 47.9716C119.126 48.4002 118.579 48.6146 117.918 48.6146C117.285 48.6146 116.738 48.4002 116.278 47.9716C115.847 47.5145 115.631 46.943 115.631 46.2573C115.631 45.5715 115.847 45.0143 116.278 44.5857C116.738 44.1286 117.285 43.9 117.918 43.9C118.579 43.9 119.126 44.1143 119.557 44.5429ZM132.342 44.5429C132.774 44.9715 132.989 45.5429 132.989 46.2573C132.989 46.9716 132.774 47.5431 132.342 47.9716C131.911 48.4002 131.365 48.6146 130.702 48.6146C130.07 48.6146 129.523 48.4002 129.063 47.9716C128.631 47.5145 128.416 46.943 128.416 46.2573C128.416 45.5715 128.631 45.0143 129.063 44.5857C129.523 44.1286 130.07 43.9 130.702 43.9C131.365 43.9 131.911 44.1143 132.342 44.5429ZM145.127 44.5429C145.559 44.9715 145.775 45.5429 145.775 46.2573C145.775 46.9716 145.559 47.5431 145.127 47.9716C144.696 48.4002 144.149 48.6146 143.487 48.6146C142.854 48.6146 142.308 48.4002 141.848 47.9716C141.417 47.5145 141.201 46.943 141.201 46.2573C141.201 45.5715 141.417 45.0143 141.848 44.5857C142.308 44.1286 142.854 43.9 143.487 43.9C144.149 43.9 144.696 44.1143 145.127 44.5429ZM157.911 44.5429C158.343 44.9715 158.56 45.5429 158.56 46.2573C158.56 46.9716 158.343 47.5431 157.911 47.9716C157.48 48.4002 156.934 48.6146 156.272 48.6146C155.639 48.6146 155.092 48.4002 154.632 47.9716C154.201 47.5145 153.985 46.943 153.985 46.2573C153.985 45.5715 154.201 45.0143 154.632 44.5857C155.092 44.1286 155.639 43.9 156.272 43.9C156.934 43.9 157.48 44.1143 157.911 44.5429ZM170.697 44.5429C171.128 44.9715 171.344 45.5429 171.344 46.2573C171.344 46.9716 171.128 47.5431 170.697 47.9716C170.265 48.4002 169.719 48.6146 169.056 48.6146C168.423 48.6146 167.877 48.4002 167.417 47.9716C166.986 47.5145 166.77 46.943 166.77 46.2573C166.77 45.5715 166.986 45.0143 167.417 44.5857C167.877 44.1286 168.423 43.9 169.056 43.9C169.719 43.9 170.265 44.1143 170.697 44.5429ZM183.482 44.5429C183.913 44.9715 184.129 45.5429 184.129 46.2573C184.129 46.9716 183.913 47.5431 183.482 47.9716C183.05 48.4002 182.503 48.6146 181.841 48.6146C181.209 48.6146 180.663 48.4002 180.202 47.9716C179.771 47.5145 179.555 46.943 179.555 46.2573C179.555 45.5715 179.771 45.0143 180.202 44.5857C180.663 44.1286 181.209 43.9 181.841 43.9C182.503 43.9 183.05 44.1143 183.482 44.5429ZM196.267 44.5429C196.697 44.9715 196.914 45.5429 196.914 46.2573C196.914 46.9716 196.697 47.5431 196.267 47.9716C195.834 48.4002 195.288 48.6146 194.627 48.6146C193.994 48.6146 193.448 48.4002 192.986 47.9716C192.555 47.5145 192.339 46.943 192.339 46.2573C192.339 45.5715 192.555 45.0143 192.986 44.5857C193.448 44.1286 193.994 43.9 194.627 43.9C195.288 43.9 195.834 44.1143 196.267 44.5429ZM4.49432 66.0039C4.92581 66.4325 5.14156 67.0039 5.14156 67.7183C5.14156 68.4326 4.92581 69.0041 4.49432 69.4326C4.06281 69.8612 3.51626 70.0756 2.85462 70.0756C2.22176 70.0756 1.6752 69.8612 1.21493 69.4326C0.783436 68.9755 0.567688 68.404 0.567688 67.7183C0.567688 67.0325 0.783436 66.4753 1.21493 66.0467C1.6752 65.5896 2.22176 65.361 2.85462 65.361C3.51626 65.361 4.06281 65.5753 4.49432 66.0039ZM17.2791 66.0039C17.7106 66.4325 17.9263 67.0039 17.9263 67.7183C17.9263 68.4326 17.7106 69.0041 17.2791 69.4326C16.8476 69.8612 16.301 70.0756 15.6394 70.0756C15.0065 70.0756 14.46 69.8612 13.9998 69.4326C13.5683 68.9755 13.3525 68.404 13.3525 67.7183C13.3525 67.0325 13.5683 66.4753 13.9998 66.0467C14.46 65.5896 15.0065 65.361 15.6394 65.361C16.301 65.361 16.8476 65.5753 17.2791 66.0039ZM30.0639 66.0039C30.4954 66.4325 30.7111 67.0039 30.7111 67.7183C30.7111 68.4326 30.4954 69.0041 30.0639 69.4326C29.6324 69.8612 29.0859 70.0756 28.4242 70.0756C27.7913 70.0756 27.2448 69.8612 26.7846 69.4326C26.3531 68.9755 26.1373 68.404 26.1373 67.7183C26.1373 67.0325 26.3531 66.4753 26.7846 66.0467C27.2448 65.5896 27.7913 65.361 28.4242 65.361C29.0859 65.361 29.6324 65.5753 30.0639 66.0039ZM42.8487 66.0039C43.2802 66.4325 43.4959 67.0039 43.4959 67.7183C43.4959 68.4326 43.2802 69.0041 42.8487 69.4326C42.4172 69.8612 41.8707 70.0756 41.209 70.0756C40.5761 70.0756 40.0296 69.8612 39.5694 69.4326C39.1379 68.9755 38.9221 68.404 38.9221 67.7183C38.9221 67.0325 39.1379 66.4753 39.5694 66.0467C40.0296 65.5896 40.5761 65.361 41.209 65.361C41.8707 65.361 42.4172 65.5753 42.8487 66.0039ZM55.6335 66.0039C56.065 66.4325 56.2807 67.0039 56.2807 67.7183C56.2807 68.4326 56.065 69.0041 55.6335 69.4326C55.202 69.8612 54.6555 70.0756 53.9938 70.0756C53.3609 70.0756 52.8144 69.8612 52.3541 69.4326C51.9227 68.9755 51.7068 68.404 51.7068 67.7183C51.7068 67.0325 51.9227 66.4753 52.3541 66.0467C52.8144 65.5896 53.3609 65.361 53.9938 65.361C54.6555 65.361 55.202 65.5753 55.6335 66.0039ZM68.4183 66.0039C68.8498 66.4325 69.0655 67.0039 69.0655 67.7183C69.0655 68.4326 68.8498 69.0041 68.4183 69.4326C67.9868 69.8612 67.4403 70.0756 66.7786 70.0756C66.1457 70.0756 65.5992 69.8612 65.1389 69.4326C64.7074 68.9755 64.4916 68.404 64.4916 67.7183C64.4916 67.0325 64.7074 66.4753 65.1389 66.0467C65.5992 65.5896 66.1457 65.361 66.7786 65.361C67.4403 65.361 67.9868 65.5753 68.4183 66.0039ZM81.2031 66.0039C81.6346 66.4325 81.8504 67.0039 81.8504 67.7183C81.8504 68.4326 81.6346 69.0041 81.2031 69.4326C80.7716 69.8612 80.2251 70.0756 79.5634 70.0756C78.9305 70.0756 78.3839 69.8612 77.9237 69.4326C77.4922 68.9755 77.2764 68.404 77.2764 67.7183C77.2764 67.0325 77.4922 66.4753 77.9237 66.0467C78.3839 65.5896 78.9305 65.361 79.5634 65.361C80.2251 65.361 80.7716 65.5753 81.2031 66.0039ZM93.9879 66.0039C94.4194 66.4325 94.6352 67.0039 94.6352 67.7183C94.6352 68.4326 94.4194 69.0041 93.9879 69.4326C93.5564 69.8612 93.0099 70.0756 92.3482 70.0756C91.7152 70.0756 91.1687 69.8612 90.7085 69.4326C90.277 68.9755 90.0612 68.404 90.0612 67.7183C90.0612 67.0325 90.277 66.4753 90.7085 66.0467C91.1687 65.5896 91.7152 65.361 92.3482 65.361C93.0099 65.361 93.5564 65.5753 93.9879 66.0039ZM106.773 66.0039C107.204 66.4325 107.42 67.0039 107.42 67.7183C107.42 68.4326 107.204 69.0041 106.773 69.4326C106.341 69.8612 105.795 70.0756 105.133 70.0756C104.5 70.0756 103.954 69.8612 103.493 69.4326C103.062 68.9755 102.846 68.404 102.846 67.7183C102.846 67.0325 103.062 66.4753 103.493 66.0467C103.954 65.5896 104.5 65.361 105.133 65.361C105.795 65.361 106.341 65.5753 106.773 66.0039ZM119.557 66.0039C119.989 66.4325 120.205 67.0039 120.205 67.7183C120.205 68.4326 119.989 69.0041 119.557 69.4326C119.126 69.8612 118.579 70.0756 117.918 70.0756C117.285 70.0756 116.738 69.8612 116.278 69.4326C115.847 68.9755 115.631 68.404 115.631 67.7183C115.631 67.0325 115.847 66.4753 116.278 66.0467C116.738 65.5896 117.285 65.361 117.918 65.361C118.579 65.361 119.126 65.5753 119.557 66.0039ZM132.342 66.0039C132.774 66.4325 132.989 67.0039 132.989 67.7183C132.989 68.4326 132.774 69.0041 132.342 69.4326C131.911 69.8612 131.365 70.0756 130.702 70.0756C130.07 70.0756 129.523 69.8612 129.063 69.4326C128.631 68.9755 128.416 68.404 128.416 67.7183C128.416 67.0325 128.631 66.4753 129.063 66.0467C129.523 65.5896 130.07 65.361 130.702 65.361C131.365 65.361 131.911 65.5753 132.342 66.0039ZM145.127 66.0039C145.559 66.4325 145.775 67.0039 145.775 67.7183C145.775 68.4326 145.559 69.0041 145.127 69.4326C144.696 69.8612 144.149 70.0756 143.487 70.0756C142.854 70.0756 142.308 69.8612 141.848 69.4326C141.417 68.9755 141.201 68.404 141.201 67.7183C141.201 67.0325 141.417 66.4753 141.848 66.0467C142.308 65.5896 142.854 65.361 143.487 65.361C144.149 65.361 144.696 65.5753 145.127 66.0039ZM157.911 66.0039C158.343 66.4325 158.56 67.0039 158.56 67.7183C158.56 68.4326 158.343 69.0041 157.911 69.4326C157.48 69.8612 156.934 70.0756 156.272 70.0756C155.639 70.0756 155.092 69.8612 154.632 69.4326C154.201 68.9755 153.985 68.404 153.985 67.7183C153.985 67.0325 154.201 66.4753 154.632 66.0467C155.092 65.5896 155.639 65.361 156.272 65.361C156.934 65.361 157.48 65.5753 157.911 66.0039ZM170.697 66.0039C171.128 66.4325 171.344 67.0039 171.344 67.7183C171.344 68.4326 171.128 69.0041 170.697 69.4326C170.265 69.8612 169.719 70.0756 169.056 70.0756C168.423 70.0756 167.877 69.8612 167.417 69.4326C166.986 68.9755 166.77 68.404 166.77 67.7183C166.77 67.0325 166.986 66.4753 167.417 66.0467C167.877 65.5896 168.423 65.361 169.056 65.361C169.719 65.361 170.265 65.5753 170.697 66.0039ZM183.482 66.0039C183.913 66.4325 184.129 67.0039 184.129 67.7183C184.129 68.4326 183.913 69.0041 183.482 69.4326C183.05 69.8612 182.503 70.0756 181.841 70.0756C181.209 70.0756 180.663 69.8612 180.202 69.4326C179.771 68.9755 179.555 68.404 179.555 67.7183C179.555 67.0325 179.771 66.4753 180.202 66.0467C180.663 65.5896 181.209 65.361 181.841 65.361C182.503 65.361 183.05 65.5753 183.482 66.0039ZM196.267 66.0039C196.697 66.4325 196.914 67.0039 196.914 67.7183C196.914 68.4326 196.697 69.0041 196.267 69.4326C195.834 69.8612 195.288 70.0756 194.627 70.0756C193.994 70.0756 193.448 69.8612 192.986 69.4326C192.555 68.9755 192.339 68.404 192.339 67.7183C192.339 67.0325 192.555 66.4753 192.986 66.0467C193.448 65.5896 193.994 65.361 194.627 65.361C195.288 65.361 195.834 65.5753 196.267 66.0039ZM4.49432 87.4649C4.92581 87.8935 5.14156 88.4649 5.14156 89.1793C5.14156 89.8935 4.92581 90.465 4.49432 90.8936C4.06281 91.3222 3.51626 91.5366 2.85462 91.5366C2.22176 91.5366 1.6752 91.3222 1.21493 90.8936C0.783436 90.4365 0.567688 89.865 0.567688 89.1793C0.567688 88.4935 0.783436 87.9363 1.21493 87.5077C1.6752 87.0506 2.22176 86.822 2.85462 86.822C3.51626 86.822 4.06281 87.0363 4.49432 87.4649ZM17.2791 87.4649C17.7106 87.8935 17.9263 88.4649 17.9263 89.1793C17.9263 89.8935 17.7106 90.465 17.2791 90.8936C16.8476 91.3222 16.301 91.5366 15.6394 91.5366C15.0065 91.5366 14.46 91.3222 13.9998 90.8936C13.5683 90.4365 13.3525 89.865 13.3525 89.1793C13.3525 88.4935 13.5683 87.9363 13.9998 87.5077C14.46 87.0506 15.0065 86.822 15.6394 86.822C16.301 86.822 16.8476 87.0363 17.2791 87.4649ZM30.0639 87.4649C30.4954 87.8935 30.7111 88.4649 30.7111 89.1793C30.7111 89.8935 30.4954 90.465 30.0639 90.8936C29.6324 91.3222 29.0859 91.5366 28.4242 91.5366C27.7913 91.5366 27.2448 91.3222 26.7846 90.8936C26.3531 90.4365 26.1373 89.865 26.1373 89.1793C26.1373 88.4935 26.3531 87.9363 26.7846 87.5077C27.2448 87.0506 27.7913 86.822 28.4242 86.822C29.0859 86.822 29.6324 87.0363 30.0639 87.4649ZM42.8487 87.4649C43.2802 87.8935 43.4959 88.4649 43.4959 89.1793C43.4959 89.8935 43.2802 90.465 42.8487 90.8936C42.4172 91.3222 41.8707 91.5366 41.209 91.5366C40.5761 91.5366 40.0296 91.3222 39.5694 90.8936C39.1379 90.4365 38.9221 89.865 38.9221 89.1793C38.9221 88.4935 39.1379 87.9363 39.5694 87.5077C40.0296 87.0506 40.5761 86.822 41.209 86.822C41.8707 86.822 42.4172 87.0363 42.8487 87.4649ZM55.6335 87.4649C56.065 87.8935 56.2807 88.4649 56.2807 89.1793C56.2807 89.8935 56.065 90.465 55.6335 90.8936C55.202 91.3222 54.6555 91.5366 53.9938 91.5366C53.3609 91.5366 52.8144 91.3222 52.3541 90.8936C51.9227 90.4365 51.7068 89.865 51.7068 89.1793C51.7068 88.4935 51.9227 87.9363 52.3541 87.5077C52.8144 87.0506 53.3609 86.822 53.9938 86.822C54.6555 86.822 55.202 87.0363 55.6335 87.4649ZM68.4183 87.4649C68.8498 87.8935 69.0655 88.4649 69.0655 89.1793C69.0655 89.8935 68.8498 90.465 68.4183 90.8936C67.9868 91.3222 67.4403 91.5366 66.7786 91.5366C66.1457 91.5366 65.5992 91.3222 65.1389 90.8936C64.7074 90.4365 64.4916 89.865 64.4916 89.1793C64.4916 88.4935 64.7074 87.9363 65.1389 87.5077C65.5992 87.0506 66.1457 86.822 66.7786 86.822C67.4403 86.822 67.9868 87.0363 68.4183 87.4649ZM81.2031 87.4649C81.6346 87.8935 81.8504 88.4649 81.8504 89.1793C81.8504 89.8935 81.6346 90.465 81.2031 90.8936C80.7716 91.3222 80.2251 91.5366 79.5634 91.5366C78.9305 91.5366 78.3839 91.3222 77.9237 90.8936C77.4922 90.4365 77.2764 89.865 77.2764 89.1793C77.2764 88.4935 77.4922 87.9363 77.9237 87.5077C78.3839 87.0506 78.9305 86.822 79.5634 86.822C80.2251 86.822 80.7716 87.0363 81.2031 87.4649ZM93.9879 87.4649C94.4194 87.8935 94.6352 88.4649 94.6352 89.1793C94.6352 89.8935 94.4194 90.465 93.9879 90.8936C93.5564 91.3222 93.0099 91.5366 92.3482 91.5366C91.7152 91.5366 91.1687 91.3222 90.7085 90.8936C90.277 90.4365 90.0612 89.865 90.0612 89.1793C90.0612 88.4935 90.277 87.9363 90.7085 87.5077C91.1687 87.0506 91.7152 86.822 92.3482 86.822C93.0099 86.822 93.5564 87.0363 93.9879 87.4649ZM106.773 87.4649C107.204 87.8935 107.42 88.4649 107.42 89.1793C107.42 89.8935 107.204 90.465 106.773 90.8936C106.341 91.3222 105.795 91.5366 105.133 91.5366C104.5 91.5366 103.954 91.3222 103.493 90.8936C103.062 90.4365 102.846 89.865 102.846 89.1793C102.846 88.4935 103.062 87.9363 103.493 87.5077C103.954 87.0506 104.5 86.822 105.133 86.822C105.795 86.822 106.341 87.0363 106.773 87.4649ZM119.557 87.4649C119.989 87.8935 120.205 88.4649 120.205 89.1793C120.205 89.8935 119.989 90.465 119.557 90.8936C119.126 91.3222 118.579 91.5366 117.918 91.5366C117.285 91.5366 116.738 91.3222 116.278 90.8936C115.847 90.4365 115.631 89.865 115.631 89.1793C115.631 88.4935 115.847 87.9363 116.278 87.5077C116.738 87.0506 117.285 86.822 117.918 86.822C118.579 86.822 119.126 87.0363 119.557 87.4649ZM132.342 87.4649C132.774 87.8935 132.989 88.4649 132.989 89.1793C132.989 89.8935 132.774 90.465 132.342 90.8936C131.911 91.3222 131.365 91.5366 130.702 91.5366C130.07 91.5366 129.523 91.3222 129.063 90.8936C128.631 90.4365 128.416 89.865 128.416 89.1793C128.416 88.4935 128.631 87.9363 129.063 87.5077C129.523 87.0506 130.07 86.822 130.702 86.822C131.365 86.822 131.911 87.0363 132.342 87.4649ZM145.127 87.4649C145.559 87.8935 145.775 88.4649 145.775 89.1793C145.775 89.8935 145.559 90.465 145.127 90.8936C144.696 91.3222 144.149 91.5366 143.487 91.5366C142.854 91.5366 142.308 91.3222 141.848 90.8936C141.417 90.4365 141.201 89.865 141.201 89.1793C141.201 88.4935 141.417 87.9363 141.848 87.5077C142.308 87.0506 142.854 86.822 143.487 86.822C144.149 86.822 144.696 87.0363 145.127 87.4649ZM157.911 87.4649C158.343 87.8935 158.56 88.4649 158.56 89.1793C158.56 89.8935 158.343 90.465 157.911 90.8936C157.48 91.3222 156.934 91.5366 156.272 91.5366C155.639 91.5366 155.092 91.3222 154.632 90.8936C154.201 90.4365 153.985 89.865 153.985 89.1793C153.985 88.4935 154.201 87.9363 154.632 87.5077C155.092 87.0506 155.639 86.822 156.272 86.822C156.934 86.822 157.48 87.0363 157.911 87.4649ZM170.697 87.4649C171.128 87.8935 171.344 88.4649 171.344 89.1793C171.344 89.8935 171.128 90.465 170.697 90.8936C170.265 91.3222 169.719 91.5366 169.056 91.5366C168.423 91.5366 167.877 91.3222 167.417 90.8936C166.986 90.4365 166.77 89.865 166.77 89.1793C166.77 88.4935 166.986 87.9363 167.417 87.5077C167.877 87.0506 168.423 86.822 169.056 86.822C169.719 86.822 170.265 87.0363 170.697 87.4649ZM183.482 87.4649C183.913 87.8935 184.129 88.4649 184.129 89.1793C184.129 89.8935 183.913 90.465 183.482 90.8936C183.05 91.3222 182.503 91.5366 181.841 91.5366C181.209 91.5366 180.663 91.3222 180.202 90.8936C179.771 90.4365 179.555 89.865 179.555 89.1793C179.555 88.4935 179.771 87.9363 180.202 87.5077C180.663 87.0506 181.209 86.822 181.841 86.822C182.503 86.822 183.05 87.0363 183.482 87.4649ZM196.267 87.4649C196.697 87.8935 196.914 88.4649 196.914 89.1793C196.914 89.8935 196.697 90.465 196.267 90.8936C195.834 91.3222 195.288 91.5366 194.627 91.5366C193.994 91.5366 193.448 91.3222 192.986 90.8936C192.555 90.4365 192.339 89.865 192.339 89.1793C192.339 88.4935 192.555 87.9363 192.986 87.5077C193.448 87.0506 193.994 86.822 194.627 86.822C195.288 86.822 195.834 87.0363 196.267 87.4649ZM4.49432 108.926C4.92581 109.354 5.14156 109.926 5.14156 110.64C5.14156 111.355 4.92581 111.926 4.49432 112.355C4.06281 112.783 3.51626 112.998 2.85462 112.998C2.22176 112.998 1.6752 112.783 1.21493 112.355C0.783436 111.898 0.567688 111.326 0.567688 110.64C0.567688 109.955 0.783436 109.397 1.21493 108.969C1.6752 108.512 2.22176 108.283 2.85462 108.283C3.51626 108.283 4.06281 108.497 4.49432 108.926ZM17.2791 108.926C17.7106 109.354 17.9263 109.926 17.9263 110.64C17.9263 111.355 17.7106 111.926 17.2791 112.355C16.8476 112.783 16.301 112.998 15.6394 112.998C15.0065 112.998 14.46 112.783 13.9998 112.355C13.5683 111.898 13.3525 111.326 13.3525 110.64C13.3525 109.955 13.5683 109.397 13.9998 108.969C14.46 108.512 15.0065 108.283 15.6394 108.283C16.301 108.283 16.8476 108.497 17.2791 108.926ZM30.0639 108.926C30.4954 109.354 30.7111 109.926 30.7111 110.64C30.7111 111.355 30.4954 111.926 30.0639 112.355C29.6324 112.783 29.0859 112.998 28.4242 112.998C27.7913 112.998 27.2448 112.783 26.7846 112.355C26.3531 111.898 26.1373 111.326 26.1373 110.64C26.1373 109.955 26.3531 109.397 26.7846 108.969C27.2448 108.512 27.7913 108.283 28.4242 108.283C29.0859 108.283 29.6324 108.497 30.0639 108.926ZM42.8487 108.926C43.2802 109.354 43.4959 109.926 43.4959 110.64C43.4959 111.355 43.2802 111.926 42.8487 112.355C42.4172 112.783 41.8707 112.998 41.209 112.998C40.5761 112.998 40.0296 112.783 39.5694 112.355C39.1379 111.898 38.9221 111.326 38.9221 110.64C38.9221 109.955 39.1379 109.397 39.5694 108.969C40.0296 108.512 40.5761 108.283 41.209 108.283C41.8707 108.283 42.4172 108.497 42.8487 108.926ZM55.6335 108.926C56.065 109.354 56.2807 109.926 56.2807 110.64C56.2807 111.355 56.065 111.926 55.6335 112.355C55.202 112.783 54.6555 112.998 53.9938 112.998C53.3609 112.998 52.8144 112.783 52.3541 112.355C51.9227 111.898 51.7068 111.326 51.7068 110.64C51.7068 109.955 51.9227 109.397 52.3541 108.969C52.8144 108.512 53.3609 108.283 53.9938 108.283C54.6555 108.283 55.202 108.497 55.6335 108.926ZM68.4183 108.926C68.8498 109.354 69.0655 109.926 69.0655 110.64C69.0655 111.355 68.8498 111.926 68.4183 112.355C67.9868 112.783 67.4403 112.998 66.7786 112.998C66.1457 112.998 65.5992 112.783 65.1389 112.355C64.7074 111.898 64.4916 111.326 64.4916 110.64C64.4916 109.955 64.7074 109.397 65.1389 108.969C65.5992 108.512 66.1457 108.283 66.7786 108.283C67.4403 108.283 67.9868 108.497 68.4183 108.926ZM81.2031 108.926C81.6346 109.354 81.8504 109.926 81.8504 110.64C81.8504 111.355 81.6346 111.926 81.2031 112.355C80.7716 112.783 80.2251 112.998 79.5634 112.998C78.9305 112.998 78.3839 112.783 77.9237 112.355C77.4922 111.898 77.2764 111.326 77.2764 110.64C77.2764 109.955 77.4922 109.397 77.9237 108.969C78.3839 108.512 78.9305 108.283 79.5634 108.283C80.2251 108.283 80.7716 108.497 81.2031 108.926ZM93.9879 108.926C94.4194 109.354 94.6352 109.926 94.6352 110.64C94.6352 111.355 94.4194 111.926 93.9879 112.355C93.5564 112.783 93.0099 112.998 92.3482 112.998C91.7152 112.998 91.1687 112.783 90.7085 112.355C90.277 111.898 90.0612 111.326 90.0612 110.64C90.0612 109.955 90.277 109.397 90.7085 108.969C91.1687 108.512 91.7152 108.283 92.3482 108.283C93.0099 108.283 93.5564 108.497 93.9879 108.926ZM106.773 108.926C107.204 109.354 107.42 109.926 107.42 110.64C107.42 111.355 107.204 111.926 106.773 112.355C106.341 112.783 105.795 112.998 105.133 112.998C104.5 112.998 103.954 112.783 103.493 112.355C103.062 111.898 102.846 111.326 102.846 110.64C102.846 109.955 103.062 109.397 103.493 108.969C103.954 108.512 104.5 108.283 105.133 108.283C105.795 108.283 106.341 108.497 106.773 108.926ZM119.557 108.926C119.989 109.354 120.205 109.926 120.205 110.64C120.205 111.355 119.989 111.926 119.557 112.355C119.126 112.783 118.579 112.998 117.918 112.998C117.285 112.998 116.738 112.783 116.278 112.355C115.847 111.898 115.631 111.326 115.631 110.64C115.631 109.955 115.847 109.397 116.278 108.969C116.738 108.512 117.285 108.283 117.918 108.283C118.579 108.283 119.126 108.497 119.557 108.926ZM132.342 108.926C132.774 109.354 132.989 109.926 132.989 110.64C132.989 111.355 132.774 111.926 132.342 112.355C131.911 112.783 131.365 112.998 130.702 112.998C130.07 112.998 129.523 112.783 129.063 112.355C128.631 111.898 128.416 111.326 128.416 110.64C128.416 109.955 128.631 109.397 129.063 108.969C129.523 108.512 130.07 108.283 130.702 108.283C131.365 108.283 131.911 108.497 132.342 108.926ZM145.127 108.926C145.559 109.354 145.775 109.926 145.775 110.64C145.775 111.355 145.559 111.926 145.127 112.355C144.696 112.783 144.149 112.998 143.487 112.998C142.854 112.998 142.308 112.783 141.848 112.355C141.417 111.898 141.201 111.326 141.201 110.64C141.201 109.955 141.417 109.397 141.848 108.969C142.308 108.512 142.854 108.283 143.487 108.283C144.149 108.283 144.696 108.497 145.127 108.926ZM157.911 108.926C158.343 109.354 158.56 109.926 158.56 110.64C158.56 111.355 158.343 111.926 157.911 112.355C157.48 112.783 156.934 112.998 156.272 112.998C155.639 112.998 155.092 112.783 154.632 112.355C154.201 111.898 153.985 111.326 153.985 110.64C153.985 109.955 154.201 109.397 154.632 108.969C155.092 108.512 155.639 108.283 156.272 108.283C156.934 108.283 157.48 108.497 157.911 108.926ZM170.697 108.926C171.128 109.354 171.344 109.926 171.344 110.64C171.344 111.355 171.128 111.926 170.697 112.355C170.265 112.783 169.719 112.998 169.056 112.998C168.423 112.998 167.877 112.783 167.417 112.355C166.986 111.898 166.77 111.326 166.77 110.64C166.77 109.955 166.986 109.397 167.417 108.969C167.877 108.512 168.423 108.283 169.056 108.283C169.719 108.283 170.265 108.497 170.697 108.926ZM183.482 108.926C183.913 109.354 184.129 109.926 184.129 110.64C184.129 111.355 183.913 111.926 183.482 112.355C183.05 112.783 182.503 112.998 181.841 112.998C181.209 112.998 180.663 112.783 180.202 112.355C179.771 111.898 179.555 111.326 179.555 110.64C179.555 109.955 179.771 109.397 180.202 108.969C180.663 108.512 181.209 108.283 181.841 108.283C182.503 108.283 183.05 108.497 183.482 108.926ZM196.267 108.926C196.697 109.354 196.914 109.926 196.914 110.64C196.914 111.355 196.697 111.926 196.267 112.355C195.834 112.783 195.288 112.998 194.627 112.998C193.994 112.998 193.448 112.783 192.986 112.355C192.555 111.898 192.339 111.326 192.339 110.64C192.339 109.955 192.555 109.397 192.986 108.969C193.448 108.512 193.994 108.283 194.627 108.283C195.288 108.283 195.834 108.497 196.267 108.926ZM4.49432 130.387C4.92581 130.815 5.14156 131.387 5.14156 132.101C5.14156 132.816 4.92581 133.386 4.49432 133.816C4.06281 134.245 3.51626 134.458 2.85462 134.458C2.22176 134.458 1.6752 134.245 1.21493 133.816C0.783436 133.359 0.567688 132.787 0.567688 132.101C0.567688 131.416 0.783436 130.858 1.21493 130.43C1.6752 129.973 2.22176 129.744 2.85462 129.744C3.51626 129.744 4.06281 129.958 4.49432 130.387ZM17.2791 130.387C17.7106 130.815 17.9263 131.387 17.9263 132.101C17.9263 132.816 17.7106 133.386 17.2791 133.816C16.8476 134.245 16.301 134.458 15.6394 134.458C15.0065 134.458 14.46 134.245 13.9998 133.816C13.5683 133.359 13.3525 132.787 13.3525 132.101C13.3525 131.416 13.5683 130.858 13.9998 130.43C14.46 129.973 15.0065 129.744 15.6394 129.744C16.301 129.744 16.8476 129.958 17.2791 130.387ZM30.0639 130.387C30.4954 130.815 30.7111 131.387 30.7111 132.101C30.7111 132.816 30.4954 133.386 30.0639 133.816C29.6324 134.245 29.0859 134.458 28.4242 134.458C27.7913 134.458 27.2448 134.245 26.7846 133.816C26.3531 133.359 26.1373 132.787 26.1373 132.101C26.1373 131.416 26.3531 130.858 26.7846 130.43C27.2448 129.973 27.7913 129.744 28.4242 129.744C29.0859 129.744 29.6324 129.958 30.0639 130.387ZM42.8487 130.387C43.2802 130.815 43.4959 131.387 43.4959 132.101C43.4959 132.816 43.2802 133.386 42.8487 133.816C42.4172 134.245 41.8707 134.458 41.209 134.458C40.5761 134.458 40.0296 134.245 39.5694 133.816C39.1379 133.359 38.9221 132.787 38.9221 132.101C38.9221 131.416 39.1379 130.858 39.5694 130.43C40.0296 129.973 40.5761 129.744 41.209 129.744C41.8707 129.744 42.4172 129.958 42.8487 130.387ZM55.6335 130.387C56.065 130.815 56.2807 131.387 56.2807 132.101C56.2807 132.816 56.065 133.386 55.6335 133.816C55.202 134.245 54.6555 134.458 53.9938 134.458C53.3609 134.458 52.8144 134.245 52.3541 133.816C51.9227 133.359 51.7068 132.787 51.7068 132.101C51.7068 131.416 51.9227 130.858 52.3541 130.43C52.8144 129.973 53.3609 129.744 53.9938 129.744C54.6555 129.744 55.202 129.958 55.6335 130.387ZM68.4183 130.387C68.8498 130.815 69.0655 131.387 69.0655 132.101C69.0655 132.816 68.8498 133.386 68.4183 133.816C67.9868 134.245 67.4403 134.458 66.7786 134.458C66.1457 134.458 65.5992 134.245 65.1389 133.816C64.7074 133.359 64.4916 132.787 64.4916 132.101C64.4916 131.416 64.7074 130.858 65.1389 130.43C65.5992 129.973 66.1457 129.744 66.7786 129.744C67.4403 129.744 67.9868 129.958 68.4183 130.387ZM81.2031 130.387C81.6346 130.815 81.8504 131.387 81.8504 132.101C81.8504 132.816 81.6346 133.386 81.2031 133.816C80.7716 134.245 80.2251 134.458 79.5634 134.458C78.9305 134.458 78.3839 134.245 77.9237 133.816C77.4922 133.359 77.2764 132.787 77.2764 132.101C77.2764 131.416 77.4922 130.858 77.9237 130.43C78.3839 129.973 78.9305 129.744 79.5634 129.744C80.2251 129.744 80.7716 129.958 81.2031 130.387ZM93.9879 130.387C94.4194 130.815 94.6352 131.387 94.6352 132.101C94.6352 132.816 94.4194 133.386 93.9879 133.816C93.5564 134.245 93.0099 134.458 92.3482 134.458C91.7152 134.458 91.1687 134.245 90.7085 133.816C90.277 133.359 90.0612 132.787 90.0612 132.101C90.0612 131.416 90.277 130.858 90.7085 130.43C91.1687 129.973 91.7152 129.744 92.3482 129.744C93.0099 129.744 93.5564 129.958 93.9879 130.387ZM106.773 130.387C107.204 130.815 107.42 131.387 107.42 132.101C107.42 132.816 107.204 133.386 106.773 133.816C106.341 134.245 105.795 134.458 105.133 134.458C104.5 134.458 103.954 134.245 103.493 133.816C103.062 133.359 102.846 132.787 102.846 132.101C102.846 131.416 103.062 130.858 103.493 130.43C103.954 129.973 104.5 129.744 105.133 129.744C105.795 129.744 106.341 129.958 106.773 130.387ZM119.557 130.387C119.989 130.815 120.205 131.387 120.205 132.101C120.205 132.816 119.989 133.386 119.557 133.816C119.126 134.245 118.579 134.458 117.918 134.458C117.285 134.458 116.738 134.245 116.278 133.816C115.847 133.359 115.631 132.787 115.631 132.101C115.631 131.416 115.847 130.858 116.278 130.43C116.738 129.973 117.285 129.744 117.918 129.744C118.579 129.744 119.126 129.958 119.557 130.387ZM132.342 130.387C132.774 130.815 132.989 131.387 132.989 132.101C132.989 132.816 132.774 133.386 132.342 133.816C131.911 134.245 131.365 134.458 130.702 134.458C130.07 134.458 129.523 134.245 129.063 133.816C128.631 133.359 128.416 132.787 128.416 132.101C128.416 131.416 128.631 130.858 129.063 130.43C129.523 129.973 130.07 129.744 130.702 129.744C131.365 129.744 131.911 129.958 132.342 130.387ZM145.127 130.387C145.559 130.815 145.775 131.387 145.775 132.101C145.775 132.816 145.559 133.386 145.127 133.816C144.696 134.245 144.149 134.458 143.487 134.458C142.854 134.458 142.308 134.245 141.848 133.816C141.417 133.359 141.201 132.787 141.201 132.101C141.201 131.416 141.417 130.858 141.848 130.43C142.308 129.973 142.854 129.744 143.487 129.744C144.149 129.744 144.696 129.958 145.127 130.387ZM157.911 130.387C158.343 130.815 158.56 131.387 158.56 132.101C158.56 132.816 158.343 133.386 157.911 133.816C157.48 134.245 156.934 134.458 156.272 134.458C155.639 134.458 155.092 134.245 154.632 133.816C154.201 133.359 153.985 132.787 153.985 132.101C153.985 131.416 154.201 130.858 154.632 130.43C155.092 129.973 155.639 129.744 156.272 129.744C156.934 129.744 157.48 129.958 157.911 130.387ZM170.697 130.387C171.128 130.815 171.344 131.387 171.344 132.101C171.344 132.816 171.128 133.386 170.697 133.816C170.265 134.245 169.719 134.458 169.056 134.458C168.423 134.458 167.877 134.245 167.417 133.816C166.986 133.359 166.77 132.787 166.77 132.101C166.77 131.416 166.986 130.858 167.417 130.43C167.877 129.973 168.423 129.744 169.056 129.744C169.719 129.744 170.265 129.958 170.697 130.387ZM183.482 130.387C183.913 130.815 184.129 131.387 184.129 132.101C184.129 132.816 183.913 133.386 183.482 133.816C183.05 134.245 182.503 134.458 181.841 134.458C181.209 134.458 180.663 134.245 180.202 133.816C179.771 133.359 179.555 132.787 179.555 132.101C179.555 131.416 179.771 130.858 180.202 130.43C180.663 129.973 181.209 129.744 181.841 129.744C182.503 129.744 183.05 129.958 183.482 130.387ZM196.267 130.387C196.697 130.815 196.914 131.387 196.914 132.101C196.914 132.816 196.697 133.386 196.267 133.816C195.834 134.245 195.288 134.458 194.627 134.458C193.994 134.458 193.448 134.245 192.986 133.816C192.555 133.359 192.339 132.787 192.339 132.101C192.339 131.416 192.555 130.858 192.986 130.43C193.448 129.973 193.994 129.744 194.627 129.744C195.288 129.744 195.834 129.958 196.267 130.387ZM4.49432 151.848C4.92581 152.276 5.14156 152.848 5.14156 153.562C5.14156 154.277 4.92581 154.847 4.49432 155.277C4.06281 155.706 3.51626 155.919 2.85462 155.919C2.22176 155.919 1.6752 155.706 1.21493 155.277C0.783436 154.82 0.567688 154.248 0.567688 153.562C0.567688 152.877 0.783436 152.319 1.21493 151.891C1.6752 151.434 2.22176 151.205 2.85462 151.205C3.51626 151.205 4.06281 151.419 4.49432 151.848ZM17.2791 151.848C17.7106 152.276 17.9263 152.848 17.9263 153.562C17.9263 154.277 17.7106 154.847 17.2791 155.277C16.8476 155.706 16.301 155.919 15.6394 155.919C15.0065 155.919 14.46 155.706 13.9998 155.277C13.5683 154.82 13.3525 154.248 13.3525 153.562C13.3525 152.877 13.5683 152.319 13.9998 151.891C14.46 151.434 15.0065 151.205 15.6394 151.205C16.301 151.205 16.8476 151.419 17.2791 151.848ZM30.0639 151.848C30.4954 152.276 30.7111 152.848 30.7111 153.562C30.7111 154.277 30.4954 154.847 30.0639 155.277C29.6324 155.706 29.0859 155.919 28.4242 155.919C27.7913 155.919 27.2448 155.706 26.7846 155.277C26.3531 154.82 26.1373 154.248 26.1373 153.562C26.1373 152.877 26.3531 152.319 26.7846 151.891C27.2448 151.434 27.7913 151.205 28.4242 151.205C29.0859 151.205 29.6324 151.419 30.0639 151.848ZM42.8487 151.848C43.2802 152.276 43.4959 152.848 43.4959 153.562C43.4959 154.277 43.2802 154.847 42.8487 155.277C42.4172 155.706 41.8707 155.919 41.209 155.919C40.5761 155.919 40.0296 155.706 39.5694 155.277C39.1379 154.82 38.9221 154.248 38.9221 153.562C38.9221 152.877 39.1379 152.319 39.5694 151.891C40.0296 151.434 40.5761 151.205 41.209 151.205C41.8707 151.205 42.4172 151.419 42.8487 151.848ZM55.6335 151.848C56.065 152.276 56.2807 152.848 56.2807 153.562C56.2807 154.277 56.065 154.847 55.6335 155.277C55.202 155.706 54.6555 155.919 53.9938 155.919C53.3609 155.919 52.8144 155.706 52.3541 155.277C51.9227 154.82 51.7068 154.248 51.7068 153.562C51.7068 152.877 51.9227 152.319 52.3541 151.891C52.8144 151.434 53.3609 151.205 53.9938 151.205C54.6555 151.205 55.202 151.419 55.6335 151.848ZM68.4183 151.848C68.8498 152.276 69.0655 152.848 69.0655 153.562C69.0655 154.277 68.8498 154.847 68.4183 155.277C67.9868 155.706 67.4403 155.919 66.7786 155.919C66.1457 155.919 65.5992 155.706 65.1389 155.277C64.7074 154.82 64.4916 154.248 64.4916 153.562C64.4916 152.877 64.7074 152.319 65.1389 151.891C65.5992 151.434 66.1457 151.205 66.7786 151.205C67.4403 151.205 67.9868 151.419 68.4183 151.848ZM81.2031 151.848C81.6346 152.276 81.8504 152.848 81.8504 153.562C81.8504 154.277 81.6346 154.847 81.2031 155.277C80.7716 155.706 80.2251 155.919 79.5634 155.919C78.9305 155.919 78.3839 155.706 77.9237 155.277C77.4922 154.82 77.2764 154.248 77.2764 153.562C77.2764 152.877 77.4922 152.319 77.9237 151.891C78.3839 151.434 78.9305 151.205 79.5634 151.205C80.2251 151.205 80.7716 151.419 81.2031 151.848ZM93.9879 151.848C94.4194 152.276 94.6352 152.848 94.6352 153.562C94.6352 154.277 94.4194 154.847 93.9879 155.277C93.5564 155.706 93.0099 155.919 92.3482 155.919C91.7152 155.919 91.1687 155.706 90.7085 155.277C90.277 154.82 90.0612 154.248 90.0612 153.562C90.0612 152.877 90.277 152.319 90.7085 151.891C91.1687 151.434 91.7152 151.205 92.3482 151.205C93.0099 151.205 93.5564 151.419 93.9879 151.848ZM106.773 151.848C107.204 152.276 107.42 152.848 107.42 153.562C107.42 154.277 107.204 154.847 106.773 155.277C106.341 155.706 105.795 155.919 105.133 155.919C104.5 155.919 103.954 155.706 103.493 155.277C103.062 154.82 102.846 154.248 102.846 153.562C102.846 152.877 103.062 152.319 103.493 151.891C103.954 151.434 104.5 151.205 105.133 151.205C105.795 151.205 106.341 151.419 106.773 151.848ZM119.557 151.848C119.989 152.276 120.205 152.848 120.205 153.562C120.205 154.277 119.989 154.847 119.557 155.277C119.126 155.706 118.579 155.919 117.918 155.919C117.285 155.919 116.738 155.706 116.278 155.277C115.847 154.82 115.631 154.248 115.631 153.562C115.631 152.877 115.847 152.319 116.278 151.891C116.738 151.434 117.285 151.205 117.918 151.205C118.579 151.205 119.126 151.419 119.557 151.848ZM132.342 151.848C132.774 152.276 132.989 152.848 132.989 153.562C132.989 154.277 132.774 154.847 132.342 155.277C131.911 155.706 131.365 155.919 130.702 155.919C130.07 155.919 129.523 155.706 129.063 155.277C128.631 154.82 128.416 154.248 128.416 153.562C128.416 152.877 128.631 152.319 129.063 151.891C129.523 151.434 130.07 151.205 130.702 151.205C131.365 151.205 131.911 151.419 132.342 151.848ZM145.127 151.848C145.559 152.276 145.775 152.848 145.775 153.562C145.775 154.277 145.559 154.847 145.127 155.277C144.696 155.706 144.149 155.919 143.487 155.919C142.854 155.919 142.308 155.706 141.848 155.277C141.417 154.82 141.201 154.248 141.201 153.562C141.201 152.877 141.417 152.319 141.848 151.891C142.308 151.434 142.854 151.205 143.487 151.205C144.149 151.205 144.696 151.419 145.127 151.848ZM157.911 151.848C158.343 152.276 158.56 152.848 158.56 153.562C158.56 154.277 158.343 154.847 157.911 155.277C157.48 155.706 156.934 155.919 156.272 155.919C155.639 155.919 155.092 155.706 154.632 155.277C154.201 154.82 153.985 154.248 153.985 153.562C153.985 152.877 154.201 152.319 154.632 151.891C155.092 151.434 155.639 151.205 156.272 151.205C156.934 151.205 157.48 151.419 157.911 151.848ZM170.697 151.848C171.128 152.276 171.344 152.848 171.344 153.562C171.344 154.277 171.128 154.847 170.697 155.277C170.265 155.706 169.719 155.919 169.056 155.919C168.423 155.919 167.877 155.706 167.417 155.277C166.986 154.82 166.77 154.248 166.77 153.562C166.77 152.877 166.986 152.319 167.417 151.891C167.877 151.434 168.423 151.205 169.056 151.205C169.719 151.205 170.265 151.419 170.697 151.848ZM183.482 151.848C183.913 152.276 184.129 152.848 184.129 153.562C184.129 154.277 183.913 154.847 183.482 155.277C183.05 155.706 182.503 155.919 181.841 155.919C181.209 155.919 180.663 155.706 180.202 155.277C179.771 154.82 179.555 154.248 179.555 153.562C179.555 152.877 179.771 152.319 180.202 151.891C180.663 151.434 181.209 151.205 181.841 151.205C182.503 151.205 183.05 151.419 183.482 151.848ZM196.267 151.848C196.697 152.276 196.914 152.848 196.914 153.562C196.914 154.277 196.697 154.847 196.267 155.277C195.834 155.706 195.288 155.919 194.627 155.919C193.994 155.919 193.448 155.706 192.986 155.277C192.555 154.82 192.339 154.248 192.339 153.562C192.339 152.877 192.555 152.319 192.986 151.891C193.448 151.434 193.994 151.205 194.627 151.205C195.288 151.205 195.834 151.419 196.267 151.848ZM4.49432 173.309C4.92581 173.737 5.14156 174.309 5.14156 175.023C5.14156 175.738 4.92581 176.308 4.49432 176.738C4.06281 177.167 3.51626 177.38 2.85462 177.38C2.22176 177.38 1.6752 177.167 1.21493 176.738C0.783436 176.281 0.567688 175.709 0.567688 175.023C0.567688 174.338 0.783436 173.78 1.21493 173.352C1.6752 172.895 2.22176 172.666 2.85462 172.666C3.51626 172.666 4.06281 172.88 4.49432 173.309ZM17.2791 173.309C17.7106 173.737 17.9263 174.309 17.9263 175.023C17.9263 175.738 17.7106 176.308 17.2791 176.738C16.8476 177.167 16.301 177.38 15.6394 177.38C15.0065 177.38 14.46 177.167 13.9998 176.738C13.5683 176.281 13.3525 175.709 13.3525 175.023C13.3525 174.338 13.5683 173.78 13.9998 173.352C14.46 172.895 15.0065 172.666 15.6394 172.666C16.301 172.666 16.8476 172.88 17.2791 173.309ZM30.0639 173.309C30.4954 173.737 30.7111 174.309 30.7111 175.023C30.7111 175.738 30.4954 176.308 30.0639 176.738C29.6324 177.167 29.0859 177.38 28.4242 177.38C27.7913 177.38 27.2448 177.167 26.7846 176.738C26.3531 176.281 26.1373 175.709 26.1373 175.023C26.1373 174.338 26.3531 173.78 26.7846 173.352C27.2448 172.895 27.7913 172.666 28.4242 172.666C29.0859 172.666 29.6324 172.88 30.0639 173.309ZM42.8487 173.309C43.2802 173.737 43.4959 174.309 43.4959 175.023C43.4959 175.738 43.2802 176.308 42.8487 176.738C42.4172 177.167 41.8707 177.38 41.209 177.38C40.5761 177.38 40.0296 177.167 39.5694 176.738C39.1379 176.281 38.9221 175.709 38.9221 175.023C38.9221 174.338 39.1379 173.78 39.5694 173.352C40.0296 172.895 40.5761 172.666 41.209 172.666C41.8707 172.666 42.4172 172.88 42.8487 173.309ZM55.6335 173.309C56.065 173.737 56.2807 174.309 56.2807 175.023C56.2807 175.738 56.065 176.308 55.6335 176.738C55.202 177.167 54.6555 177.38 53.9938 177.38C53.3609 177.38 52.8144 177.167 52.3541 176.738C51.9227 176.281 51.7068 175.709 51.7068 175.023C51.7068 174.338 51.9227 173.78 52.3541 173.352C52.8144 172.895 53.3609 172.666 53.9938 172.666C54.6555 172.666 55.202 172.88 55.6335 173.309ZM68.4183 173.309C68.8498 173.737 69.0655 174.309 69.0655 175.023C69.0655 175.738 68.8498 176.308 68.4183 176.738C67.9868 177.167 67.4403 177.38 66.7786 177.38C66.1457 177.38 65.5992 177.167 65.1389 176.738C64.7074 176.281 64.4916 175.709 64.4916 175.023C64.4916 174.338 64.7074 173.78 65.1389 173.352C65.5992 172.895 66.1457 172.666 66.7786 172.666C67.4403 172.666 67.9868 172.88 68.4183 173.309ZM81.2031 173.309C81.6346 173.737 81.8504 174.309 81.8504 175.023C81.8504 175.738 81.6346 176.308 81.2031 176.738C80.7716 177.167 80.2251 177.38 79.5634 177.38C78.9305 177.38 78.3839 177.167 77.9237 176.738C77.4922 176.281 77.2764 175.709 77.2764 175.023C77.2764 174.338 77.4922 173.78 77.9237 173.352C78.3839 172.895 78.9305 172.666 79.5634 172.666C80.2251 172.666 80.7716 172.88 81.2031 173.309ZM93.9879 173.309C94.4194 173.737 94.6352 174.309 94.6352 175.023C94.6352 175.738 94.4194 176.308 93.9879 176.738C93.5564 177.167 93.0099 177.38 92.3482 177.38C91.7152 177.38 91.1687 177.167 90.7085 176.738C90.277 176.281 90.0612 175.709 90.0612 175.023C90.0612 174.338 90.277 173.78 90.7085 173.352C91.1687 172.895 91.7152 172.666 92.3482 172.666C93.0099 172.666 93.5564 172.88 93.9879 173.309ZM106.773 173.309C107.204 173.737 107.42 174.309 107.42 175.023C107.42 175.738 107.204 176.308 106.773 176.738C106.341 177.167 105.795 177.38 105.133 177.38C104.5 177.38 103.954 177.167 103.493 176.738C103.062 176.281 102.846 175.709 102.846 175.023C102.846 174.338 103.062 173.78 103.493 173.352C103.954 172.895 104.5 172.666 105.133 172.666C105.795 172.666 106.341 172.88 106.773 173.309ZM119.557 173.309C119.989 173.737 120.205 174.309 120.205 175.023C120.205 175.738 119.989 176.308 119.557 176.738C119.126 177.167 118.579 177.38 117.918 177.38C117.285 177.38 116.738 177.167 116.278 176.738C115.847 176.281 115.631 175.709 115.631 175.023C115.631 174.338 115.847 173.78 116.278 173.352C116.738 172.895 117.285 172.666 117.918 172.666C118.579 172.666 119.126 172.88 119.557 173.309ZM132.342 173.309C132.774 173.737 132.989 174.309 132.989 175.023C132.989 175.738 132.774 176.308 132.342 176.738C131.911 177.167 131.365 177.38 130.702 177.38C130.07 177.38 129.523 177.167 129.063 176.738C128.631 176.281 128.416 175.709 128.416 175.023C128.416 174.338 128.631 173.78 129.063 173.352C129.523 172.895 130.07 172.666 130.702 172.666C131.365 172.666 131.911 172.88 132.342 173.309ZM145.127 173.309C145.559 173.737 145.775 174.309 145.775 175.023C145.775 175.738 145.559 176.308 145.127 176.738C144.696 177.167 144.149 177.38 143.487 177.38C142.854 177.38 142.308 177.167 141.848 176.738C141.417 176.281 141.201 175.709 141.201 175.023C141.201 174.338 141.417 173.78 141.848 173.352C142.308 172.895 142.854 172.666 143.487 172.666C144.149 172.666 144.696 172.88 145.127 173.309ZM157.911 173.309C158.343 173.737 158.56 174.309 158.56 175.023C158.56 175.738 158.343 176.308 157.911 176.738C157.48 177.167 156.934 177.38 156.272 177.38C155.639 177.38 155.092 177.167 154.632 176.738C154.201 176.281 153.985 175.709 153.985 175.023C153.985 174.338 154.201 173.78 154.632 173.352C155.092 172.895 155.639 172.666 156.272 172.666C156.934 172.666 157.48 172.88 157.911 173.309ZM170.697 173.309C171.128 173.737 171.344 174.309 171.344 175.023C171.344 175.738 171.128 176.308 170.697 176.738C170.265 177.167 169.719 177.38 169.056 177.38C168.423 177.38 167.877 177.167 167.417 176.738C166.986 176.281 166.77 175.709 166.77 175.023C166.77 174.338 166.986 173.78 167.417 173.352C167.877 172.895 168.423 172.666 169.056 172.666C169.719 172.666 170.265 172.88 170.697 173.309ZM183.482 173.309C183.913 173.737 184.129 174.309 184.129 175.023C184.129 175.738 183.913 176.308 183.482 176.738C183.05 177.167 182.503 177.38 181.841 177.38C181.209 177.38 180.663 177.167 180.202 176.738C179.771 176.281 179.555 175.709 179.555 175.023C179.555 174.338 179.771 173.78 180.202 173.352C180.663 172.895 181.209 172.666 181.841 172.666C182.503 172.666 183.05 172.88 183.482 173.309ZM196.267 173.309C196.697 173.737 196.914 174.309 196.914 175.023C196.914 175.738 196.697 176.308 196.267 176.738C195.834 177.167 195.288 177.38 194.627 177.38C193.994 177.38 193.448 177.167 192.986 176.738C192.555 176.281 192.339 175.709 192.339 175.023C192.339 174.338 192.555 173.78 192.986 173.352C193.448 172.895 193.994 172.666 194.627 172.666C195.288 172.666 195.834 172.88 196.267 173.309Z" fill="#A0AEC0"/>
</svg>
