<svg width="100" height="50" viewBox="0 0 100 50" fill="none" xmlns="http://www.w3.org/2000/svg">
<g id="avalance-logo-lg" clip-path="url(#clip0)">
<path id="Combined Shape" fill-rule="evenodd" clip-rule="evenodd" d="M40.5203 -7.11926e-05H33.6872C32.1094 -7.24649e-05 31.3204 -7.24793e-05 30.8477 0.306036C30.3367 0.636844 30.0143 1.19184 29.9797 1.79986C29.9477 2.36247 30.3379 3.04864 31.1183 4.42099L45.6468 29.9697L45.6473 29.9705L45.6473 29.9705C46.4571 31.3944 46.862 32.1065 47.3736 32.3659C47.9264 32.6462 48.5809 32.6402 49.1285 32.3497C49.6354 32.0809 50.0272 31.3614 50.811 29.9223L54.2911 23.5323C54.8405 22.5238 55.1151 22.0195 55.2316 21.4906C55.3585 20.9149 55.3504 20.3175 55.208 19.7455C55.0771 19.22 54.7889 18.7233 54.2124 17.73L45.6323 2.94486L45.6318 2.94389L45.6317 2.94377C45.0431 1.9296 44.7488 1.42238 44.3481 1.04326C43.9118 0.63047 43.3843 0.326592 42.8085 0.156345C42.2795 -7.11978e-05 41.6931 -7.11926e-05 40.5203 -7.11926e-05ZM11.622 33.6207H4.96128C3.38199 33.6207 2.59235 33.6207 2.11944 33.3144C1.60836 32.9833 1.28597 32.4278 1.25177 31.8196C1.22013 31.2567 1.61123 30.5704 2.39344 29.1978L2.39373 29.1973L16.9772 3.60715C17.7708 2.2143 18.1677 1.51787 18.6727 1.25864C19.2182 0.978536 19.8652 0.978052 20.4111 1.25737C20.9164 1.51585 21.3143 2.2117 22.11 3.6034L25.4735 9.48543L25.4736 9.48553C26.0522 10.4975 26.3415 11.0034 26.4688 11.5373C26.6072 12.1184 26.6075 12.7239 26.4696 13.3051C26.3428 13.839 26.0538 14.3454 25.476 15.3579L16.7553 30.6387C16.1691 31.666 15.876 32.1796 15.4744 32.5636C15.0372 32.9815 14.507 33.2896 13.9276 33.4622C13.3952 33.6207 12.8041 33.6207 11.622 33.6207ZM72.7892 42.1374C73.1028 42.2561 73.4248 42.4936 73.7553 42.8499L75.0012 41.9338C74.5521 41.4164 74.0648 41.0518 73.5392 40.8397C73.0223 40.6192 72.4586 40.5089 71.8484 40.5089C71.1535 40.5089 70.5135 40.6234 69.9287 40.8524C69.3525 41.0729 68.8525 41.391 68.4286 41.8066C68.0134 42.2223 67.6871 42.7268 67.4497 43.3206C67.2125 43.9058 67.0937 44.5589 67.0937 45.2799C67.0937 45.9838 67.2125 46.6243 67.4497 47.201C67.6871 47.7777 68.0134 48.2739 68.4286 48.6896C68.8525 49.0967 69.3525 49.4147 69.9287 49.6438C70.5135 49.8642 71.1535 49.9745 71.8484 49.9745C72.5095 49.9745 73.1324 49.8473 73.7172 49.5929C74.302 49.3384 74.7978 48.9313 75.2046 48.3715L73.8825 47.43C73.5859 47.8117 73.2639 48.0916 72.9163 48.2697C72.5774 48.4393 72.2256 48.5242 71.8611 48.5242C71.3951 48.5242 70.9712 48.4393 70.5898 48.2697C70.2169 48.1001 69.8949 47.8668 69.6236 47.57C69.3525 47.2731 69.1405 46.9211 68.988 46.514C68.8439 46.1069 68.7719 45.6616 68.7719 45.1781C68.7719 44.7286 68.8439 44.3088 68.988 43.9186C69.1405 43.5284 69.3525 43.1892 69.6236 42.9007C69.8949 42.6039 70.2169 42.3749 70.5898 42.2137C70.9712 42.0441 71.3951 41.9593 71.8611 41.9593C72.1747 41.9593 72.484 42.0187 72.7892 42.1374ZM5.38152 40.7379H3.9958L0.0802002 49.7455H1.87273L2.68637 47.6845H6.58925L7.4283 49.7455H9.25897L5.38152 40.7379ZM4.64416 42.6463L6.02988 46.3104H3.23302L4.64416 42.6463ZM10.9772 40.7379H12.8205L15.2741 47.5445L17.804 40.7379H19.533L15.8971 49.7455H14.5114L10.9772 40.7379ZM26.6435 40.7379H25.2578L21.3422 49.7455H23.1347L23.9483 47.6845H27.8512L28.6903 49.7455H30.5209L26.6435 40.7379ZM27.2918 46.3104L25.9061 42.6463L24.495 46.3104H27.2918ZM35.6656 40.7379H34.0638V49.7455H39.4922V48.2952H35.6656V40.7379ZM46.11 40.7379H47.4957L51.3731 49.7455H49.5425L48.7034 47.6845H44.8005L43.9869 49.7455H42.1944L46.11 40.7379ZM46.7583 42.6463L48.144 46.3104H45.3472L46.7583 42.6463ZM54.916 40.7379H57.0391L61.3996 47.43H61.425V40.7379H63.0269V49.7455H60.9928L56.5432 42.8371H56.5178V49.7455H54.916V40.7379ZM78.8223 40.7379H80.4242V44.3257H84.6322V40.7379H86.234V49.7455H84.6322V45.7761H80.4242V49.7455H78.8223V40.7379ZM96.7503 40.7379H90.7879V49.7455H96.9791V48.2952H92.3898V45.8524H96.5215V44.402H92.3898V42.1883H96.7503V40.7379ZM27.6617 33.6208H35.384C36.98 33.6208 37.778 33.6208 38.2524 33.3114C38.7653 32.9771 39.0865 32.4169 39.1163 31.8051C39.1438 31.239 38.7413 30.5495 37.9362 29.1705L34.0686 22.5463C33.2748 21.1866 32.8779 20.5069 32.3761 20.2527C31.8339 19.9781 31.1933 19.9785 30.6515 20.2539C30.1502 20.5088 29.7542 21.1892 28.9623 22.5499L25.1075 29.1742C24.3054 30.5523 23.9045 31.2415 23.9326 31.8071C23.9628 32.4183 24.2843 32.978 24.7969 33.3118C25.2712 33.6208 26.0681 33.6208 27.6617 33.6208ZM68.8303 33.6207H62.1696C60.5904 33.6207 59.8007 33.6207 59.3278 33.3144C58.8167 32.9833 58.4943 32.4278 58.4601 31.8196C58.4286 31.2567 58.8197 30.5704 59.6019 29.1977L59.6021 29.1973L74.1855 3.60715C74.9792 2.2143 75.3761 1.51787 75.8811 1.25864C76.4266 0.978536 77.0736 0.978052 77.6194 1.25737C78.1248 1.51585 78.5227 2.2117 79.3184 3.6034L82.6819 9.48543L82.682 9.48563L82.6821 9.48581L82.6822 9.48599L82.6823 9.4862C83.2607 10.4977 83.55 11.0036 83.6772 11.5373C83.8156 12.1184 83.8159 12.7239 83.6779 13.3051C83.5512 13.839 83.2622 14.3454 82.6844 15.3579L73.9637 30.6387C73.3775 31.666 73.0844 32.1796 72.6827 32.5636C72.2455 32.9815 71.7154 33.2896 71.136 33.4622C70.6035 33.6207 70.0125 33.6207 68.8303 33.6207ZM84.87 33.6208H92.5924C94.1884 33.6208 94.9863 33.6208 95.4608 33.3114C95.9737 32.9771 96.2949 32.4169 96.3247 31.8051C96.3521 31.239 95.9497 30.5495 95.1445 29.1705L91.277 22.5463L91.2769 22.5461C90.483 21.1865 90.0861 20.5068 89.5845 20.2527C89.0423 19.9781 88.4017 19.9785 87.8599 20.2539C87.3586 20.5087 86.9628 21.1888 86.1714 22.5487L86.1707 22.5499L82.3159 29.1742C81.5138 30.5523 81.1128 31.2415 81.1409 31.8071C81.1712 32.4183 81.4927 32.978 82.0053 33.3118C82.4795 33.6208 83.2763 33.6208 84.87 33.6208ZM56.3873 -3.55692e-05H64.1207C65.7151 -3.55692e-05 66.5123 -3.42877e-05 66.9867 0.309062C67.4993 0.643078 67.8207 1.20292 67.8508 1.81436C67.8788 2.38008 67.4773 3.06918 66.6745 4.44717L66.6741 4.44787L62.8011 11.0958C62.007 12.4588 61.61 13.1402 61.108 13.3948C60.5654 13.6698 59.9241 13.6695 59.3819 13.3935C58.8803 13.1383 58.4843 12.4565 57.6925 11.0931L57.692 11.0921L53.8317 4.44422C53.0317 3.06659 52.6317 2.37777 52.6602 1.81239C52.691 1.20142 53.0125 0.642238 53.5249 0.308654C53.999 -3.55692e-05 54.7951 -3.55692e-05 56.3873 -3.55692e-05Z" fill="black"/>
</g>
<defs>
<clipPath id="clip0">
<rect width="100" height="50" fill="white"/>
</clipPath>
</defs>
</svg>
