<?xml version="1.0" encoding="UTF-8"?>
<svg width="146px" height="33px" viewBox="0 0 146 33" version="1.1" xmlns="http://www.w3.org/2000/svg" xmlns:xlink="http://www.w3.org/1999/xlink">
    <title>0AF1412C-BEDE-43EB-9BC1-32F9E3D54558</title>
    <g id="Hubble" stroke="none" stroke-width="1" fill="none" fill-rule="evenodd">
        <g id="Hubble---Landing" transform="translate(-647.000000, -77.000000)" fill="#000000" fill-rule="nonzero">
            <g id="Hubble-/-Header" transform="translate(0.000000, 24.000000)">
                <g id="hubble-logo" transform="translate(647.000000, 53.000000)">
                    <path d="M27.5724294,2.24489796 L20.1716464,2.24489796 L20.1716464,13.9632653 L7.44590975,13.9632653 L7.44590975,2.24489796 L0,2.24489796 L0,32.3265306 L7.44590975,32.3265306 L7.44590975,20.4285714 L20.1716464,20.4285714 L20.1716464,32.3265306 L27.5724294,32.3265306 L27.5724294,2.24489796 Z M54.0016485,9.7877551 L46.7813723,9.7877551 L46.7813723,20.2489796 C46.7813723,24.6040816 44.9311766,26.5346939 42.0881929,26.5346939 C39.7867299,26.5346939 38.2072945,24.7387755 38.2072945,22.0897959 L38.2072945,9.7877551 L31.0321451,9.7877551 L31.0321451,23.6163265 C31.0321451,29.2734694 34.5520297,33 39.8318566,33 C42.6748403,33 45.0665568,31.9673469 46.7813723,30.1714286 L46.7813723,32.3265306 L54.0016485,32.3265306 L54.0016485,9.7877551 Z M71.9921698,9.11428571 C69.0589326,9.11428571 66.7123429,10.0122449 64.9524006,11.5836735 L64.9524006,0 L57.7321245,0 L57.7321245,32.3265306 L64.9524006,32.3265306 L64.9524006,30.5306122 C66.7123429,32.1020408 69.0589326,33 71.9921698,33 C77.9940243,33 83.0482176,28.1959184 83.0482176,21.0571429 C83.0482176,13.9632653 77.9940243,9.11428571 71.9921698,9.11428571 Z M70.5029878,26.8938776 C67.5697507,26.8938776 64.9524006,24.5591837 64.9524006,21.0571429 C64.9524006,17.6 67.5697507,15.2204082 70.5029878,15.2204082 C73.6618586,15.2204082 75.9633217,17.6 75.9633217,21.0571429 C75.9633217,24.5591837 73.6618586,26.8938776 70.5029878,26.8938776 Z M99.549557,9.11428571 C96.6163198,9.11428571 94.2697301,10.0122449 92.5097878,11.5836735 L92.5097878,0 L85.2895116,0 L85.2895116,32.3265306 L92.5097878,32.3265306 L92.5097878,30.5306122 C94.2697301,32.1020408 96.6163198,33 99.549557,33 C105.551411,33 110.605605,28.1959184 110.605605,21.0571429 C110.605605,13.9632653 105.551411,9.11428571 99.549557,9.11428571 Z M98.060375,26.8938776 C95.1271379,26.8938776 92.5097878,24.5591837 92.5097878,21.0571429 C92.5097878,17.6 95.1271379,15.2204082 98.060375,15.2204082 C101.219246,15.2204082 103.520709,17.6 103.520709,21.0571429 C103.520709,24.5591837 101.219246,26.8938776 98.060375,26.8938776 Z M120.067175,32.3265306 L120.067175,0 L112.846899,0 L112.846899,32.3265306 L120.067175,32.3265306 Z M146,21.0571429 C145.86462,13.6938776 140.720173,9.11428571 134.312178,9.11428571 C127.723676,9.11428571 122.308469,13.9632653 122.308469,21.0571429 C122.308469,28.1959184 127.723676,33 134.267051,33 C139.456625,33 143.563157,30.7102041 145.503606,25.9510204 L139.095611,24.6489796 C137.877189,26.8489796 135.93674,27.2530612 134.267051,27.2530612 C131.830208,27.2530612 129.980012,25.5918367 129.393365,22.8979592 L146,22.8979592 L146,21.0571429 Z M134.312178,14.9510204 C136.388007,14.9510204 138.193076,16.0734694 138.869977,18.4979592 L129.528745,18.4979592 C130.205646,16.2081633 132.281475,14.9510204 134.312178,14.9510204 Z" id="Hubble"></path>
                </g>
            </g>
        </g>
    </g>
</svg>