<?xml version="1.0" encoding="UTF-8"?>
<svg width="127px" height="40px" viewBox="0 0 127 40" version="1.1" xmlns="http://www.w3.org/2000/svg" xmlns:xlink="http://www.w3.org/1999/xlink">
    <title>30F552C6-F780-408A-BA29-1190EF53C0B4</title>
    <defs>
        <linearGradient x1="100%" y1="50%" x2="0%" y2="50%" id="linearGradient-1">
            <stop stop-color="#DD385D" offset="0%"></stop>
            <stop stop-color="#0698DA" offset="100%"></stop>
        </linearGradient>
        <linearGradient x1="87.7773438%" y1="23.6328125%" x2="13.9140625%" y2="80.9414062%" id="linearGradient-2">
            <stop stop-color="#DD385D" offset="0%"></stop>
            <stop stop-color="#0698DA" offset="100%"></stop>
        </linearGradient>
        <path d="M20.1224064,7.81597009e-14 C20.2227951,0.22864752 20.3263097,0.456005304 20.4228191,0.686307049 C20.5671088,1.03058208 20.702356,1.37869828 20.8492133,1.72182377 C20.9535372,1.96563969 21.0754997,2.20180131 21.1810516,2.44508452 C21.395365,2.93910896 21.6010825,3.43694652 21.815675,3.93085881 C22.008638,4.37500416 22.2110622,4.81505601 22.4051137,5.25875276 C22.6502108,5.81908638 22.8902842,6.38169106 23.1340138,6.94264151 C23.3131897,7.35502014 23.4927006,7.76728661 23.6767327,8.17745026 C23.7254061,8.28598424 23.7969369,8.35857387 23.9394683,8.35994771 C24.1493721,8.36196643 24.3593038,8.39320044 24.5686773,8.41678015 C24.863927,8.45003287 25.15873,8.48732303 25.4536726,8.52357579 C25.7258694,8.55702477 25.9980382,8.59055787 26.2700396,8.62566108 C26.5780994,8.66544659 26.8855453,8.71005459 27.193968,8.74667184 C27.394299,8.77047585 27.5959417,8.78241992 27.796803,8.80199024 C28.0794377,8.82949523 28.361905,8.858318 28.6442885,8.88829031 C28.8218178,8.90715969 28.9990123,8.9292534 29.1763741,8.94966485 C29.4853271,8.98527274 29.7941126,9.02217037 30.1032609,9.05570347 C30.3266726,9.07992805 30.5510612,9.0952086 30.7740823,9.12232107 C31.1004225,9.16202246 31.4255906,9.21122864 31.7518471,9.25165902 C32.0153084,9.28432295 32.2798022,9.30885595 32.5435704,9.33905256 C32.8525234,9.37446419 33.1611135,9.41324034 33.4701223,9.44837159 C33.7386071,9.47887662 34.0074827,9.50624142 34.2761629,9.53528849 C34.6129132,9.57168143 34.949524,9.60972861 35.2864697,9.64432714 C35.4237542,9.65843011 35.56249,9.65929928 35.6992722,9.67657051 C36.0344596,9.71890745 36.3689493,9.76659959 36.7035506,9.81353472 C36.8929971,9.84008643 37.0824436,9.86736712 37.2711644,9.89840486 C37.3424441,9.91012462 37.3649946,9.95391953 37.31914,10.0170885 C37.2143696,10.1615107 37.1094874,10.3058769 37.0022888,10.4484767 C36.6586171,10.9057437 36.3119032,11.3607396 35.970213,11.8194926 C35.7653328,12.0945706 35.5716163,12.3780879 35.3656755,12.6523528 C35.1400869,12.9528049 34.9011019,13.2431354 34.6774389,13.5449613 C34.468791,13.8264879 34.2761908,14.1199306 34.0700826,14.4033918 C33.6935899,14.9212203 33.3099244,15.4337777 32.934241,15.9521669 C32.7790668,16.1662909 32.6439034,16.3951907 32.4867198,16.6076885 C32.3094695,16.8472707 32.1115108,17.0714322 31.9364654,17.3125005 C31.8927319,17.3727255 31.8762656,17.4781753 31.8933738,17.5520546 C31.9217015,17.674271 31.9866737,17.7881041 32.0375798,17.9048531 L32.0375798,17.9048531 L32.7659496,19.5723959 C32.921989,19.9279701 33.0814332,20.2820584 33.2381982,20.6373242 C33.4409852,21.0968622 33.6419023,21.5571853 33.8452754,22.016415 C33.8815572,22.0983692 33.932826,22.174043 33.9651726,22.2572869 C34.0705571,22.5284396 34.1610382,22.8057606 34.2746558,23.0732404 C34.4226574,23.4216369 34.5925955,23.7605287 34.7435833,24.1076916 L34.7435833,24.1076916 L35.3971569,25.6432889 C35.6087911,26.1278647 35.8332634,26.6067488 36.0474652,27.090231 C36.2392281,27.5230772 36.423344,27.9593159 36.6133207,28.3929751 C36.8365371,28.9025885 37.0607304,29.4117814 37.2885517,29.91932 C37.3337086,30.0198913 37.3080881,30.0626207 37.2043781,30.055415 C36.9708633,30.0391532 36.7372926,30.0218819 36.5045592,29.9971527 L36.5045592,29.9971527 L35.5920736,29.8891234 C35.3684385,29.865011 35.1433801,29.8541604 34.9198567,29.829375 C34.6291842,29.7970756 34.3398234,29.7530564 34.0491509,29.7209532 C33.671151,29.6792611 33.2918952,29.6485879 32.9140907,29.6052977 C32.5602321,29.5647832 32.2079644,29.5105302 31.8542454,29.4688381 C31.5675917,29.4350527 31.279738,29.4119496 30.9925541,29.3823137 C30.55081,29.3367525 30.1092334,29.2897052 29.6676009,29.2433308 C29.6446876,29.2409196 29.6216348,29.2396579 29.5988331,29.2366298 C29.3362929,29.2016107 29.0739759,29.1647692 28.8112124,29.1317688 C28.6570429,29.1123947 28.4953659,29.1214229 28.349318,29.0769831 C28.1838733,29.0266834 28.0666833,29.0751326 27.9749463,29.1945172 C27.6963305,29.557213 27.4237151,29.9246472 27.1530254,30.2933711 L27.1530254,30.2933711 L26.3234575,31.4377021 C26.0623964,31.7911735 25.7902834,32.1364579 25.5304504,32.4907985 C25.3577214,32.7263433 25.2048078,32.9765518 25.0310183,33.2111994 C24.7067991,33.6489522 24.3711372,34.0781815 24.0454668,34.5148688 C23.8214689,34.8151246 23.6082161,35.1234273 23.3866184,35.4255055 C23.0403511,35.8975765 22.6903439,36.3668716 22.3434347,36.8384379 C22.1944563,37.0409542 22.0520087,37.2483211 21.9018581,37.4498842 C21.6694317,37.7619159 21.4317584,38.0699942 21.1984948,38.3814091 C20.979074,38.674291 20.7598486,38.9673972 20.5456189,39.2640922 C20.3960265,39.4712348 20.2575419,39.6865084 20.1081728,39.8938192 C20.0739842,39.941287 20.0116633,40.0045121 19.9690184,40 C19.9234987,39.9946708 19.8706669,39.9244083 19.847335,39.8709965 C19.6519718,39.4236549 19.4654558,38.972444 19.2703437,38.5249902 C19.1701224,38.2951651 19.0520951,38.0731625 18.9522366,37.8431692 C18.7801496,37.446744 18.6166306,37.0466179 18.4478647,36.6487067 C18.4178067,36.5778554 18.3757478,36.512107 18.34622,36.4410594 C18.2358956,36.1757666 18.1344184,35.9066887 18.018875,35.6437791 C17.7656285,35.0675761 17.5014416,34.4961957 17.2501767,33.9191235 C17.0682656,33.5013897 16.9016208,33.077039 16.7250683,32.6569219 C16.600008,32.3594418 16.4782967,32.0599711 16.3374677,31.7700051 C16.2849429,31.6618636 16.2710721,31.5023291 16.0980083,31.4871607 C15.7920974,31.4603286 15.4864656,31.4304965 15.1806943,31.4022905 C14.9658785,31.3824679 14.7444204,31.389982 14.5375029,31.3384767 C14.012562,31.2077929 13.4736386,31.2213632 12.9433392,31.1512409 C12.6030444,31.1062403 12.2609914,31.0748661 11.919971,31.0356134 C11.5291608,30.9906409 11.1384345,30.9447992 10.7479313,30.8973314 C10.2904745,30.8417326 9.83357576,30.7815917 9.37589561,30.7278715 C9.03029812,30.6873289 8.6840029,30.652422 8.3377635,30.6177113 C8.11851017,30.5957017 7.89805676,30.5844025 7.67938953,30.5580471 C7.33931802,30.5169998 7.00092106,30.4618497 6.66065419,30.4225688 C6.28307295,30.3789422 5.90390089,30.3492222 5.52598475,30.3083432 C5.12133175,30.2645763 4.71740439,30.2139122 4.31297466,30.1679584 C3.81306815,30.111154 3.31285465,30.0572095 2.81322723,29.998162 C2.77535468,29.993676 2.72316479,29.966143 2.71021501,29.9354417 C2.69743267,29.9051049 2.71666199,29.8510201 2.73817985,29.818216 C2.78827656,29.7418974 2.8502346,29.6736255 2.90379202,29.5994658 C3.12879461,29.2881631 3.35125747,28.9750099 3.57692987,28.6642119 C3.79721583,28.360872 4.02046014,28.0596909 4.24208573,27.7573603 C4.48818754,27.4217208 4.73144263,27.0839506 4.98039116,26.750442 C5.30081471,26.3212408 5.62813179,25.8972545 5.9475227,25.4672962 C6.10805543,25.2511816 6.25365683,25.0239359 6.41301738,24.8069241 C6.6378246,24.5008364 6.87011144,24.2003002 7.09734675,23.8960069 C7.4026436,23.487133 7.70701946,23.0775862 8.00980451,22.6668898 C8.08560543,22.5641036 8.1655927,22.4645697 8.09526195,22.3173998 C7.85574667,21.8163659 7.62493901,21.3120236 7.42245901,20.7934381 C7.23147754,20.3043483 6.99813015,19.831941 6.78317482,19.3522999 C6.64385295,19.0413617 6.50165645,18.7316852 6.36509758,18.4195133 C6.12209367,17.8641424 5.88112713,17.3078742 5.64203048,16.750793 C5.54320462,16.5205473 5.45431436,16.2859838 5.35576758,16.055598 C5.22861405,15.7582581 5.09607408,15.4633014 4.96632501,15.167083 C4.76479392,14.7069 4.56454664,14.2461844 4.36209455,13.7864221 C4.21152535,13.4444181 4.05576506,13.1047132 3.90695412,12.7619522 C3.69610142,12.276255 3.49130497,11.7879222 3.28050808,11.3021689 C3.10454166,10.8966875 2.92173753,10.4941781 2.74800383,10.0877435 C2.72916524,10.0436682 2.73541686,9.97318143 2.7593628,9.93235853 C2.7726475,9.90976013 2.84685761,9.92131167 2.89360523,9.92100326 C2.95388873,9.92058269 3.01445132,9.92069484 3.07439991,9.92590985 C3.28899243,9.94452689 3.50411522,9.95958314 3.7176751,9.9866115 C4.11582529,10.0370513 4.51274749,10.0971642 4.91081395,10.1484732 C5.04751237,10.1660809 5.18658306,10.1645108 5.32358848,10.180296 C5.61417727,10.213773 5.90376135,10.2559137 6.19437806,10.2890543 C6.55393006,10.3300174 6.91451471,10.3616719 7.27387135,10.4041771 C7.70941964,10.4557384 8.14376784,10.5173373 8.57926031,10.569151 C8.93392824,10.6114038 9.28948926,10.6461425 9.64471537,10.6834046 C10.091204,10.7302276 10.5379438,10.7747515 10.9842371,10.8232287 C11.2021508,10.8468645 11.4214599,10.8660703 11.6361641,10.9080428 C11.8101489,10.9420525 11.9541316,10.9199588 12.0618326,10.773602 C12.2486277,10.5197205 12.4308457,10.2625026 12.6154639,10.0069949 C12.8483648,9.68456125 13.078084,9.35971635 13.3158968,9.04098367 C13.5707062,8.69954045 13.8357025,8.36572348 14.0916562,8.02512139 C14.2259823,7.84635295 14.3477773,7.65816385 14.4800661,7.47779726 L14.4800661,7.47779726 L14.9585385,6.84117304 C15.0884271,6.66450743 15.2087708,6.48069221 15.3404177,6.30545653 C15.601702,5.95767678 15.87108,5.61598122 16.1310805,5.26727622 C16.3687258,4.94848747 16.598138,4.62355846 16.8316808,4.30168555 C17.0840621,3.95390581 17.3342666,3.60447184 17.5904994,3.25955194 L17.5904994,3.25955194 L18.4181137,2.16324946 C18.8199758,1.61895341 19.2169259,1.07098442 19.6144062,0.523492071 C19.7397457,0.350863894 19.8602011,0.174618854 19.9828612,7.81597009e-14 L19.9828612,7.81597009e-14 Z M34.7575322,30.9706782 C34.944746,30.9801576 35.1319598,30.9954942 35.3181967,31.0174197 C35.667227,31.0584389 36.0156712,31.1044207 36.3640317,31.1511035 C36.4103607,31.1573279 36.4864128,31.1712906 36.4930272,31.1963844 C36.5063677,31.2473289 36.4868872,31.3099651 36.4705046,31.3646106 C36.4605411,31.3979194 36.4321856,31.4261814 36.4102491,31.4553126 C36.1239582,31.8353077 35.8393699,32.2166766 35.5499533,32.5942885 C35.3936627,32.7982068 35.2376512,33.0035269 35.0657595,33.1938749 C34.8745269,33.4055596 34.66373,33.5993002 34.4645154,33.8038914 C34.225335,34.0495858 33.9999696,34.309944 33.7494302,34.5432177 C33.4146335,34.854941 33.0688686,35.1559538 32.7141169,35.444602 C32.3025983,35.7794564 31.8821767,36.104105 31.4540801,36.4173143 C31.1972892,36.605195 30.9216875,36.7681782 30.6487093,36.9325633 C30.2553316,37.1695099 29.8624841,37.4085314 29.4585288,37.6262723 C29.0579785,37.8422467 28.6488042,38.0436696 28.2345226,38.2317466 C27.8092727,38.4248143 27.3768502,38.6032743 26.9409112,38.7706314 C26.5852107,38.907147 26.2228957,39.0288867 25.8576223,39.1370001 C25.4705241,39.2515622 25.0782069,39.3500867 24.684857,39.4411812 C24.3086713,39.5283224 23.9288294,39.6000709 23.549462,39.6727727 C23.2367134,39.7326613 22.9229322,39.7876712 22.6085091,39.8378868 C22.4370918,39.8652796 22.263107,39.8949155 22.0908245,39.8919154 C21.9709832,39.8898406 21.8644544,39.8894481 21.7523438,39.9439815 C21.6462337,39.9955428 21.5731958,39.9470376 21.5740808,39.817251 C21.5886016,39.7938115 21.6153663,39.7418857 21.6502526,39.6962403 C21.6976701,39.6342209 21.7553022,39.580024 21.8015195,39.5172475 C22.0888988,39.1269346 22.3686589,38.7307337 22.6645504,38.3470657 C22.7333462,38.2578777 22.790476,38.1494279 22.9424406,38.1248388 C23.4122333,38.0488005 23.8823329,37.9639584 24.3434459,37.8471533 C24.9151065,37.7023105 25.4814644,37.5332712 26.0431894,37.3529607 C26.3875589,37.242408 26.7185879,37.0901352 27.0563988,36.9586383 C27.1996558,36.9028713 27.3513693,36.8652167 27.4880119,36.7967766 C27.7966299,36.6421767 28.0972381,36.4715112 28.4030931,36.3112476 C28.6604981,36.1763582 28.9299318,36.0621326 29.1777082,35.9115981 C29.5824449,35.6656794 29.977246,35.4026856 30.3698144,35.1373368 C30.6683294,34.9356054 30.9618207,34.725575 31.2483906,34.5071612 C31.5071352,34.309944 31.7568094,34.1002219 32.0042508,33.8886774 C32.204219,33.7177034 32.3989403,33.5400565 32.5886938,33.3577273 C32.8065237,33.1484258 33.0168462,32.9312457 33.2293455,32.7163927 C33.3728258,32.5713256 33.5251533,32.4333801 33.6547349,32.2765371 C33.9935226,31.8665697 34.321342,31.447434 34.6558596,31.0338778 C34.6801684,31.0038494 34.7243205,30.9690546 34.7575322,30.9706782 Z M3.74048515,31.2781564 C3.83543166,31.2861471 3.92917808,31.3070352 4.02398505,31.3174092 C4.14268215,31.3303906 4.26241188,31.3343439 4.38091361,31.3488955 C4.73893062,31.3930269 5.09708718,31.4367376 5.45409946,31.4884392 C5.57773646,31.5063553 5.7074018,31.5200938 5.79749214,31.6318521 C5.97331902,31.8499574 6.14975989,32.0677543 6.3327873,32.2797194 C6.43443198,32.3974498 6.54941717,32.5035725 6.65909965,32.6142093 C6.77037295,32.7263882 6.88421387,32.8360156 6.99389635,32.9497366 C7.16584388,33.1280003 7.32654406,33.3182362 7.50795274,33.4860138 C7.71994972,33.6821376 7.94590121,33.8635977 8.17137824,34.0443287 C8.54625231,34.3448089 8.91735865,34.6510367 9.30543369,34.9335166 C9.65521753,35.1881271 10.0214398,35.4208681 10.3881644,35.6507212 C10.7085042,35.8515273 11.0325002,36.0488848 11.367855,36.2224662 C11.7910675,36.4414688 12.2206433,36.6511908 12.6598198,36.8350902 C13.2454628,37.080336 13.8194678,37.3590589 14.4386296,37.5172476 C15.0275101,37.667726 15.6034687,37.8604572 16.2041826,37.9756642 C16.7369101,38.0778336 17.2639721,38.2020967 17.8061329,38.2478262 C17.8542201,38.2518637 17.9193598,38.3042661 17.9394822,38.3505003 C18.0685336,38.6472234 18.1819,38.9508437 18.3113142,39.2473986 C18.3872826,39.4214567 18.486248,39.585281 18.5682168,39.7568718 C18.5859948,39.7940218 18.5926651,39.8556767 18.5734637,39.8866023 C18.5504667,39.923584 18.4942021,39.9397618 18.487169,39.9439955 C18.3016856,39.9259112 18.156754,39.9078829 18.0112921,39.8989389 C17.9001026,39.8920977 17.7856477,39.9120886 17.6770257,39.8938921 C17.1526151,39.8059658 16.6279812,39.7178153 16.1067522,39.6129823 C15.6392759,39.5189718 15.1742557,39.4106902 14.7118589,39.2938851 C14.466427,39.2319218 14.2289769,39.1381917 13.9877592,39.0591815 C13.5830504,38.9266472 13.1750762,38.8033654 12.7746096,38.6589712 C12.5099483,38.5635308 12.2549435,38.4403892 11.9976223,38.3251823 C11.6691609,38.1780964 11.3341967,38.0425622 11.017513,37.872906 C10.5976496,37.6479875 10.1932199,37.3939939 9.78114307,37.1542995 C9.53381326,37.010438 9.27838984,36.8796701 9.03803729,36.7251263 C8.83485957,36.5944986 8.64876217,36.4372911 8.45404088,36.2933455 C8.14207376,36.0627354 7.8256133,35.8381253 7.51794417,35.6019076 C7.2997793,35.4344103 7.08923359,35.2563148 6.88214861,35.075079 C6.66163938,34.8821235 6.44498159,34.6842614 6.23457543,34.4802871 C6.08037805,34.330762 5.941112,34.1658161 5.79138007,34.0114685 C5.61641837,33.831158 5.42889761,33.6624551 5.26188999,33.4751632 C4.96786838,33.1454398 4.67878667,32.8107536 4.39969639,32.4682169 C4.12780664,32.1345962 3.86914576,31.7900128 3.61031744,31.445906 C3.58293868,31.409513 3.59357202,31.3442412 3.58656686,31.2923715 C3.63791947,31.2870443 3.6899419,31.2738946 3.74048515,31.2781564 Z M24.0042173,28.0461487 C23.9529205,28.0919343 23.8808035,28.1345235 23.8385772,28.1974121 C23.4977521,28.7050909 23.1189987,29.1803581 22.7115269,29.6369522 C22.3199632,30.0756583 21.8533522,30.4052976 21.3553156,30.6984879 C21.0701411,30.8663217 20.7899624,31.0600062 20.4817072,31.1671102 C19.952552,31.3509535 19.4260482,31.5638999 18.8554481,31.6000405 C18.653945,31.6127976 18.4533907,31.6404709 18.2518875,31.6531159 C18.1067606,31.6622281 18.0585617,31.7182755 18.1159984,31.8525481 C18.2417007,32.1464674 18.3763618,32.4365175 18.5051619,32.729119 L18.5051619,32.729119 L18.8570669,33.5399416 C18.9811783,33.8226738 19.1103413,34.1031911 19.2324154,34.3867645 C19.4108099,34.8011899 19.583176,35.2181947 19.7614031,35.6326762 C19.8603127,35.8627256 19.9663391,36.0896908 20.0683745,36.3184225 C20.1221831,36.4391248 20.1723356,36.5614814 20.2276234,36.6814828 C20.2796737,36.7944747 20.3596889,36.803559 20.4282893,36.7048382 C20.6314391,36.4126292 20.8277512,36.1154295 21.0369852,35.8277065 C21.2468053,35.5390863 21.4708869,35.2610083 21.6852003,34.9756125 C21.9103424,34.6758333 22.130126,34.3720167 22.3543472,34.0715365 L22.3543472,34.0715365 L23.022266,33.183386 C23.1576527,32.999711 23.2808711,32.8070078 23.4159229,32.6230524 C23.6649272,32.2839363 23.9205181,31.9496988 24.1698294,31.610807 C24.4486406,31.2317932 24.7229305,30.8494149 25.0002905,30.4693638 C25.2534253,30.1224812 25.5070626,29.7759352 25.7623465,29.4306788 C25.8874906,29.2614151 26.0199747,29.0975908 26.1431652,28.9269253 C26.2143611,28.8282886 26.184638,28.7777927 26.0691225,28.7659327 C25.6368117,28.721521 25.216111,28.6319125 24.8239054,28.4340223 C24.596084,28.3190677 24.36723,28.2061038 24.1382364,28.0935044 C24.1063085,28.0778313 24.070864,28.0693919 24.0042173,28.0461487 Z M20.4584311,20.8318498 C20.3934868,20.8734858 20.3104295,20.9012151 20.266417,20.9589728 C19.9294434,21.4009312 19.600982,21.8494504 19.2677761,22.2943528 L19.2677761,22.2943528 L18.9533251,22.6940864 C18.8512897,22.8288356 18.7560083,22.9687158 18.654838,23.1041379 C18.4522743,23.3753467 18.2481756,23.6454059 18.0438815,23.9152969 C17.7207787,24.3421149 17.3969502,24.7683162 17.0735683,25.1948819 C16.7141001,25.6691117 16.3548551,26.1435378 15.9953868,26.6177676 C15.7272647,26.9714633 15.4583054,27.3245141 15.1914393,27.6791631 C15.155939,27.7263786 15.1364585,27.7862391 15.0987813,27.8311555 C15.0667139,27.8693709 15.0173707,27.9211566 14.9788842,27.9185771 C14.932304,27.9154649 14.8686714,27.8713336 14.8478513,27.827819 C14.7277029,27.5769096 14.6185507,27.320701 14.504626,27.0667634 L14.504626,27.0667634 L14.2443185,26.4928035 C14.138041,26.2567821 14.0315122,26.0208447 13.9274115,25.783842 C13.8558807,25.6209429 13.7908806,25.4551279 13.7184566,25.2926494 C13.4996778,24.8019053 13.2795872,24.3117781 13.0582686,23.8221556 C12.949842,23.582293 12.8365593,23.3446454 12.7273512,23.1051192 C12.5871084,22.7974895 12.446419,22.4899719 12.3102229,22.1804917 C12.1613003,21.8422167 12.0227041,21.4992594 11.8695952,21.1629191 C11.7311106,20.858738 11.7246078,20.8608128 11.472059,21.0700301 C11.2987718,21.2135832 11.1235589,21.3551456 10.9557978,21.5051193 C10.5855845,21.8360764 10.3086432,22.2450905 10.0203709,22.6447681 C9.81172299,22.9340612 9.5956792,23.2179991 9.38290078,23.5043201 C9.15912619,23.8054732 8.93493297,24.1062898 8.71160493,24.4077512 C8.3658958,24.874495 8.01918194,25.3404817 7.67609626,25.809132 C7.48718005,26.0672471 7.307111,26.3318951 7.11886461,26.590543 C6.87934933,26.9195374 6.63134971,27.2423636 6.3948207,27.573517 C6.16532476,27.8948572 5.9515416,28.2275246 5.66617179,28.505154 C5.63449505,28.5359675 5.61244691,28.6083328 5.62670843,28.6457351 C5.6392954,28.6787355 5.70733761,28.7032685 5.75347123,28.7084835 C6.1128837,28.7489139 6.47318925,28.7815498 6.83271334,28.8209988 C7.24194342,28.8659152 7.65095023,28.9132709 8.05951049,28.9637949 C8.32191117,28.9962345 8.58325131,29.0370294 8.84528917,29.0726653 C8.9946862,29.0930207 9.14427859,29.1128714 9.29420588,29.1287687 C9.58097115,29.1591616 9.86823877,29.1847881 10.1549482,29.2157417 C10.5643457,29.2599572 10.9732967,29.3084905 11.3827222,29.3525938 C11.5925702,29.3751641 11.8035066,29.3880054 12.0131034,29.4126506 C12.2396131,29.4392864 12.4650064,29.4751466 12.6910974,29.5055956 C12.7546742,29.5141471 12.8189487,29.5172312 12.8828045,29.5238201 C13.1695977,29.5534279 13.4565862,29.5813815 13.7430724,29.6139052 C13.9426219,29.6365597 14.1412784,29.6671488 14.3406605,29.6916258 C14.7218141,29.7384207 15.1029677,29.7858605 15.4846237,29.8282255 C15.708175,29.8529828 15.9329822,29.8662446 16.1567847,29.8887869 C16.4209157,29.9153947 16.6848514,29.9442175 16.9484243,29.9759842 C17.4233522,30.0331811 17.8987825,30.1114624 18.3768362,30.0272091 C18.7974253,29.9531054 19.2151955,29.8626838 19.6329378,29.7733276 C19.7159672,29.7555517 19.7981314,29.71857 19.8720345,29.675476 C20.2378939,29.4622493 20.604172,29.2493589 20.9629984,29.0246087 C21.090124,28.9450096 21.1981878,28.8339242 21.3123357,28.7341941 C21.6315592,28.455303 21.8879315,28.1229159 22.1274747,27.7747997 C22.2453624,27.6034893 22.3859402,27.4481043 22.5084887,27.279822 C22.6940838,27.0250994 22.8700223,26.7633113 23.0552266,26.5082803 C23.3669425,26.079023 23.6841286,25.653747 23.9964585,25.2248822 L23.9964585,25.2248822 L25.2686079,23.470787 C25.5837845,23.0383895 25.9047104,22.6101976 26.2187428,22.1769869 C26.3143312,22.0450976 26.4106453,21.9097315 26.4787433,21.762898 C26.5369615,21.6374573 26.4900186,21.6009242 26.3522596,21.5870735 C26.0530748,21.556933 25.7552297,21.5134465 25.4563519,21.4800256 C25.1693634,21.4478943 24.8814259,21.4244268 24.5944932,21.3919872 C24.317524,21.360641 24.0409176,21.3252854 23.7648136,21.287014 C23.4307705,21.2406676 23.0977599,21.1868633 22.763661,21.1409655 C22.2751134,21.0738713 21.7863426,21.0081509 21.2969857,20.9474212 C21.0243145,20.9135797 20.75022,20.8910094 20.4767394,20.8633361 L20.4767394,20.8633361 Z M2.06141662,11.385225 C2.08120412,11.4185338 2.10782934,11.4495995 2.11938367,11.4855719 C2.14723688,11.5722084 2.15767486,11.6656021 2.1933426,11.7483694 C2.40257658,12.2339264 2.620574,12.7157264 2.82612399,13.2028536 C2.85821937,13.278976 2.86745726,13.3839211 2.84337177,13.4618379 C2.69140711,13.9531707 2.52481812,14.4399334 2.36780193,14.9296961 C2.29839218,15.1462033 2.23135469,15.3641965 2.17885781,15.5852458 C2.1061548,15.8914176 2.05014138,16.2015427 1.98302016,16.5090883 C1.95003169,16.6602396 1.89334846,16.8074376 1.87305859,16.9598786 C1.81796617,17.3742479 1.80027185,17.7949257 1.72366157,18.204809 C1.63097569,18.7005717 1.65737763,19.2003159 1.62397052,19.6975086 C1.6044342,19.9880353 1.63203623,20.2824313 1.64783274,20.5745842 C1.67077396,20.9990751 1.69391054,21.4238744 1.73256455,21.8471317 C1.76806483,22.2356783 1.80521175,22.6258791 1.87573786,23.0090424 C1.97559636,23.5514599 2.09016292,24.0924475 2.22942897,24.625865 C2.35909432,25.1224969 2.48675021,25.6214279 2.68749985,26.0973681 C2.83586424,26.4491292 2.97019039,26.8069744 3.104991,27.1643151 C3.1219876,27.2093717 3.12307605,27.2799706 3.09901847,27.3179056 C2.98188427,27.5028704 2.85548429,27.6820594 2.72891685,27.8608278 C2.56001141,28.0993727 2.38817552,28.3358427 2.21692573,28.5726772 C2.18061608,28.6228928 2.14126435,28.6708933 2.08148321,28.7481372 C2.00113312,28.606743 1.92580666,28.4975922 1.87386796,28.3782357 C1.73750445,28.0648302 1.62092844,27.7425648 1.47912266,27.4318228 C1.17725862,26.7703011 0.960182198,26.0800408 0.772745166,25.3797429 C0.656169157,24.944121 0.538700058,24.5076019 0.451093619,24.0655874 C0.348946577,23.5499459 0.272727021,23.028809 0.197177283,22.5082609 C0.148336484,22.1717523 0.115180558,21.8326082 0.0855969888,21.4937164 C0.0586647768,21.1852455 0.0463289864,20.8755129 0.0260391231,20.5664252 C0.0250343981,20.5516493 0.00901461603,20.5378828 -6.26165786e-14,20.5236116 L-6.26165786e-14,20.5236116 L-6.26165786e-14,19.430141 C0.00842852645,19.420496 0.0235273106,19.4113837 0.0242808543,19.401178 C0.0634651296,18.876256 0.0988537771,18.3510537 0.140912682,17.826384 C0.156653374,17.6297275 0.182525043,17.4334916 0.213001701,17.2385454 C0.248278713,17.012954 0.293575065,16.7889327 0.334740881,16.5642665 C0.396559378,16.2272813 0.444339634,15.8868474 0.524131545,15.554208 C0.623599321,15.1396144 0.746706043,14.7305723 0.864956595,14.320689 C0.959456563,13.9930684 1.05964997,13.6670179 1.1617412,13.3416963 C1.22707623,13.1335163 1.29096,12.9239905 1.37267763,12.722091 C1.47315013,12.4738731 1.59081459,12.2326928 1.7024228,11.9890731 C1.78383343,11.8114262 1.86407189,11.6330222 1.9528226,11.4590763 C1.97032156,11.4248142 2.02426971,11.4093654 2.06141662,11.385225 Z M37.8488618,11.2640067 C37.904317,11.1897629 37.9706847,11.2123893 38.0076083,11.2920725 C38.038085,11.357877 38.0546629,11.4300741 38.0833813,11.4968599 C38.2400905,11.8615464 38.3923622,12.2283637 38.558086,12.5889006 C38.7852376,13.0830372 38.9580782,13.5958189 39.1063588,14.1179652 C39.2071942,14.4730347 39.3163464,14.8260295 39.4052087,15.1841271 C39.5084442,15.6000946 39.6058467,16.0183611 39.682764,16.439852 C39.7477362,16.7957907 39.7813666,17.1576173 39.8257978,17.517229 C39.8495204,17.709091 39.8656519,17.9018783 39.887086,18.0940488 C39.9218048,18.4045384 39.9715387,18.7140467 39.9897912,19.0254895 C40.0075134,19.3281566 39.9936427,19.6327022 39.9934752,19.9364067 C39.9932798,20.2821957 40.01103,20.6291344 39.9887865,20.9734374 C39.9612403,21.3999471 39.901487,21.8243819 39.853958,22.2495177 C39.80855,22.655672 39.7738591,23.0636206 39.7105893,23.4669991 C39.6505291,23.8501625 39.5802262,24.2341669 39.4776605,24.6076012 C39.3016104,25.2486273 39.1151781,25.8879712 38.8994134,26.5163804 C38.6668475,27.1935752 38.4190711,27.8671251 38.0867862,28.504226 C38.0804044,28.5164598 38.071734,28.5274848 38.0618934,28.537893 L37.9977564,28.5976756 C37.96781,28.5665258 37.9266721,28.5405068 37.9097593,28.5033568 C37.8040399,28.271541 37.7021998,28.0378747 37.6020064,27.8035636 C37.471141,27.4976161 37.3379033,27.1925098 37.2165548,26.8827492 C37.1777892,26.7838041 37.1327719,26.6587279 37.1604577,26.5668483 C37.3141527,26.0570106 37.5068087,25.5586683 37.6523822,25.0467278 C37.8018071,24.521217 37.9198623,23.9862295 38.0372198,23.4521952 C38.1078017,23.1310513 38.1524004,22.8040755 38.2055112,22.4792026 C38.2372717,22.2848452 38.2686973,22.0900672 38.2897407,21.894308 C38.3148588,21.6604174 38.3360418,21.4256296 38.3459216,21.1906736 C38.3672161,20.6827985 38.3897666,20.1746151 38.3931715,19.6664316 C38.3952926,19.347755 38.3679697,19.0284896 38.345782,18.7100933 C38.3230362,18.3835942 38.3052023,18.0556371 38.2584547,17.7322502 C38.2003481,17.3301053 38.1195235,16.9310446 38.0397874,16.5324325 C37.9556696,16.1119229 37.8819898,15.6876002 37.7663069,15.2755581 C37.6100163,14.7187011 37.420821,14.1710125 37.2400263,13.6213332 C37.1618252,13.3836015 37.0887873,13.140851 36.9777373,12.9183157 C36.8668547,12.6961729 36.8474579,12.6630323 36.9826493,12.4653104 C37.0239267,12.4049452 37.0613806,12.3418604 37.1043047,12.2827008 C37.3512996,11.942267 37.5972061,11.6009639 37.8488618,11.2640067 Z M18.3908466,13.4450069 C18.331512,13.4388946 18.2500455,13.434661 18.2151592,13.4680539 C18.1843477,13.4975215 18.1845709,13.5887282 18.2051399,13.6384951 C18.298663,13.8645912 18.407592,14.0842106 18.5045758,14.3089328 C18.6181935,14.5720947 18.7244153,14.8384249 18.835242,15.1027645 C18.9565625,15.3922258 19.0823206,15.6798366 19.2009898,15.9703633 C19.3437166,16.3196011 19.4766473,16.6728762 19.6216626,17.0211045 C19.8318176,17.5258674 20.0491173,18.0276303 20.2630679,18.530795 C20.3433901,18.7197131 20.4100368,18.9161453 20.508472,19.0949417 C20.5537404,19.1771483 20.653571,19.266168 20.7408425,19.2813084 C21.0648942,19.337524 21.3943882,19.3611878 21.7210913,19.402964 C22.1287585,19.4550861 22.5351139,19.5176943 22.9430881,19.5670687 C23.3113756,19.6116487 23.6814214,19.6412565 24.0499881,19.6835374 C24.3449307,19.7173789 24.6385057,19.7633047 24.9333367,19.7982677 C25.1245415,19.8209502 25.3171975,19.8307634 25.5085976,19.8517636 C25.6212663,19.8641563 25.7327629,19.8875958 25.8449014,19.9052035 C26.0294359,19.9341384 26.2136634,19.9655687 26.3987839,19.9901297 C26.6569983,20.0243638 26.916022,20.0522613 27.1744596,20.0846729 C27.36025,20.1079722 27.5456775,20.1343277 27.7313005,20.1590569 C27.9757557,20.1916367 28.2203783,20.2227586 28.4646381,20.2566842 C28.6903105,20.2880024 28.9154526,20.323442 29.1412646,20.3536386 C29.1707086,20.3575359 29.2048413,20.3305636 29.2333644,20.3359749 C29.3014903,20.3489003 29.3675789,20.3726482 29.4344489,20.3920223 C29.4149684,20.4542099 29.4101681,20.5274444 29.3735235,20.5767347 C29.1520933,20.874383 28.9178249,21.1623864 28.6985995,21.4616048 C28.4477252,21.8040293 28.2106659,22.1566316 27.9629175,22.5014113 C27.6613605,22.9210517 27.3555054,23.3376079 27.0504039,23.7546688 C26.864167,24.0093073 26.6731297,24.260413 26.4889859,24.5165375 C26.1800888,24.9462435 25.8771921,25.3802672 25.5675135,25.8093563 C25.3801323,26.0689294 25.1894858,26.3264838 24.9907735,26.5772811 C24.9007948,26.6908619 24.993676,26.7350773 25.0554666,26.7699563 C25.1777082,26.8389851 25.3083782,26.8965465 25.4412252,26.9423321 C25.7071982,27.0340154 25.9736736,27.1276333 26.2461495,27.1954285 C26.4441082,27.2446908 26.6516956,27.2558498 26.8554873,27.2802145 C27.178004,27.3187103 27.5006882,27.3561126 27.8237073,27.3900663 C28.124762,27.4216928 28.4266818,27.4445155 28.7274853,27.4778804 C29.1044526,27.5197126 29.4805267,27.569788 29.8572986,27.6133306 L29.8572986,27.6133306 L30.4596312,27.6738359 C30.6913599,27.7001353 30.922642,27.730388 31.1539241,27.7604725 C31.3531388,27.7863232 31.5514603,27.8206133 31.7512611,27.8400435 C32.180474,27.8818197 32.6110266,27.9100817 33.039793,27.9555869 C33.4943752,28.0037837 33.9474504,28.0661676 34.4014465,28.1203365 C34.4467987,28.1257197 34.4955837,28.1244019 34.5396799,28.1135794 C34.6924261,28.076149 34.7037013,28.0222045 34.6327845,27.8831374 C34.5049053,27.632228 34.3873525,27.3757951 34.2724231,27.1185771 C34.0808276,26.6897404 33.8940046,26.2587447 33.7064559,25.8281135 C33.5976107,25.5782695 33.4913331,25.327304 33.383688,25.0769553 C33.2611953,24.7918678 33.1380886,24.5070047 33.0159307,24.2217771 C32.8669524,23.8738852 32.7204021,23.5249839 32.5695258,23.1779332 C32.435116,22.8686772 32.2930032,22.5627578 32.1599609,22.252885 C31.8848058,21.6120551 31.6166,20.9681972 31.3393238,20.3282925 C31.159785,19.9138672 30.9658173,19.5057503 30.784604,19.0920258 C30.6202756,18.7168252 30.4674179,18.3365497 30.303871,17.9610127 C30.1673121,17.647495 30.0169103,17.3400615 29.8828912,17.0255345 C29.7017337,16.6003426 29.411731,16.2558433 29.114751,15.9104468 C28.8174361,15.5646577 28.484621,15.2588504 28.1026301,15.0219598 C27.7546045,14.8061255 27.3854239,14.6216093 26.9898692,14.4919349 C26.6360944,14.375971 26.2724956,14.3296807 25.9096782,14.2729324 C25.5577175,14.2178663 25.203831,14.173791 24.8498608,14.1333326 L24.8498608,14.1333326 L24.1356688,14.0736123 C23.7677999,14.0334062 23.4009915,13.983443 23.0334854,13.9397322 C22.8423923,13.9170217 22.6509364,13.8975635 22.4593688,13.8791147 C22.3128185,13.8649837 22.1658775,13.8547219 22.0191039,13.8427218 C22.0183504,13.8504041 22.0175968,13.8580864 22.0168433,13.8657688 C21.6340431,13.8238244 21.2514661,13.7799173 20.8684426,13.7405243 C20.4762649,13.70015 20.0832779,13.6677384 19.6914073,13.6248968 C19.4737727,13.6011489 19.257673,13.5631578 19.0408757,13.5316434 C19.0001844,13.5257274 18.9595488,13.5197274 18.9188016,13.514232 C18.742891,13.490428 18.5673153,13.4632594 18.3908466,13.4450069 Z M19.681974,3.17538833 C19.6491809,3.17249485 19.6027682,3.22119635 19.5768128,3.25750518 C19.4493802,3.43568483 19.3297621,3.61955612 19.2017713,3.79734324 C18.9801457,4.10519729 18.7552268,4.41069617 18.5301684,4.71605486 C18.1990557,5.16538719 17.86518,5.61267277 17.5350441,6.06273408 C17.1578815,6.57686155 16.7860495,7.09502646 16.407017,7.60778009 C16.1619758,7.93929796 15.9054918,8.26226433 15.6589155,8.5926607 C15.281418,9.09851705 14.9067114,9.60647623 14.5334282,10.1155008 C14.300918,10.4326073 14.0761387,10.7554616 13.8427076,11.0718951 C13.4950449,11.5432371 13.1376139,12.0073733 12.7941096,12.4817433 C12.4782632,12.917926 12.1822042,13.3661088 11.9971394,13.88004 C11.8464307,14.2986149 11.725445,14.7219002 11.693238,15.1677839 C11.681907,15.3245988 11.666864,15.4811614 11.6571516,15.5954151 C11.6836373,16.0152237 11.701527,16.3873962 11.7922313,16.7602137 C11.8933737,17.1760129 12.0319699,17.5688773 12.2116761,17.95605 C12.5031859,18.5842068 12.7600048,19.2285414 13.0400998,19.8621656 C13.2298812,20.2915351 13.4398966,20.7118484 13.6310735,21.1406011 C13.8931951,21.7284116 14.1443484,22.3211288 14.4034837,22.9102291 C14.5485549,23.2400647 14.7001846,23.5669564 14.8490793,23.8950817 C14.9392533,24.093813 15.0440238,24.2874694 15.1141592,24.4930419 C15.147985,24.5921552 15.1465058,24.6994836 15.2382428,24.7730265 C15.318537,24.8374011 15.4235866,24.8325786 15.4562681,24.737699 C15.5868265,24.358545 15.904822,24.1171123 16.1224287,23.8024731 C16.3590693,23.4602729 16.6081016,23.126484 16.8585293,22.794181 C17.0488968,22.5415332 17.2549212,22.3007734 17.4445072,22.0475649 C17.5920344,21.8505159 17.7213648,21.6398125 17.8657103,21.4402401 C17.9543773,21.3176031 18.0568034,21.2050597 18.1518336,21.0869369 C18.3156875,20.8831588 18.4795694,20.6794088 18.6415533,20.4741167 C18.7605574,20.3232177 18.8752077,20.168786 18.9944072,20.0180272 C19.05857,19.9368861 19.0323076,19.709248 18.9685355,19.5711903 C18.8415215,19.2959721 18.7328717,19.0122585 18.6133373,18.7335076 C18.552077,18.5906555 18.4794577,18.45271 18.4194254,18.3093812 C18.2875273,17.9945177 18.1625507,17.6767383 18.0307364,17.3618749 C17.8886515,17.0224503 17.7392545,16.68611 17.5978673,16.3464331 C17.3579892,15.770118 17.122744,15.1918963 16.8838707,14.6151887 C16.7706437,14.341793 16.6539561,14.0698272 16.5381336,13.797525 C16.3100052,13.2611356 16.0817931,12.7247461 15.85266,12.1887773 C15.7887483,12.0392802 15.7217388,11.891129 15.6556502,11.7425852 C15.6019532,11.6218829 15.6262341,11.5723402 15.75509,11.5819291 C15.9874327,11.5991723 16.218659,11.6314437 16.4505272,11.6557524 C16.6648685,11.6782386 16.8798518,11.6952015 17.0938582,11.7204915 C17.4614201,11.7638939 17.8281447,11.8144458 18.1958183,11.8567828 C18.3466107,11.8741381 18.4993848,11.8737736 18.6505121,11.8888018 L18.6505121,11.8888018 L19.6887001,11.9989059 C20.0578249,12.0374858 20.4270055,12.075561 20.7963257,12.1121222 C21.2753841,12.15959 21.7548891,12.2023756 22.2336127,12.2529276 C22.5334394,12.2845822 22.8321218,12.3270312 23.1313903,12.3641812 C23.3350704,12.3894432 23.4079688,12.2830401 23.3528764,12.0868602 C23.3037565,11.9119049 23.2901369,11.7269962 23.2595486,11.5466857 C23.1722491,11.0321657 22.9462697,10.566964 22.7456596,10.0927623 C22.6123103,9.77750626 22.4827845,9.46056799 22.3446348,9.14744286 L22.3446348,9.14744286 L21.6026733,7.48539548 C21.4292187,7.08953107 21.2662858,6.68901239 21.0987758,6.2905685 L21.0987758,6.2905685 L21.0681038,6.21453023 C20.7625557,5.53655038 20.45324,4.8602528 20.1526598,4.18002993 C20.0202035,3.88027878 19.9073673,3.5718079 19.7804371,3.26947728 C19.7635521,3.22921513 19.7180883,3.17885941 19.681974,3.17538833 Z M5.51702595,11.8432686 C5.45090946,11.8385863 5.38180671,11.8759886 5.31409941,11.894129 C5.33436136,11.9496717 5.35264177,12.0060275 5.37533181,12.0605889 C5.40988319,12.1438609 5.44725338,12.2260114 5.48381421,12.3084142 C5.60016694,12.5704546 5.72003622,12.830981 5.83239796,13.0947318 L5.83239796,13.0947318 L6.33897473,14.3028767 C6.37612165,14.3900459 6.43766105,14.4666449 6.47525451,14.5536179 C6.76768531,15.2304482 7.05752056,15.9084 7.34713255,16.5864079 C7.55993889,17.0846099 7.76945196,17.5841859 7.98407238,18.0815748 C8.06559466,18.2704649 8.16168544,18.4530184 8.24371007,18.6416841 L8.24371007,18.6416841 L8.82109204,19.9872979 C8.86250904,20.0831588 8.91768519,20.1729917 8.95896264,20.2688806 C9.02893057,20.4316115 9.08857217,20.5988845 9.16057746,20.760606 C9.23110357,20.9190471 9.32063573,20.9266173 9.4315183,20.7925409 C9.8114439,20.333115 10.2483597,19.9389329 10.7545179,19.6233965 C10.8280302,19.5775548 10.8925838,19.5162083 10.9684127,19.4754135 C11.0928311,19.4084314 11.0740483,19.3127106 11.0216631,19.2202142 C10.776259,18.7868073 10.5853333,18.330073 10.4370248,17.8553666 C10.3393432,17.5428022 10.2259767,17.2319761 10.165442,16.9116453 C10.0888317,16.5060238 10.0587458,16.0915423 10.0085933,15.680902 C10.0216268,15.6793039 10.0346603,15.6777338 10.0477217,15.6761637 C10.0265388,15.0114737 10.1370027,14.3664381 10.3550559,13.7415898 C10.4811768,13.3802678 10.6286202,13.0261796 10.7746961,12.6722876 C10.8611862,12.4626216 10.8390264,12.4349203 10.6138005,12.4172846 C10.3181602,12.3941535 10.0243898,12.3467418 9.7298379,12.3094516 C9.50779368,12.2813578 9.28644717,12.245049 9.06367731,12.2260394 C8.56480344,12.1835062 8.06456202,12.1562816 7.5661626,12.1090381 C7.33588521,12.0872247 7.10929181,12.0283736 6.87979587,11.9950648 C6.65817028,11.9628775 6.43503761,11.9413445 6.21246311,11.9161947 C5.98079027,11.8900355 5.74939652,11.8596707 5.51702595,11.8432686 Z M24.6704895,10.0374439 C24.6331472,10.0328457 24.5742033,10.0374719 24.5584626,10.060631 C24.5315862,10.1001923 24.5098172,10.1643986 24.5228786,10.2067075 C24.6111828,10.4928043 24.7328662,10.7705458 24.7981454,11.0613249 C24.8813701,11.4317591 24.9778795,11.8044644 24.9512822,12.1918614 C24.9461469,12.2665819 24.943663,12.3423398 24.9499984,12.41678 C24.9607992,12.5443235 25.0600716,12.5773519 25.1623303,12.5874455 C25.5776724,12.6284086 25.9957218,12.6482312 26.4086637,12.7056525 C26.913566,12.7758309 27.4044579,12.9095707 27.872883,13.1189283 C28.0969646,13.2190229 28.3336331,13.293463 28.5496769,13.407941 C28.7577387,13.5182414 28.9488039,13.6618505 29.1433578,13.7965997 C29.5567184,14.0830049 29.9480867,14.3981208 30.2862324,14.7716672 C30.4951594,15.0024736 30.6881783,15.2494858 30.870173,15.502414 C30.9383548,15.5971814 30.9643939,15.7210801 31.0838167,15.7509683 C32.1949588,14.2432404 33.3028356,12.7400267 34.4332907,11.2061117 C34.340549,11.1781581 34.2637992,11.1434754 34.1838957,11.1329613 C33.8714262,11.0917739 33.5582032,11.056166 33.2448127,11.022745 C33.0984857,11.007128 32.9501213,11.0089785 32.804492,10.98924 C32.5156893,10.9500713 32.2285613,10.898566 31.9399261,10.8577712 C31.7541078,10.8315279 31.5668661,10.8150137 31.3802105,10.7945742 C30.9570259,10.7482839 30.5339809,10.7008721 30.110573,10.656881 C29.9687393,10.6421331 29.8256219,10.6399742 29.6837603,10.6255348 C29.42429,10.5991233 29.1652384,10.568394 28.906131,10.5385338 L28.906131,10.5385338 L28.2249833,10.4580375 C27.9025782,10.4196539 27.5801731,10.3813544 27.2578238,10.342382 C27.0401892,10.3160826 26.8227221,10.2885776 26.6051712,10.2618296 C26.3057352,10.2250722 26.0065226,10.18624 25.7066959,10.1528471 C25.5650576,10.1370618 25.421661,10.137146 25.2801343,10.1206037 C25.0764821,10.0968277 24.87403,10.0625937 24.6704895,10.0374439 Z M18.2923695,0.0374443608 C18.3346517,0.0330985159 18.4113736,0.0475379362 18.4168438,0.0681456525 C18.4280632,0.110426518 18.4137459,0.170679556 18.3884603,0.209315519 C18.3284838,0.300998828 18.2542458,0.383121279 18.1889108,0.471468101 C18.0340157,0.68090979 17.880516,0.891388874 17.7272955,1.10206422 C17.5849315,1.29787958 17.4488192,1.49862958 17.2987523,1.68827665 C17.2515303,1.74791286 17.1724919,1.78884791 17.1001517,1.81966135 C17.0783826,1.82892314 17.0553515,1.83507898 17.0317012,1.83977997 L16.8875128,1.86373663 C16.6712457,1.91420451 16.4578533,1.98833621 16.2388233,2.01270098 C16.0014012,2.03908447 15.7736356,2.08301956 15.5458142,2.15650639 C15.1921231,2.27059183 14.8262915,2.34702263 14.4735214,2.4636595 C14.0302702,2.61021261 13.5942196,2.77911177 13.1566898,2.94268376 C12.9403948,3.02354452 12.7234858,3.1050221 12.5142518,3.20228491 C12.1697986,3.36240827 11.8286945,3.53032611 11.4913022,3.70494497 C11.2452283,3.8322642 11.0054898,3.9723406 10.766449,4.11278149 C10.5115,4.262615 10.2578907,4.41514014 10.008998,4.57478686 C9.81729084,4.69770418 9.63110972,4.82978983 9.44735668,4.96453906 C9.26310127,5.09965278 9.08534867,5.2437666 8.90382836,5.38274953 C8.69353383,5.54371402 8.4751736,5.69492139 8.27302851,5.86558692 C7.95807512,6.13149656 7.65263872,6.40881754 7.34566732,6.68411981 C7.19400967,6.82013074 7.03841684,6.95361827 6.90146724,7.10373217 C6.64389482,7.38609994 6.39575565,7.67732762 6.14895611,7.9693684 C5.92967488,8.22880133 5.72080372,8.49712221 5.50068521,8.75582615 C5.40953433,8.86295824 5.34567847,9.01977315 5.15575754,8.98461386 C4.94627237,8.97028659 4.73067513,8.96221173 4.5166408,8.93930492 C4.23989487,8.90966906 3.96395831,8.87114525 3.68869157,8.82950925 C3.6303617,8.82064933 3.53873636,8.79120974 3.52966593,8.75450838 C3.52331663,8.7287277 3.53199633,8.69872035 3.54567874,8.6678298 L3.5917077,8.57585209 C3.60289922,8.55182378 3.63108734,8.53643107 3.64746994,8.51408502 C3.87730078,8.20095988 4.09401438,7.87706826 4.33863702,7.57611149 C4.71588335,7.11194721 5.10242338,6.65451199 5.50383893,6.21137599 C5.76529071,5.92272777 6.05730287,5.66152847 6.34060741,5.39337582 C6.77104835,4.98601594 7.19947984,4.57677754 7.68587838,4.23368009 C8.02154025,3.99690163 8.33869845,3.73359951 8.6761186,3.49959678 C8.9596185,3.30296833 9.25712874,3.12593823 9.55433198,2.95025394 C10.0242642,2.67248436 10.489117,2.38321931 10.9747061,2.13567438 C11.4768733,1.87966205 11.9995536,1.6636315 12.5167358,1.43823636 C12.7326958,1.34408573 12.9575309,1.27040263 13.17871,1.1884484 C13.3186738,1.13660668 13.4592236,1.08627899 13.5997456,1.03589523 C13.8327581,0.952342854 14.0624214,0.856594076 14.3000389,0.789191423 C14.6054474,0.702610977 14.9174703,0.639750432 15.2262837,0.565226201 C15.4204189,0.518375189 15.612461,0.461486677 15.8080753,0.422233884 C16.1025435,0.363186468 16.3988536,0.312662516 16.6952754,0.26401709 C17.0233181,0.210184688 17.3520586,0.160557942 17.6810502,0.112865799 C17.8842279,0.0833981664 18.0881592,0.0583324542 18.2923695,0.0374443608 Z M21.5809322,0.0331770214 C21.8848336,0.0655045003 22.1882326,0.102738578 22.4915479,0.14053341 C22.695228,0.1658795 22.8996058,0.187973215 23.1016393,0.223216615 C23.3929816,0.273992907 23.6838216,0.329311307 23.9724568,0.393601775 C24.4550876,0.501098352 24.9429374,0.593258303 25.4155768,0.735493602 C26.0488606,0.92609395 26.6753345,1.14335816 27.2942451,1.37713658 C27.7999009,1.56815749 28.2960118,1.78774883 28.785564,2.01779824 C29.2025528,2.21375379 29.6084617,2.43485916 30.0111332,2.65952533 C30.3241608,2.83417222 30.6355698,3.0158005 30.9282238,3.22224216 C31.3834201,3.54333 31.8112376,3.90406317 32.2705643,4.21870234 C32.8114692,4.58922067 33.2765453,5.04382409 33.7483195,5.49158631 C34.1044387,5.82966501 34.4474964,6.18204294 34.788154,6.5360751 C34.9308529,6.68439458 35.0504431,6.85494796 35.1836529,7.01274419 C35.4164979,7.28857918 35.6556224,7.55922718 35.8846439,7.83823043 C36.0323943,8.01817645 36.1687578,8.2077394 36.3059307,8.39615281 C36.3398123,8.44266737 36.3569484,8.50146244 36.4004865,8.59468783 C36.2829057,8.5757063 36.2119889,8.56726695 36.1425233,8.55223874 C36.0716344,8.53690211 36.0028107,8.50255591 35.931866,8.49865867 C35.7684586,8.48968661 35.6031535,8.50634101 35.4407508,8.49044362 C35.1688053,8.4638078 34.8988412,8.41720913 34.6274259,8.38406855 C34.417578,8.35844209 34.2252289,8.33253524 34.06905,8.14496297 C33.6603223,7.6539666 33.2504503,7.16232537 32.7652519,6.74142328 C32.4224732,6.44411141 32.0902999,6.13446295 31.7483306,5.83614172 C31.5584376,5.67049493 31.3642745,5.50846501 31.16132,5.35947262 C30.7900462,5.08691805 30.4145861,4.81960653 30.0333208,4.56137923 C29.8457722,4.43439644 29.6413106,4.33253544 29.4444403,4.21945936 C29.1170954,4.03143848 28.7954996,3.83231467 28.4608146,3.65859303 C28.0859963,3.4640674 27.7057637,3.27702784 27.3162653,3.11485773 C26.7637503,2.88478029 26.2050953,2.66751608 25.6404398,2.46959789 C25.2558255,2.33476454 24.8588754,2.23253905 24.4629859,2.1337622 C24.0402199,2.02834042 23.6139653,1.93458232 23.1858408,1.85394586 C22.894638,1.79913214 22.596458,1.78250578 22.3039714,1.7332996 C22.2325242,1.72129946 22.1483506,1.66267261 22.1101432,1.60056909 C22.0400636,1.48673599 22.0041726,1.35229517 21.9464009,1.23010683 C21.7913662,0.902289935 21.6295497,0.577669336 21.4777525,0.248338403 C21.4549229,0.198879884 21.4608954,0.128505233 21.4747662,0.0731868326 C21.4802085,0.0514576079 21.5455435,0.0294199684 21.5809322,0.0331770214 Z" id="path-3"></path>
    </defs>
    <g id="Hubble" stroke="none" stroke-width="1" fill="none" fill-rule="evenodd">
        <g id="Hubble---Landing" transform="translate(-1014.000000, -286.000000)">
            <g id="Group-Copy-2" transform="translate(958.000000, 230.000000)">
                <g id="iris-logo" transform="translate(56.000000, 56.000000)">
                    <path d="M61.2928339,21.8149133 C62.7388926,23.6003249 64.1694895,25.3664863 65.6,27.132818 C65.584711,27.1524089 65.5692493,27.1719998 65.5539604,27.1915907 L64.7635992,27.1915907 C64.3101133,27.1915907 63.8554181,27.2136517 63.4036597,27.1863096 C62.7765535,27.14815 62.2308156,26.9220882 61.8224191,26.4214131 C61.2468807,25.7158855 60.6570899,25.0216014 60.0825016,24.3153072 C59.5515344,23.6625898 59.0333511,22.9998215 58.5078258,22.34276 C58.3847367,22.1890141 58.2651028,22.0300724 58.1231833,21.8946397 C58.0672102,21.8413184 57.9548321,21.8271789 57.8679355,21.8264975 C57.1554876,21.8213016 56.4428668,21.8181501 55.7305052,21.8273493 C55.5490245,21.8295639 55.5001344,21.77258 55.4972839,21.5966026 C55.4841544,20.8007866 56.1718982,19.9378505 56.9715018,19.8191978 C57.2013544,19.7851267 57.4329346,19.7415157 57.6640828,19.7397269 C58.7291269,19.7312091 59.7944301,19.7432192 60.8594742,19.7334238 C61.5782277,19.7268651 62.1333809,19.3953531 62.5353854,18.8211697 C62.7812179,18.4698965 62.8720879,18.0601913 62.8845263,17.6391576 C62.8973103,17.2064544 62.8884133,16.773155 62.8870313,16.3401112 C62.8856492,15.9022973 62.6483681,15.681772 62.2233007,15.6835608 C59.7115933,15.6939525 57.1997996,15.6885863 54.6880923,15.6887566 C54.3028452,15.6887566 54.1194641,15.8711223 54.1194641,16.2528891 C54.1194641,19.7881931 54.1194641,23.3234971 54.1193777,26.8588011 C54.1193777,27.1915055 54.119205,27.1915907 53.7953728,27.1915907 C53.2700202,27.1915907 52.7444948,27.1852875 52.2193149,27.1951681 C52.0444853,27.1984049 51.9998277,27.1385249 52,26.97328 C52.0038875,22.969413 52.0011234,18.965546 52.005356,14.9617642 C52.0059606,14.4535936 52.3737593,13.8696147 52.9099956,13.7288158 C53.1311239,13.6708097 53.3602855,13.6070115 53.5859919,13.6065005 C56.8677615,13.5986641 60.1496175,13.5984086 63.4314735,13.6030934 C64.2084461,13.6042007 64.6777392,13.9563256 64.9454255,14.6781222 C64.9690067,14.7415797 64.959937,14.8179841 64.9600234,14.8884262 C64.9608008,15.9320244 64.9703024,16.9757078 64.9568274,18.0190505 C64.9490534,18.6216833 64.7475329,19.178235 64.4535876,19.7026746 C64.0696362,20.3877595 63.5215661,20.9099845 62.8367591,21.3011209 C62.3743763,21.5650869 61.8698408,21.6966014 61.2928339,21.8149133" id="Fill-1" fill="#2E3148"></path>
                    <path d="M110.732687,16.0051039 C111.987761,16.0121222 112.983513,16.557319 113.721388,17.5090808 C114.177685,18.0974607 114.409996,18.7841791 114.399039,19.5518968 C114.391989,20.0437546 114.358183,20.5219062 114.163246,20.9699204 C113.825269,21.7473811 113.271885,22.3516966 112.515919,22.7774175 C111.980202,23.0791211 111.406941,23.26589 110.788068,23.2684496 L104.672385,23.2763762 L104.672385,23.2763762 C104.455618,23.2772018 104.38877,23.2188262 104.401596,23.0095988 C104.444491,22.3152016 104.78612,21.808564 105.388854,21.4526132 C105.714769,21.2601471 106.072027,21.2061476 106.444914,21.2063953 C107.78272,21.2073035 109.120525,21.2084595 110.458331,21.2048265 C110.653693,21.2043311 110.858738,21.2106063 111.042464,21.1581755 C111.480754,21.033085 111.838437,20.7819955 112.083404,20.3990449 C112.301785,20.0577086 112.327691,19.663116 112.247593,19.2998991 C112.1449,18.8332245 111.857463,18.4496134 111.386301,18.2413768 C111.093003,18.111745 110.783821,18.063195 110.457821,18.0646812 C108.773205,18.0721123 107.088505,18.0613785 105.403974,18.0712041 C104.668563,18.0755802 104.139556,18.4299622 103.83012,19.072837 C103.756562,19.225753 103.73108,19.4129348 103.73006,19.5845937 C103.722076,20.9198016 103.711289,22.2552572 103.73125,23.5901347 C103.742632,24.3477791 104.415102,25.0847815 105.266201,25.0868457 C107.679942,25.0924603 110.093768,25.0760293 112.50734,25.0953502 C113.404901,25.1025336 114.142435,25.6875282 114.376275,26.5783548 C114.425116,26.7643806 114.38341,26.9729475 114.38341,27.194973 L114.144049,27.194973 C111.213618,27.194973 108.283101,27.2105784 105.35284,27.1867988 C104.263569,27.1780466 103.321074,26.7813071 102.567401,25.9770943 C102.191541,25.5761439 101.935192,25.1187169 101.75376,24.6228958 C101.653107,24.3481094 101.611571,24.0401306 101.608513,23.746436 C101.594073,22.3493847 101.602567,20.9522508 101.601718,19.5550344 C101.601463,18.9922506 101.750618,18.4694297 102.017754,17.9714619 C102.348426,17.3550914 102.808546,16.8610042 103.431156,16.5176037 C103.868768,16.2761748 104.321668,16.0654611 104.837848,16.0455622 C105.337381,16.0264064 105.837253,16.0069204 106.337125,16.0051039 C107.802256,15.9998195 109.267557,15.9969296 110.732687,16.0051039 Z M96.1254159,16 C96.6086647,15.9981824 97.0641279,16.0810829 97.5091187,16.2581389 C98.4966454,16.6510554 99.2004894,17.3521401 99.6381327,18.2957949 C99.8141359,18.6752726 99.8768857,19.1130411 99.9499388,19.5314913 C100.002216,19.8300843 99.9972333,20.1404363 99.9977401,20.4456648 C100.001287,22.5738646 99.9995981,24.7021484 99.9995981,26.8304322 C99.9995981,27.1698455 99.9127788,27.2472865 99.5830684,27.175473 C99.1572487,27.0826614 98.7614948,26.9313071 98.4371895,26.6189393 C98.1963252,26.3869522 98.0185484,26.1197724 97.9367964,25.8037929 C97.877256,25.5736537 97.8505684,25.3292357 97.8496394,25.0911173 C97.8427141,23.3339119 97.8535243,21.5766226 97.8417851,19.8195013 C97.8376468,19.1934218 97.4207793,18.5203066 96.7801918,18.261274 C96.5066436,18.150656 96.2390072,18.1049641 95.9532976,18.1049641 C93.9405775,18.1052161 91.9278573,18.1102556 89.9152217,18.0997566 C89.5995307,18.0981607 89.3477718,18.3037742 89.3496298,18.6553664 C89.3642404,21.3925952 89.3577374,24.129992 89.3576529,26.8673049 C89.3576529,27.1793367 89.3573996,27.1794207 89.0457624,27.1794207 C88.5109119,27.1794207 87.9758925,27.1725333 87.4412954,27.1831163 C87.2584514,27.186812 87.1991643,27.1355766 87.2,26.9477696 C87.2070186,25.3656045 87.2039782,23.7833553 87.2039782,22.2011902 C87.2039782,20.6399392 87.2,19.0787722 87.2070186,17.5175212 C87.2085388,17.1750001 87.2709507,16.843818 87.4954308,16.5570679 C87.7601957,16.2187465 88.0887238,16.0068336 88.5250158,16.0063296 C91.0584825,16.0028859 93.5920337,16.0097733 96.1254159,16 Z M120.911606,13.6001449 C121.089769,13.5965887 121.137401,13.6580613 121.135061,13.831387 C121.126371,14.4515322 121.131719,15.0718468 121.131719,15.7216276 L121.36328,15.7214583 L121.36328,15.7214583 C122.446878,15.7075719 123.530476,15.6966491 124.613907,15.6759888 C124.792153,15.6725173 124.85817,15.7184947 124.854828,15.9108718 C124.84363,16.5446494 124.850566,17.1787657 124.850566,17.8358284 L121.131719,17.8358284 L121.131385,23.5902073 L121.131385,23.5902073 C121.131134,24.0316078 121.541359,24.6593736 121.94682,24.8487025 C122.259273,24.9945941 122.565876,25.0455673 122.898635,25.0407409 C123.406799,25.0332897 123.915213,25.0427731 124.423544,25.0379467 C125.365081,25.0290561 126.237174,25.7565667 126.356339,26.70609 C126.363191,26.7603654 126.389514,26.81227 126.395113,26.8666301 C126.420935,27.1156535 126.347313,27.1984637 126.10514,27.1985484 C124.942321,27.1987177 123.779419,27.202782 122.6166,27.1965162 C122.17813,27.19423 121.754702,27.0839858 121.349575,26.9241231 C120.824949,26.7171822 120.362245,26.4055008 119.987786,25.974007 C119.663551,25.6002603 119.414023,25.188072 119.239454,24.712633 C119.020261,24.1156881 118.996779,23.5097679 118.998868,22.8899614 C119.004133,21.2949756 119.000623,19.6999898 119.000623,18.1049193 L119.000623,17.8420942 L116.8,17.8420942 L116.8,15.7289942 L119.000623,15.7289942 L119.000706,13.903613 L119.000706,13.903613 C119.000873,13.6041246 119.001291,13.6040399 119.303215,13.6040399 C119.839373,13.6040399 120.375699,13.6108984 120.911606,13.6001449 Z" id="Combined-Shape" fill="url(#linearGradient-1)"></path>
                    <path d="M72.0197408,27.1977828 C71.9503035,26.6238228 72.110504,26.1568145 72.4929208,25.7448586 C72.9136389,25.2917412 73.4201727,25.1039153 74.0300946,25.1060458 C76.3403765,25.1140565 78.6506584,25.1173801 80.9608549,25.1041709 C81.626139,25.100336 82.27513,24.6490083 82.5428986,24.0356764 C82.7886587,23.4729654 82.7888293,22.9215888 82.4805415,22.3941592 C82.1371085,21.8065639 81.6075428,21.458779 80.925198,21.4504274 C79.2336243,21.4294632 77.5415388,21.4530693 75.8497945,21.4399453 C74.8592472,21.4321902 73.9913667,21.088496 73.2535745,20.4147428 C72.8117863,20.0114794 72.4811489,19.5348411 72.2586766,18.9869586 C72.1042768,18.60679 72.0063481,18.211026 72.0008887,17.7908037 C71.9929554,17.1755117 72.0339865,16.5782013 72.2939071,16.0047526 C72.6452733,15.2298426 73.177057,14.6241806 73.9057217,14.1910048 C74.4564428,13.8637581 75.0420532,13.6470424 75.6947123,13.6409917 C76.0971755,13.6373272 76.499468,13.603239 76.9018459,13.6024721 C79.1125782,13.5984667 81.3233959,13.600512 83.5341283,13.6005972 C83.8695427,13.6005972 83.8720165,13.6363898 83.8314972,13.9742039 C83.7694814,14.4909809 83.5297778,14.893733 83.1500908,15.2309505 C82.8307988,15.5144791 82.4578507,15.6838974 82.033891,15.6856018 C79.9796057,15.6936126 77.9251498,15.6894368 75.8708646,15.6890107 C75.1731651,15.6888402 74.3619263,16.2241101 74.1729784,16.937917 C73.9865044,17.6423496 74.0706992,18.2788615 74.5976206,18.8050128 C74.9480484,19.1550134 75.3842919,19.3534067 75.890655,19.3540033 C77.5967303,19.3563042 79.3028056,19.3457369 81.0087956,19.3593721 C81.6867047,19.3648263 82.3204263,19.5640718 82.9051836,19.9156915 C83.5069164,20.2774525 83.9760018,20.7697713 84.315852,21.3758595 C84.5569204,21.8058821 84.6996336,22.273487 84.7662559,22.7700668 C84.8348401,23.2807932 84.7970505,23.7779696 84.6695214,24.2677318 C84.5314999,24.7978033 84.2823276,25.280066 83.9296819,25.7018223 C83.4600846,26.2635958 82.8952031,26.706998 82.1949445,26.9352185 C81.8082625,27.0611744 81.3976955,27.1836362 80.9970237,27.1865337 C78.0471342,27.2074128 75.0969888,27.1977828 72.147014,27.1977828 L72.0197408,27.1977828 Z" id="Fill-5" fill="#2E3148"></path>
                    <path d="M67.2043121,20.3835954 L67.2043121,13.9094033 C67.2043121,13.602723 67.2044078,13.602723 67.5598846,13.602723 C68.1420089,13.6026378 68.7241332,13.6077492 69.3060661,13.6 C69.5224724,13.5971857 69.6001911,13.6706186 69.6,13.8625494 C69.5964583,18.2212435 69.5966497,22.5799377 69.5993297,26.9386318 C69.5994254,27.1176991 69.5508991,27.2045067 69.3196573,27.1994805 C68.7060435,27.186191 68.0915683,27.1857651 67.4779545,27.1997361 C67.2480528,27.2049326 67.1994307,27.133885 67.2,26.9429765 C67.2068006,24.7565161 67.2043121,22.5700558 67.2043121,20.3835954" id="Fill-12" fill="#2E3148"></path>
                    <path d="M50.3948238,20.3996735 C50.3948238,22.5793986 50.3916058,24.7591237 50.4,26.9387636 C50.4008699,27.1483804 50.3274396,27.2041703 50.0960318,27.1990598 C49.5031285,27.1861131 48.9093475,27.1846651 48.3165417,27.1995708 C48.0724567,27.2057035 47.9996115,27.1476138 48,26.9282018 C48.0077054,23.2148927 48.00556,19.5014984 48.00556,15.7881892 C48.00556,15.1349787 48.0123862,14.4816829 48.0010742,13.8286427 C47.9978562,13.6465376 48.0686535,13.5981579 48.2676857,13.6012242 C48.8769719,13.6105935 49.4868431,13.6130636 50.0960318,13.6002873 C50.3272446,13.5954323 50.4008699,13.6508815 50.4,13.8604983 C50.3916058,16.0402234 50.3948238,18.2199485 50.3948238,20.3996735" id="Fill-14" fill="#2E3148"></path>
                    <mask id="mask-4" fill="white">
                        <use xlink:href="#path-3"></use>
                    </mask>
                    <use id="IRIS-Network-Copy" fill="url(#linearGradient-2)" xlink:href="#path-3"></use>
                </g>
            </g>
        </g>
    </g>
</svg>