<svg width="342" height="90" viewBox="0 0 342 90" fill="none" xmlns="http://www.w3.org/2000/svg">
<path d="M171.21 18.75V71.25C171.207 71.4481 171.128 71.6374 170.987 71.7775C170.847 71.9176 170.658 71.9974 170.46 72H165C163.747 72.001 162.513 71.6875 161.413 71.0882C160.312 70.489 159.379 69.6231 158.7 68.57L133.92 30.27L134.77 49.4V71.25C134.767 71.4481 134.688 71.6374 134.547 71.7775C134.407 71.9176 134.218 71.9974 134.02 72H126.8C126.602 71.9974 126.413 71.9176 126.273 71.7775C126.132 71.6374 126.053 71.4481 126.05 71.25V18.75C126.053 18.5519 126.132 18.3626 126.273 18.2225C126.413 18.0824 126.602 18.0026 126.8 18H132.23C133.482 18.0007 134.714 18.3138 135.814 18.911C136.914 19.5082 137.848 20.3706 138.53 21.42L163.31 59.66L162.54 40.6V18.75C162.54 18.5511 162.619 18.3603 162.76 18.2197C162.9 18.079 163.091 18 163.29 18H170.51C170.699 18.015 170.876 18.1003 171.006 18.2391C171.135 18.3779 171.208 18.5601 171.21 18.75V18.75Z" fill="black"/>
<path d="M245 72H237.36C237.241 71.9989 237.123 71.9693 237.018 71.9136C236.912 71.858 236.821 71.7779 236.753 71.6801C236.684 71.5823 236.64 71.4696 236.624 71.3513C236.608 71.233 236.62 71.1126 236.66 71L256.9 18.72C256.987 18.5011 257.139 18.3144 257.336 18.1855C257.533 18.0566 257.765 17.9918 258 18H267.57C267.797 18.002 268.018 18.0715 268.205 18.1998C268.392 18.328 268.536 18.5092 268.62 18.72L288.8 71C288.84 71.1126 288.852 71.233 288.836 71.3513C288.82 71.4696 288.776 71.5823 288.707 71.6801C288.639 71.7779 288.548 71.858 288.442 71.9136C288.337 71.9693 288.219 71.9989 288.1 72H280.46C280.307 72.0007 280.158 71.9553 280.031 71.8696C279.904 71.784 279.806 71.6621 279.75 71.52L263.44 28.52C263.387 28.3752 263.292 28.2501 263.165 28.1617C263.039 28.0733 262.889 28.0259 262.735 28.0259C262.581 28.0259 262.431 28.0733 262.305 28.1617C262.178 28.2501 262.083 28.3752 262.03 28.52L245.72 71.52C245.663 71.6637 245.564 71.7867 245.435 71.8725C245.306 71.9582 245.155 72.0027 245 72V72Z" fill="black"/>
<path d="M341.84 70.79L326.66 51.4C335.23 49.78 340.24 44 340.24 35.13C340.24 24.94 333.61 18 321.88 18H300.71C300.413 18 300.128 18.118 299.918 18.328C299.708 18.5381 299.59 18.823 299.59 19.12V19.12C299.59 20.0655 299.776 21.0018 300.138 21.8753C300.5 22.7489 301.03 23.5426 301.699 24.2112C302.367 24.8798 303.161 25.4101 304.035 25.7719C304.908 26.1338 305.844 26.32 306.79 26.32H321C328.09 26.32 331.49 29.95 331.49 35.19C331.49 40.43 328.17 44.19 321 44.19H300.71C300.412 44.1926 300.127 44.3129 299.917 44.5245C299.708 44.7361 299.59 45.022 299.59 45.32V71.32C299.59 71.5189 299.669 71.7097 299.81 71.8503C299.95 71.991 300.141 72.07 300.34 72.07H307.56C307.758 72.0674 307.947 71.9876 308.087 71.8475C308.228 71.7074 308.307 71.5181 308.31 71.32V51.87H316.64L329.81 69.06C330.515 69.9799 331.424 70.724 332.465 71.234C333.506 71.7441 334.651 72.0062 335.81 72H341.29C341.427 71.9924 341.559 71.9476 341.672 71.8703C341.785 71.793 341.875 71.6862 341.931 71.5615C341.988 71.4368 342.009 71.299 341.993 71.163C341.977 71.027 341.924 70.898 341.84 70.79Z" fill="black"/>
<path d="M222.17 18H188.67C188.405 18 188.15 18.1054 187.963 18.2929C187.775 18.4804 187.67 18.7348 187.67 19C187.67 20.944 188.442 22.8085 189.817 24.1831C191.192 25.5577 193.056 26.33 195 26.33H222.17C222.269 26.3313 222.367 26.3129 222.459 26.2757C222.55 26.2384 222.633 26.1832 222.703 26.1133C222.773 26.0434 222.828 25.9602 222.866 25.8686C222.903 25.777 222.921 25.6789 222.92 25.58V18.75C222.92 18.5511 222.841 18.3603 222.7 18.2197C222.56 18.079 222.369 18 222.17 18ZM222.17 63.67H197.17C196.972 63.6674 196.783 63.5876 196.643 63.4475C196.502 63.3074 196.423 63.1181 196.42 62.92V49.38C196.42 49.1811 196.499 48.9903 196.64 48.8497C196.78 48.709 196.971 48.63 197.17 48.63H220.28C220.479 48.63 220.67 48.551 220.81 48.4103C220.951 48.2697 221.03 48.0789 221.03 47.88V41C221.03 40.8011 220.951 40.6103 220.81 40.4697C220.67 40.329 220.479 40.25 220.28 40.25H188.79C188.492 40.2526 188.207 40.3729 187.997 40.5845C187.788 40.7961 187.67 41.082 187.67 41.38V70.84C187.67 71.137 187.788 71.4219 187.998 71.632C188.208 71.842 188.493 71.96 188.79 71.96H222.17C222.369 71.96 222.56 71.881 222.7 71.7403C222.841 71.5997 222.92 71.4089 222.92 71.21V64.38C222.912 64.1872 222.829 64.0052 222.689 63.8725C222.549 63.7399 222.363 63.6672 222.17 63.67Z" fill="black"/>
<path d="M72.24 4.57L53.42 32.5C53.115 32.9031 52.974 33.4068 53.0253 33.9096C53.0767 34.4125 53.3165 34.8773 53.6966 35.2105C54.0767 35.5438 54.5689 35.7207 55.0741 35.7057C55.5794 35.6908 56.0603 35.4851 56.42 35.13L74.94 19.13C75.0468 19.0321 75.1799 18.9677 75.323 18.9447C75.466 18.9218 75.6127 18.9414 75.7447 19.001C75.8768 19.0606 75.9884 19.1577 76.0658 19.2802C76.1431 19.4027 76.1829 19.5452 76.18 19.69V69.98C76.1785 70.1327 76.1304 70.2813 76.0422 70.4059C75.954 70.5305 75.8298 70.6253 75.6863 70.6775C75.5428 70.7296 75.3868 70.7368 75.2392 70.6979C75.0915 70.6591 74.9592 70.5761 74.86 70.46L18.86 3.46C17.966 2.38438 16.8475 1.51732 15.583 0.919625C14.3185 0.321925 12.9386 0.00805094 11.54 4.60669e-06H9.59C7.04657 4.60669e-06 4.60732 1.01038 2.80885 2.80885C1.01037 4.60732 0 7.04658 0 9.59V80.41C0 82.9534 1.01037 85.3927 2.80885 87.1912C4.60732 88.9896 7.04657 90 9.59 90V90C11.2288 89.9998 12.8402 89.5796 14.2705 88.7796C15.7008 87.9796 16.9021 86.8264 17.76 85.43L36.58 57.5C36.885 57.0969 37.026 56.5932 36.9747 56.0904C36.9233 55.5875 36.6835 55.1227 36.3034 54.7895C35.9233 54.4563 35.4311 54.2793 34.9259 54.2943C34.4206 54.3092 33.9397 54.5149 33.58 54.87L15.06 70.87C14.9532 70.9679 14.8201 71.0323 14.677 71.0553C14.534 71.0782 14.3873 71.0587 14.2553 70.999C14.1232 70.9394 14.0116 70.8423 13.9342 70.7198C13.8569 70.5974 13.8171 70.4549 13.82 70.31V20.07C13.8215 19.9173 13.8696 19.7687 13.9578 19.6441C14.046 19.5195 14.1702 19.4247 14.3137 19.3726C14.4572 19.3204 14.6132 19.3132 14.7608 19.3521C14.9085 19.3909 15.0408 19.474 15.14 19.59L71.14 86.59C72.0408 87.6559 73.1634 88.5124 74.4294 89.0997C75.6955 89.6869 77.0744 89.9908 78.47 89.99H80.47C81.7294 89.99 82.9764 89.742 84.1399 89.26C85.3034 88.7781 86.3606 88.0717 87.2512 87.1812C88.1417 86.2906 88.8481 85.2335 89.33 84.0699C89.8119 82.9064 90.06 81.6594 90.06 80.4V9.59C90.06 8.32556 89.81 7.0736 89.3243 5.90616C88.8386 4.73872 88.1269 3.67885 87.23 2.78755C86.3331 1.89625 85.2688 1.19111 84.0984 0.712708C82.9279 0.234309 81.6744 -0.00790639 80.41 4.60669e-06V4.60669e-06C78.7712 0.000201215 77.1598 0.420366 75.7295 1.2204C74.2992 2.02044 73.0979 3.17365 72.24 4.57Z" fill="black"/>
</svg>
