<?xml version="1.0" encoding="UTF-8"?>
<svg width="319px" height="96px" viewBox="0 0 319 96" version="1.1" xmlns="http://www.w3.org/2000/svg" xmlns:xlink="http://www.w3.org/1999/xlink">
    <!-- Generator: Sketch 52 (66869) - http://www.bohemiancoding.com/sketch -->
    <title>oasis-logo-blue</title>
    <desc>Created with Sketch.</desc>
    <g id="Page-1" stroke="none" stroke-width="1" fill="none" fill-rule="evenodd">
        <g id="oasis-logo-blue" fill="#0092F6" fill-rule="nonzero">
            <path d="M0,47.5 C0,60.1861702 8.91269983,70 21.3450646,70 C33.7774292,70 42.7468978,60.1861702 42.7468978,47.5 C42.7468978,34.8138297 33.7774292,25 21.3450646,25 C8.91269983,25 0,34.8138297 0,47.5 Z M8.11793679,47.5 C8.11793679,39.5412235 13.6245093,33.4375 21.3450646,33.4375 C29.1223885,33.4375 34.5721923,39.5412235 34.5721923,47.5 C34.5721923,55.4587765 29.1223885,61.5625 21.3450646,61.5625 C13.6245093,61.5625 8.11793679,55.4587765 8.11793679,47.5 Z M79.2225545,69.3417552 L87.4540289,69.3417552 L73.9430571,25.6582447 L65.5980452,25.6582447 L51.9735361,69.3417552 L60.0347039,69.3417552 L61.9648428,63.118351 L77.2924156,63.118351 L79.2225545,69.3417552 Z M64.5194382,54.8603722 L69.6286293,38.2845745 L74.7378202,54.8603722 L64.5194382,54.8603722 Z M120.012639,38.4042552 L128.130576,38.4042552 C128.130576,30.4454787 121.82924,25 113.313922,25 C104.628297,25 98.6108058,30.8045212 98.6108058,38.7632977 C98.6108058,44.3284575 101.562783,48.6968085 107.012587,50.3125 C110.620559,51.3656915 114.879816,51.1030437 117.561515,52.0418145 L117.741888,52.1077127 C119.388182,52.706117 120.693865,54.0824467 120.693865,56.2367022 C120.693865,59.4082447 118.139269,61.8617022 113.768072,61.8617022 C109.510413,61.8617022 106.331361,59.5279255 106.331361,56.0571807 L98.2701931,56.0571807 C98.2701931,64.3151595 104.855372,70 113.654535,70 C122.737541,70 128.755033,64.0159575 128.755033,55.7579787 C128.755033,49.893617 125.519212,45.6449467 120.239714,43.969415 C116.265899,42.712766 112.235315,43.2513297 109.567182,42.2340425 C107.807349,41.5757977 106.671974,40.199468 106.671974,38.344415 C106.671974,35.412234 109.1698,33.1382977 113.200384,33.1382977 C117.1742,33.1382977 119.899101,35.2327127 120.012639,38.4042552 Z M143.034093,69.3417552 L151.15203,69.3417552 L151.15203,25.6582447 L143.034093,25.6582447 L143.034093,69.3417552 Z M187.343842,38.4042552 L195.461779,38.4042552 C195.461779,30.4454787 189.160444,25 180.645125,25 C171.959501,25 165.942009,30.8045212 165.942009,38.7632977 C165.942009,44.3284575 168.893986,48.6968085 174.34379,50.3125 C177.951762,51.3656915 182.211019,51.1030437 184.892718,52.0418145 L185.073091,52.1077127 C186.719386,52.706117 188.025068,54.0824467 188.025068,56.2367022 C188.025068,59.4082447 185.470472,61.8617022 181.099276,61.8617022 C176.841616,61.8617022 173.662564,59.5279255 173.662564,56.0571807 L165.601396,56.0571807 C165.601396,64.3151595 172.186576,70 180.985738,70 C190.068744,70 196.086236,64.0159575 196.086236,55.7579787 C196.086236,49.893617 192.850415,45.6449467 187.570917,43.969415 C183.597102,42.712766 179.566518,43.2513297 176.898385,42.2340425 C175.138553,41.5757977 174.003177,40.199468 174.003177,38.344415 C174.003177,35.412234 176.501004,33.1382977 180.531588,33.1382977 C184.505403,33.1382977 187.230305,35.2327127 187.343842,38.4042552 Z" id="OASISFOUNDATION"></path>
            <path d="M309.259865,19.0146667 C301.993097,9.71733332 291.326282,3.83333333 279.530118,3.83333333 C256.716468,3.83333333 240.02557,25.0333333 240.02557,48 C240.02557,64.0106668 250.651052,75.9920001 262.471216,75.9920001 C263.575231,75.9920001 264.671245,75.8919999 265.751261,75.6933332 C257.835151,69.9200001 252.769747,59.4039999 252.769747,48 C252.769747,29.8413332 265.053917,15.6906667 279.530118,15.6906667 C295.318339,15.6906667 306.297156,31.3693334 306.297156,48 C306.255823,60.2826667 301.877096,72.4946668 294.171656,81.5053334 C287.446227,89.3706667 278.73544,94.3586668 269.157975,95.9413334 C269.157975,95.9413334 269.956652,96 271.000667,96 C297.510367,96 319,74.5093334 319,48 C319,37.1093333 315.370616,27.0680001 309.259865,19.0146667 Z M301.97443,48 C301.97443,31.9880001 291.348948,20.0066667 279.530118,20.0066667 C278.424769,20.0066667 277.330088,20.1066667 276.248739,20.3066667 C284.166183,26.0799999 289.230253,36.5960001 289.230253,48 C289.230253,66.1586668 276.947415,80.3093333 262.471216,80.3093333 C246.681661,80.3093333 235.704178,64.6306666 235.704178,48 C235.744177,35.7173333 240.124237,23.5053333 247.828344,14.4946667 C254.555104,6.62933333 263.265891,1.64133333 272.842025,0.0586666666 C272.842025,0.0586666666 272.044682,0 271.000667,0 C244.490964,0 223,21.4906667 223,48 C223,58.8893333 226.629384,68.9306668 232.741469,76.9866667 C240.006903,86.2813334 250.675052,92.1666667 262.471216,92.1666667 C285.284866,92.1666667 301.97443,70.9666666 301.97443,48 Z" id="Fill-1"></path>
        </g>
    </g>
</svg>