<svg width="196" height="50" viewBox="0 0 196 50" fill="none" xmlns="http://www.w3.org/2000/svg">
<g id="skale-logo-lg" clip-path="url(#clip0)">
<path id="Combined Shape" fill-rule="evenodd" clip-rule="evenodd" d="M46.6758 -6.10352e-05V5.63871H5.68611V44.3128H46.644V49.92H46.1465H41.7494H41.5277C27.8604 49.92 14.1931 49.92 0.525893 49.9193C0.405941 49.9193 0.285988 49.9146 0.166035 49.91C0.11069 49.9078 0.0553451 49.9057 0 49.904V-6.10352e-05H46.6758ZM121.122 27.5633L121.12 27.5903C121.12 27.6001 121.12 27.6102 121.12 27.6207H113.744C113.819 27.2886 113.893 26.9591 113.966 26.6314L113.966 26.6298C114.129 25.9068 114.289 25.193 114.452 24.4798C114.701 23.3949 114.95 22.31 115.199 21.2252C115.803 18.5943 116.407 15.9634 117.004 13.3309C117.067 13.0517 117.15 12.9156 117.464 12.9304C117.723 12.9426 117.851 12.988 117.916 13.2776C118.719 16.8652 119.53 20.4509 120.342 24.0365C120.601 25.1807 120.86 26.3249 121.119 27.4692C121.125 27.4978 121.123 27.5283 121.122 27.5633ZM123.933 39.8098H129.791C129.781 39.7564 129.772 39.7102 129.765 39.6688L129.765 39.6679L129.764 39.6676L129.764 39.6654L129.757 39.6251L129.748 39.5799C129.741 39.5416 129.733 39.5067 129.725 39.4721L128.45 34.1161C126.584 26.2741 124.717 18.432 122.859 10.5882C122.77 10.2146 122.638 10.0785 122.23 10.0812C119.859 10.0969 117.487 10.0952 115.116 10.0935C114.373 10.0929 113.63 10.0924 112.888 10.0924C112.204 10.0924 112.203 10.0932 112.042 10.7725L112.039 10.7819C111.069 14.8516 110.099 18.9212 109.129 22.9909L109.114 23.051L109.073 23.2239C108.026 27.6164 106.978 32.0089 105.931 36.4015C105.749 37.1663 105.57 37.9318 105.389 38.705L105.385 38.7206L105.376 38.7593C105.294 39.1075 105.213 39.4572 105.13 39.8092H110.984L110.997 39.7611L111.018 39.684C111.043 39.597 111.066 39.5138 111.085 39.4298C111.19 38.9652 111.296 38.5007 111.402 38.0361C111.725 36.6174 112.048 35.1987 112.352 33.7758C112.439 33.3691 112.595 33.2412 113.012 33.2441C115.088 33.2585 117.164 33.2567 119.24 33.255C119.911 33.2544 120.582 33.2539 121.253 33.2538C122.435 33.2538 122.435 33.2539 122.71 34.4327L122.71 34.4331C122.72 34.4764 122.731 34.5195 122.741 34.5627L122.76 34.6371C122.766 34.6622 122.772 34.6873 122.777 34.7125C123.019 35.7793 123.261 36.8462 123.503 37.9157L123.503 37.9158L123.933 39.8098ZM176.716 39.8272H196V34.5489C195.936 34.5404 195.871 34.5295 195.807 34.5187C195.669 34.4954 195.532 34.4722 195.394 34.472C191.944 34.4683 188.494 34.4684 185.043 34.4686L182.942 34.4687H182.332V15.467H182.879L185.215 15.467C188.587 15.4671 191.959 15.4671 195.331 15.4663C195.483 15.4663 195.636 15.4617 195.789 15.457C195.859 15.4548 195.93 15.4527 196 15.451V10.1727C195.941 10.1642 195.882 10.1533 195.823 10.1425C195.696 10.1192 195.569 10.0959 195.442 10.0958C189.372 10.0918 183.303 10.0923 177.234 10.0934C177.121 10.0935 177.008 10.1002 176.891 10.1072C176.833 10.1106 176.775 10.1141 176.716 10.1168V39.8272ZM163.641 39.8015H144.613V10.118H150.174V34.444H163.641V39.8015ZM91.8426 39.8272H95.1206C95.0998 39.793 95.0823 39.7638 95.0672 39.7386L95.0417 39.6957C95.0096 39.6419 94.99 39.609 94.9686 39.5773L93.8266 37.8965L93.7886 37.8406C91.0578 33.8211 88.327 29.8018 85.5947 25.7833C85.181 25.1749 85.1728 24.793 85.5754 24.1681C88.4901 19.6426 91.4047 15.1171 94.3182 10.5909C94.3729 10.506 94.4219 10.4173 94.4762 10.319L94.4762 10.319L94.4763 10.3189L94.4781 10.3155L94.4783 10.3152C94.5046 10.2676 94.5321 10.2178 94.5622 10.1651C94.522 10.1582 94.4885 10.1513 94.4593 10.1452C94.4074 10.1345 94.3691 10.1266 94.3308 10.1265L93.3668 10.1254C91.7074 10.1231 90.0479 10.1209 88.3887 10.1378C88.2263 10.1394 88.0073 10.2905 87.9129 10.4361C85.421 14.2837 82.9396 18.1383 80.468 21.9992C80.3479 22.1867 80.2793 22.4408 80.2769 22.6649C80.2606 24.2002 80.2606 25.7359 80.277 27.2712C80.2795 27.4955 80.3474 27.7518 80.4698 27.9371C83.0236 31.802 85.5864 35.6609 88.164 39.5099C88.271 39.6699 88.5338 39.8076 88.7281 39.8132C89.4992 39.8352 90.2711 39.8322 91.043 39.8293C91.3096 39.8282 91.5761 39.8272 91.8426 39.8272ZM70.7267 39.8144H76.2732V10.1594H70.7267V39.8144ZM191.653 27.6168H186.332V22.3188H191.653V27.6168ZM40.3892 29.887C40.3674 29.7004 40.3454 29.5116 40.318 29.3208H34.7751C34.7751 29.3884 34.7741 29.4524 34.7732 29.514C34.7713 29.6424 34.7695 29.7603 34.7769 29.8776C34.7855 30.0148 34.7923 30.1523 34.799 30.2899C34.8173 30.6636 34.8357 31.0376 34.891 31.4059C35.4061 34.8387 37.097 37.4799 40.2365 39.0511C43.414 40.6411 46.7795 40.7538 50.1892 40.0365C52.616 39.5261 54.6587 38.3483 56.0606 36.2267C57.2422 34.4385 57.4868 32.4301 57.4074 30.3473C57.2963 27.4357 56.0265 25.2592 53.4129 23.8915C51.4933 22.887 49.4318 22.3692 47.3233 21.9747C45.9112 21.7105 44.5063 21.4022 43.2189 20.7238C42.4468 20.3171 41.8243 19.7739 41.5884 18.8817C41.1494 17.2202 41.9397 15.777 43.6937 15.1721C45.2176 14.6465 46.7739 14.6371 48.3 15.1613C49.7343 15.6539 50.6936 16.6535 51.1336 18.1174C51.2045 18.3536 51.2407 18.6003 51.2765 18.844C51.2929 18.9553 51.3092 19.0661 51.3286 19.1749H56.9074C56.8996 19.0561 56.8919 18.9408 56.8844 18.8279C56.8676 18.576 56.8517 18.336 56.8368 18.0959C56.6491 15.0549 55.2479 12.6744 52.6334 11.1981C48.6932 8.9733 44.5422 8.86284 40.4502 10.7506C37.6199 12.0564 35.9904 14.381 35.794 17.5538C35.5773 21.0571 36.7165 23.7592 40.2096 25.4922C41.9857 26.3734 43.899 26.8046 45.8327 27.1561C47.249 27.4137 48.6545 27.7059 49.9228 28.4302C50.6165 28.8264 51.1903 29.3443 51.4751 30.1245C52.1357 31.935 51.331 33.8769 49.5475 34.6293C47.8474 35.3466 46.082 35.2761 44.3277 34.8614C42.2974 34.3815 41.0783 33.051 40.5762 31.0547C40.4812 30.6772 40.4358 30.2872 40.3892 29.887Z" fill="black"/>
</g>
<defs>
<clipPath id="clip0">
<rect width="196" height="50" fill="white"/>
</clipPath>
</defs>
</svg>
