<svg xmlns="http://www.w3.org/2000/svg" xmlns:xlink="http://www.w3.org/1999/xlink" width="129" height="32" viewBox="0 0 129 32">
    <defs>
        <path id="a" d="M0 .299h10.354v20.989H0z"/>
    </defs>
    <g fill="none" fill-rule="evenodd">
        <path fill="#2845AE" d="M92.646 9.576c-.138-.01-.421-.039-1.022-.039-.523 0-1.009.049-1.46.143-1.882.366-3.085 1.388-4.123 2.471v-2.143h-5.897v19.107h5.897v-7.98c0-.944.052-1.81.157-2.595.105-.787.334-1.461.688-2.025.354-.564.858-1.003 1.514-1.317.655-.314 1.546-.472 2.673-.472a8.08 8.08 0 0 1 2.516.393V9.733a5.069 5.069 0 0 0-.943-.157M108.42 9.576c-.137-.01-.42-.039-1.022-.039-.523 0-1.008.049-1.46.143-1.882.366-3.084 1.388-4.123 2.471v-2.143h-5.897v19.107h5.897v-7.98c0-.944.053-1.81.158-2.595.104-.787.334-1.461.688-2.025.354-.564.858-1.003 1.513-1.317.655-.314 1.547-.472 2.674-.472a8.08 8.08 0 0 1 2.516.393V9.733a5.069 5.069 0 0 0-.944-.157M46.251 9.223H38.31V3.797h22.016v5.426h-7.941v19.892H46.25zM71.903 17.4c.026-.996-.301-1.849-.982-2.556-.682-.707-1.56-1.061-2.635-1.061-.655 0-1.232.104-1.73.314-.497.21-.923.479-1.277.806-.354.328-.63.707-.826 1.14a3.744 3.744 0 0 0-.334 1.357h7.784zm4.993 8.413c-.943 1.206-2.136 2.136-3.577 2.79a10.727 10.727 0 0 1-4.482.984c-1.468 0-2.85-.236-4.148-.708-1.297-.471-2.424-1.146-3.38-2.024a9.493 9.493 0 0 1-2.261-3.165c-.55-1.232-.826-2.608-.826-4.128s.276-2.896.826-4.128a9.505 9.505 0 0 1 2.26-3.165c.957-.878 2.084-1.553 3.381-2.024a12.043 12.043 0 0 1 4.148-.708c1.362 0 2.6.236 3.715.708a7.741 7.741 0 0 1 2.83 2.024c.773.879 1.37 1.933 1.79 3.165.418 1.232.628 2.608.628 4.128v1.848H64.12c.235 1.127.746 2.024 1.532 2.693.787.668 1.756 1.002 2.91 1.002.97 0 1.788-.216 2.457-.649a6.598 6.598 0 0 0 1.75-1.67l4.127 3.027zM122.964 22.367v-.322a.97.97 0 0 0-.668-.918 9.317 9.317 0 0 0-2.94-.465c-2.417 0-3.905.943-3.905 2.685v.073c0 1.487 1.265 2.358 3.087 2.358 2.641 0 4.426-1.415 4.426-3.41m-12.98 1.27v-.074c0-4.244 3.31-6.203 8.033-6.203 2.009 0 3.46.326 4.873.798v-.327c0-2.285-1.45-3.556-4.278-3.556-2.157 0-3.682.4-5.505 1.053l-1.413-4.208c2.194-.944 4.352-1.56 7.737-1.56 3.087 0 5.319.798 6.732 2.176 1.488 1.451 2.157 3.592 2.157 6.204v11.283h-5.467V27.12c-1.377 1.487-3.274 2.467-6.026 2.467-3.757 0-6.844-2.104-6.844-5.95"/>
        <path fill="#2845AE" d="M14.457 25.83c.922 3.407 4.226 6.007 5.895 5.9.059-.004 6.33-1.173 9.763-6.91 2.672-4.463 1.762-8.773-1.872-8.867-1.307.096-15.54 3.384-13.786 9.877M27.905 3.942l-.003-.003.005-.003A15.88 15.88 0 0 0 17.57.136c-2.305 0-4.494.494-6.472 1.374-.356.15-.693.314-1.01.495-.225.12-.449.238-.666.368l.053.016a7.262 7.262 0 0 0-1.683 1.593C3.214 10.03 18.557 14.425 26.76 14.44c3.774 2.708 4.834-7.628 1.146-10.498"/>
        <path fill="#5493F7" d="M12.022 4.065C9.916 7.233 2.894 9.465 1.74 9.117l-.007-.014c.047-.096.096-.19.144-.285a16.768 16.768 0 0 1 3.048-4.161 16.881 16.881 0 0 1 3.3-2.569c.983-.569 1.99-.606 2.321-.618 3.127.06 1.494 2.57 1.477 2.595"/>
        <g transform="translate(0 10.427)">
            <mask id="b">
                <use xlink:href="#a" fill="#5493F7"/>
            </mask>
            <path fill="#5493F7" d="M10.294 16.026c.15.996-.004 4.927-.208 5.258-.175.011-.54.034-1.598-.56a16.768 16.768 0 0 1-3.564-2.722 16.883 16.883 0 0 1-3.048-4.161A16.701 16.701 0 0 1 0 6.115c0-.928.075-1.839.22-2.726a16.676 16.676 0 0 1 .814-3.09C2.247 1.91 3.65 3.369 4.842 4.996c1.135 1.55 2.697 4.077 3.014 4.617 1.974 3.351 2.288 5.42 2.439 6.413" mask="url(#b)"/>
        </g>
        <path fill="#5493F7" d="M33.618 16.542c0 2.18-.415 4.263-1.17 6.174-1.98 2.129-15.328-3.11-15.46-3.167-1.825-.8-7.383-3.234-7.884-7.059-.721-5.501 10.44-9.335 15.345-9.48.588.007 2.378.027 3.422.875a16.77 16.77 0 0 1 5.747 12.657M24.582 31.452c-1.456.679-3.057.184-2.641-1.233.799-2.721 7.777-5.512 9.318-5.663.19-.018.27.111.186.259a16.981 16.981 0 0 1-6.863 6.637"/>
    </g>
</svg>
