<svg width="28" height="24" viewBox="0 0 28 24" fill="none" xmlns="http://www.w3.org/2000/svg">
<rect width="24" height="24" fill="#FFF29B"/>
<path d="M26.8936 23.0626H25.8655V8.13461C25.8655 7.43978 25.3002 6.87451 24.6054 6.87451H22.3074C21.6126 6.87451 21.0473 7.43982 21.0473 8.13461V23.0626H18.4367V14.8982C18.4367 14.2033 17.8715 13.6381 17.1767 13.6381H14.8787C14.1838 13.6381 13.6186 14.2034 13.6186 14.8982V23.0626H11.008V18.8343C11.008 18.1395 10.4427 17.5742 9.7479 17.5742H7.44986C6.75503 17.5742 6.18976 18.1395 6.18976 18.8343V23.0626H5.1062C4.84731 23.0626 4.63745 23.2725 4.63745 23.5314C4.63745 23.7902 4.84731 24.0001 5.1062 24.0001H26.8936C27.1525 24.0001 27.3624 23.7902 27.3624 23.5314C27.3624 23.2725 27.1525 23.0626 26.8936 23.0626ZM10.0704 23.0626H7.12722V18.8343C7.12722 18.6564 7.27192 18.5117 7.44981 18.5117H9.74781C9.9257 18.5117 10.0704 18.6564 10.0704 18.8343V23.0626ZM17.4992 23.0626H14.556V14.8982C14.556 14.7203 14.7007 14.5756 14.8786 14.5756H17.1766C17.3545 14.5756 17.4992 14.7203 17.4992 14.8982V23.0626ZM24.928 23.0626H21.9848V8.13461C21.9848 7.95671 22.1295 7.81201 22.3074 7.81201H24.6054C24.7833 7.81201 24.928 7.95671 24.928 8.13461V23.0626Z" fill="black"/>
<path d="M25.8646 0.492938C25.8712 0.365016 25.8262 0.234938 25.7285 0.13725C25.6308 0.0395625 25.5007 -0.00548438 25.3728 0.001125C25.3652 0.000796875 25.3578 0 25.3501 0H22.5142C22.2553 0 22.0454 0.209859 22.0454 0.46875C22.0454 0.727641 22.2553 0.9375 22.5142 0.9375H24.2653L19.6313 5.57147L17.8838 3.82397C17.796 3.73608 17.6767 3.68667 17.5524 3.68667C17.4281 3.68667 17.3088 3.73608 17.2209 3.82397L8.79427 12.2507C8.61122 12.4337 8.61122 12.7305 8.79427 12.9136C8.88581 13.0051 9.00577 13.0508 9.12572 13.0508C9.24567 13.0508 9.36567 13.0051 9.45717 12.9135L17.5524 4.81828L19.2999 6.56578C19.4829 6.74883 19.7798 6.74883 19.9628 6.56578L24.9282 1.60045V3.1853C24.9282 3.44419 25.1381 3.65405 25.397 3.65405C25.6559 3.65405 25.8657 3.44419 25.8657 3.1853V0.515625C25.8657 0.507984 25.8649 0.500531 25.8646 0.492938Z" fill="black"/>
</svg>
