<svg width="28" height="24" viewBox="0 0 28 24" fill="none" xmlns="http://www.w3.org/2000/svg">
<rect width="24" height="24" fill="#FFF29B"/>
<path d="M17.5 17C19.3611 17 20.875 15.4858 20.875 13.625C20.875 11.7643 19.3611 10.25 17.5 10.25C15.6389 10.25 14.125 11.7643 14.125 13.625C14.125 15.4858 15.6389 17 17.5 17ZM17.5 11C18.9471 11 20.125 12.1775 20.125 13.625C20.125 15.0725 18.9471 16.25 17.5 16.25C16.0529 16.25 14.875 15.0725 14.875 13.625C14.875 12.1775 16.0529 11 17.5 11Z" fill="black"/>
<path d="M16.75 14.375H16C16 14.9952 16.5048 15.5 17.125 15.5V15.875H17.875V15.5C18.4952 15.5 19 14.9952 19 14.375C19 13.7548 18.4952 13.25 17.875 13.25V12.5C18.082 12.5 18.25 12.6684 18.25 12.875H19C19 12.2548 18.4952 11.75 17.875 11.75V11.375H17.125V11.75C16.5048 11.75 16 12.2548 16 12.875C16 13.4952 16.5048 14 17.125 14V14.75C16.918 14.75 16.75 14.5816 16.75 14.375ZM16.75 12.875C16.75 12.6684 16.918 12.5 17.125 12.5V13.25C16.918 13.25 16.75 13.0816 16.75 12.875ZM17.875 14C18.082 14 18.25 14.1684 18.25 14.375C18.25 14.5816 18.082 14.75 17.875 14.75V14Z" fill="black"/>
<path d="M27.25 9.125H26.125V8C26.125 7.793 25.9574 7.625 25.75 7.625H24.625V5.75C24.625 5.543 24.4574 5.375 24.25 5.375H4.75C4.54263 5.375 4.375 5.543 4.375 5.75V14C4.375 14.207 4.54263 14.375 4.75 14.375H5.875V16.25C5.875 16.457 6.04262 16.625 6.25 16.625H7.375V17.75C7.375 17.957 7.54262 18.125 7.75 18.125H27.25C27.4574 18.125 27.625 17.957 27.625 17.75V9.5C27.625 9.293 27.4574 9.125 27.25 9.125ZM5.875 8V13.625H5.125V6.125H23.875V7.625H6.25C6.04262 7.625 5.875 7.793 5.875 8ZM7.375 9.5V15.875H6.625V8.375H25.375V9.125H7.75C7.54262 9.125 7.375 9.293 7.375 9.5ZM26.875 17.375H8.125V9.875H26.875V17.375Z" fill="black"/>
</svg>
