<svg width="24" height="24" viewBox="0 0 24 24" fill="none" xmlns="http://www.w3.org/2000/svg">
<rect width="24" height="24" rx="2" fill="#F1F1F1"/>
<path fill-rule="evenodd" clip-rule="evenodd" d="M10 12.6667V12C10 10.8973 10.8973 10 12 10H12.6667V7.778C12.6667 7.53267 12.4673 7.33333 12.222 7.33333H7.778C7.53267 7.33333 7.33333 7.53267 7.33333 7.778V12.222C7.33333 12.4673 7.53267 12.6667 7.778 12.6667H10ZM10 14H7.778C6.79733 14 6 13.2027 6 12.222V7.778C6 6.79733 6.79733 6 7.778 6H12.222C13.2027 6 14 6.79733 14 7.778V10H16C17.1027 10 18 10.8973 18 12V16C18 17.1027 17.1027 18 16 18H12C10.8973 18 10 17.1027 10 16V14ZM11.3333 12C11.3333 11.6327 11.6327 11.3333 12 11.3333H16C16.368 11.3333 16.6667 11.6327 16.6667 12V16C16.6667 16.3673 16.368 16.6667 16 16.6667H12C11.6327 16.6667 11.3333 16.3673 11.3333 16V12Z" fill="black"/>
</svg>
