<svg width="16" height="16" viewBox="0 0 16 16" fill="none" xmlns="http://www.w3.org/2000/svg">
<path d="M5.33333 8H11.84L10.1733 6.33333L11.1133 5.38667L14.3933 8.66667L11.1133 11.9467L10.1733 11L11.84 9.33333H5.33333V8ZM12.6667 2C13.0203 2 13.3594 2.14048 13.6095 2.39052C13.8595 2.64057 14 2.97971 14 3.33333V6.44667L12.6667 5.11333V4.66667H3.33333V12.6667H12.6667V12.22L14 10.8867V12.6667C14 13.0203 13.8595 13.3594 13.6095 13.6095C13.3594 13.8595 13.0203 14 12.6667 14H3.33333C2.97971 14 2.64057 13.8595 2.39052 13.6095C2.14048 13.3594 2 13.0203 2 12.6667V3.33333C2 2.97971 2.14048 2.64057 2.39052 2.39052C2.64057 2.14048 2.97971 2 3.33333 2H12.6667Z" fill="white"/>
</svg>
