<svg width="24" height="24" viewBox="0 0 24 24" fill="none" xmlns="http://www.w3.org/2000/svg">
<path fill-rule="evenodd" clip-rule="evenodd" d="M12.715 2.30047L20.424 10.1845C20.79 10.5605 21 11.0845 21 11.6235V19.9995C21 21.1025 20.153 21.9995 19.112 21.9995H16V12.9995C16 12.4475 15.553 11.9995 15 11.9995H9C8.447 11.9995 8 12.4475 8 12.9995V21.9995H4.889C3.848 21.9995 3 21.1025 3 19.9995V11.6235C3 11.0845 3.21 10.5605 3.575 10.1855L11.285 2.30047C11.662 1.91547 12.338 1.91547 12.715 2.30047ZM14.0002 20.9999H10.0002V13.9999H14.0002V20.9999Z" fill="#231F20"/>
<mask id="mask0" mask-type="alpha" maskUnits="userSpaceOnUse" x="3" y="2" width="18" height="20">
<path fill-rule="evenodd" clip-rule="evenodd" d="M12.715 2.30047L20.424 10.1845C20.79 10.5605 21 11.0845 21 11.6235V19.9995C21 21.1025 20.153 21.9995 19.112 21.9995H16V12.9995C16 12.4475 15.553 11.9995 15 11.9995H9C8.447 11.9995 8 12.4475 8 12.9995V21.9995H4.889C3.848 21.9995 3 21.1025 3 19.9995V11.6235C3 11.0845 3.21 10.5605 3.575 10.1855L11.285 2.30047C11.662 1.91547 12.338 1.91547 12.715 2.30047ZM14.0002 20.9999H10.0002V13.9999H14.0002V20.9999Z" fill="white"/>
</mask>
<g mask="url(#mask0)">
<rect width="24" height="24" fill="#FFF29B"/>
</g>
</svg>
