<svg width="24" height="24" viewBox="0 0 24 24" fill="none" xmlns="http://www.w3.org/2000/svg">
<circle cx="12" cy="12" r="8" fill="#F1F1F1"/>
<path d="M12 11C11.7878 11 11.5843 11.079 11.4343 11.2197C11.2843 11.3603 11.2 11.5511 11.2 11.75V15.75C11.2 15.9489 11.2843 16.1397 11.4343 16.2803C11.5843 16.421 11.7878 16.5 12 16.5C12.2122 16.5 12.4157 16.421 12.5657 16.2803C12.7157 16.1397 12.8 15.9489 12.8 15.75V11.75C12.8 11.5511 12.7157 11.3603 12.5657 11.2197C12.4157 11.079 12.2122 11 12 11ZM12 8C11.8022 8 11.6089 8.05498 11.4444 8.158C11.28 8.26101 11.1518 8.40743 11.0761 8.57873C11.0004 8.75004 10.9806 8.93854 11.0192 9.1204C11.0578 9.30225 11.153 9.4693 11.2929 9.60041C11.4327 9.73152 11.6109 9.82081 11.8049 9.85699C11.9989 9.89316 12.2 9.87459 12.3827 9.80364C12.5654 9.73268 12.7216 9.61252 12.8315 9.45835C12.9414 9.30418 13 9.12292 13 8.9375C13 8.68886 12.8946 8.4504 12.7071 8.27459C12.5196 8.09877 12.2652 8 12 8Z" fill="#212529"/>
</svg>
