<svg width="28" height="24" viewBox="0 0 28 24" fill="none" xmlns="http://www.w3.org/2000/svg">
<rect width="24" height="24" fill="#FFF29B"/>
<g clip-path="url(#clip0)">
<path d="M9.31685 11.6121H12.4833C13.0408 11.6121 13.4945 11.1531 13.4945 10.5888V7.0465C13.4945 6.48243 13.0408 6.02344 12.4833 6.02344H9.31685C8.75933 6.02344 8.30566 6.48243 8.30566 7.0465V10.5888C8.30566 11.1531 8.75933 11.6121 9.31685 11.6121ZM9.06787 7.0465C9.06787 6.91 9.18175 6.7946 9.31685 6.7946H12.4833C12.6184 6.7946 12.7323 6.91 12.7323 7.0465V10.5888C12.7323 10.7255 12.6184 10.8409 12.4833 10.8409H9.31685C9.18175 10.8409 9.06787 10.7255 9.06787 10.5888V7.0465Z" fill="black"/>
<path d="M14.8022 6.97111H19.045C19.2556 6.97111 19.4261 6.79845 19.4261 6.58553C19.4261 6.37261 19.2556 6.19995 19.045 6.19995H14.8022C14.5916 6.19995 14.4211 6.37261 14.4211 6.58553C14.4211 6.79845 14.5916 6.97111 14.8022 6.97111Z" fill="black"/>
<path d="M14.8022 9.29167H19.045C19.2556 9.29167 19.4261 9.11901 19.4261 8.90609C19.4261 8.69317 19.2556 8.52051 19.045 8.52051H14.8022C14.5916 8.52051 14.4211 8.69317 14.4211 8.90609C14.4211 9.11901 14.5916 9.29167 14.8022 9.29167Z" fill="black"/>
<path fill-rule="evenodd" clip-rule="evenodd" d="M23.4234 19.1277L23.9931 18.6133C24.8719 17.699 25.3801 16.5068 25.4208 15.2234C25.4643 13.8594 24.9801 12.5603 24.0575 11.5651C23.287 10.7342 22.3034 10.2281 21.2718 10.0407V3.81192C21.2718 3.16823 20.7541 2.64466 20.1181 2.64466H19.3108V1.89798C19.3108 1.25429 18.7931 0.730713 18.1571 0.730713H5.53482C4.89879 0.730674 4.3811 1.25425 4.3811 1.89798V18.4668C4.3811 19.1105 4.89879 19.6341 5.53482 19.6341H6.34207V20.3821C6.34207 21.025 6.85976 21.548 7.49579 21.548H20.118C20.754 21.548 21.2717 21.025 21.2717 20.3821V20.0858C22.0526 19.9448 22.7862 19.6179 23.4234 19.1277ZM5.14331 18.4668C5.14331 18.6852 5.31896 18.8629 5.53482 18.8629L6.34211 18.8629V3.81188C6.34211 3.1682 6.8598 2.64462 7.49583 2.64462H18.5485V1.89794C18.5485 1.67955 18.3729 1.50183 18.157 1.50183H5.53482C5.31896 1.50183 5.14331 1.67959 5.14331 1.89798V18.4668ZM20.118 20.7769C20.3339 20.7769 20.5095 20.5997 20.5095 20.3821C20.5095 20.3086 20.5095 20.2351 20.5096 20.1617C20.4918 20.1621 20.4741 20.1626 20.4565 20.1631C20.3749 20.1655 20.295 20.1677 20.2126 20.1652C18.8737 20.1217 17.6322 19.5559 16.7114 18.5732H8.68677C8.47614 18.5732 8.30567 18.4005 8.30567 18.1876C8.30567 17.9747 8.47614 17.802 8.68677 17.802H16.1185C15.8136 17.3179 15.6002 16.7934 15.4723 16.2529H8.68677C8.47614 16.2529 8.30567 16.0803 8.30567 15.8674C8.30567 15.6544 8.47614 15.4818 8.68677 15.4818H15.3517C15.3093 14.9634 15.3432 14.441 15.4559 13.9325H8.68674C8.4761 13.9325 8.30563 13.7598 8.30563 13.5469C8.30563 13.334 8.4761 13.1613 8.68674 13.1613H15.6891C15.9091 12.6022 16.2315 12.0768 16.6526 11.612H14.8023C14.5916 11.612 14.4212 11.4394 14.4212 11.2264C14.4212 11.0135 14.5916 10.8409 14.8023 10.8409H17.5381C18.4324 10.2252 19.474 9.92876 20.5095 9.95695V3.81192C20.5095 3.59353 20.3339 3.41582 20.118 3.41582H7.49583C7.27997 3.41582 7.10432 3.59353 7.10432 3.81192V20.3821C7.10432 20.5997 7.27997 20.7769 7.49583 20.7769H20.118ZM17.2478 18.0264C18.0309 18.8714 19.0927 19.3571 20.2371 19.3944C21.3871 19.4296 22.472 19.0158 23.3068 18.2232C25.031 16.5871 25.1185 13.837 23.5014 12.0927C22.7184 11.2477 21.6565 10.762 20.5121 10.7247C20.4649 10.7232 20.4179 10.7224 20.3711 10.7224C19.2784 10.7224 18.243 11.1361 17.4421 11.8959C15.7182 13.532 15.6307 16.2821 17.2478 18.0264Z" fill="black"/>
<path fill-rule="evenodd" clip-rule="evenodd" d="M27.88 21.9483L25.6276 19.0335C25.5271 18.9032 25.3823 18.8204 25.2197 18.8002C25.0564 18.7801 24.8963 18.8249 24.7679 18.9267L24.4377 19.1881L23.9931 18.6133L23.4234 19.1277L23.8375 19.6631L23.5062 19.9253C23.2409 20.1352 23.1932 20.5246 23.4009 20.7938L25.6548 23.7092C25.7753 23.8647 25.9555 23.9462 26.1375 23.946C26.2688 23.946 26.4017 23.9033 26.513 23.8152L27.7743 22.8167C28.0401 22.6069 28.0877 22.2174 27.88 21.9483ZM24.0943 20.4389L26.162 23.1137L27.1866 22.303L25.1192 19.6277L24.0943 20.4389Z" fill="black"/>
</g>
<defs>
<clipPath id="clip0">
<rect width="24" height="24" fill="white" transform="translate(4)"/>
</clipPath>
</defs>
</svg>
