<svg width="28" height="24" viewBox="0 0 28 24" fill="none" xmlns="http://www.w3.org/2000/svg">
<rect width="24" height="24" fill="#FFF29B"/>
<g clip-path="url(#clip0)">
<path d="M24.7755 4.21769C22.6966 2.13878 19.9313 0.993164 16.9932 0.993164C14.0007 0.993164 11.2009 2.17335 9.11208 4.31645C8.88493 4.54854 8.88987 4.92383 9.12196 5.15591C9.35405 5.38306 9.72933 5.37812 9.96142 5.14604C11.828 3.23502 14.3217 2.18323 16.9932 2.18323C22.4102 2.17829 26.8149 6.583 26.8149 12C26.8149 17.417 22.4102 21.8217 16.9932 21.8217C11.5762 21.8217 7.17144 17.417 7.17144 12V11.8766L8.14917 12.8543C8.26274 12.9679 8.41582 13.0271 8.5689 13.0271C8.72198 13.0271 8.87012 12.9679 8.98863 12.8543C9.22072 12.6222 9.22072 12.2469 8.98863 12.0148L7.00355 10.0248C6.77146 9.79271 6.39617 9.79271 6.16409 10.0248L4.17407 12.0148C3.94198 12.2469 3.94198 12.6222 4.17407 12.8543C4.40615 13.0864 4.78144 13.0864 5.01353 12.8543L5.99126 11.8766V12C5.99126 14.9381 7.13688 17.7034 9.21578 19.7823C11.2947 21.8612 14.06 23.0068 16.9981 23.0068C19.9362 23.0068 22.7015 21.8612 24.7804 19.7823C26.8593 17.7034 28 14.9381 28 12C28 9.06188 26.8544 6.29659 24.7755 4.21769Z" fill="black"/>
<path d="M20.1436 7.99524L12.865 15.2689C12.6329 15.501 12.6329 15.8763 12.865 16.1084C12.9786 16.222 13.1316 16.2812 13.2847 16.2812C13.4378 16.2812 13.5859 16.222 13.7044 16.1084L20.9831 8.82977C21.2152 8.59768 21.2152 8.22239 20.9831 7.99031C20.751 7.76316 20.3757 7.76316 20.1436 7.99524Z" fill="black"/>
<path d="M18.2375 12.8939C17.4129 13.7186 17.4129 15.0666 18.2375 15.8913C18.6375 16.2913 19.1708 16.5135 19.7387 16.5135C20.3065 16.5135 20.8398 16.2913 21.2398 15.8913C22.0645 15.0666 22.0645 13.7186 21.2398 12.8939C20.8398 12.4939 20.3065 12.2717 19.7387 12.2717C19.1708 12.2717 18.6424 12.4939 18.2375 12.8939ZM20.4004 15.0568C20.2226 15.2345 19.9905 15.3284 19.7387 15.3284C19.4868 15.3284 19.2547 15.2296 19.077 15.0568C18.7116 14.6914 18.7116 14.0988 19.077 13.7334C19.2547 13.5556 19.4868 13.4618 19.7387 13.4618C19.9905 13.4618 20.2226 13.5606 20.4004 13.7334C20.7658 14.0988 20.7658 14.6914 20.4004 15.0568Z" fill="black"/>
<path d="M14.2673 7.4668C13.6995 7.4668 13.1662 7.68901 12.7662 8.08899C12.3662 8.48897 12.144 9.02227 12.144 9.59014C12.144 10.158 12.3662 10.6913 12.7662 11.0913C13.1662 11.4913 13.6995 11.7135 14.2673 11.7135C14.8352 11.7135 15.3685 11.4913 15.7685 11.0913C16.1685 10.6913 16.3907 10.158 16.3907 9.59014C16.3907 9.02227 16.1685 8.48897 15.7685 8.08899C15.3636 7.68901 14.8352 7.4668 14.2673 7.4668ZM14.929 10.2518C14.7513 10.4296 14.5192 10.5234 14.2673 10.5234C14.0155 10.5234 13.7834 10.4247 13.6056 10.2518C13.4279 10.0741 13.334 9.84198 13.334 9.59014C13.334 9.33831 13.4328 9.10622 13.6056 8.92845C13.7834 8.75068 14.0155 8.65686 14.2673 8.65686C14.5192 8.65686 14.7513 8.75562 14.929 8.92845C15.1068 9.10622 15.2006 9.33831 15.2006 9.59014C15.2006 9.83704 15.1068 10.0741 14.929 10.2518Z" fill="black"/>
</g>
<defs>
<clipPath id="clip0">
<rect width="24" height="24" fill="white" transform="translate(4)"/>
</clipPath>
</defs>
</svg>
