<svg width="16" height="16" viewBox="0 0 16 16" fill="none" xmlns="http://www.w3.org/2000/svg">
<path d="M8.00065 1.33301C6.68211 1.33301 5.39318 1.724 4.29685 2.45654C3.20052 3.18909 2.34604 4.23028 1.84146 5.44845C1.33687 6.66663 1.20485 8.00707 1.46209 9.30028C1.71932 10.5935 2.35426 11.7814 3.28661 12.7137C4.21896 13.6461 5.40685 14.281 6.70005 14.5382C7.99326 14.7955 9.3337 14.6635 10.5519 14.1589C11.7701 13.6543 12.8112 12.7998 13.5438 11.7035C14.2763 10.6071 14.6673 9.31822 14.6673 7.99967C14.6673 7.1242 14.4949 6.25729 14.1599 5.44845C13.8248 4.63961 13.3338 3.90469 12.7147 3.28563C12.0956 2.66657 11.3607 2.17551 10.5519 1.84048C9.74304 1.50545 8.87613 1.33301 8.00065 1.33301ZM8.00065 13.333C6.94582 13.333 5.91467 13.0202 5.03761 12.4342C4.16055 11.8481 3.47696 11.0152 3.0733 10.0407C2.66963 9.06611 2.56401 7.99376 2.7698 6.95919C2.97559 5.92463 3.48354 4.97432 4.22942 4.22844C4.9753 3.48256 5.92561 2.97461 6.96017 2.76882C7.99474 2.56303 9.06709 2.66865 10.0416 3.07232C11.0162 3.47598 11.8491 4.15957 12.4352 5.03663C13.0212 5.9137 13.334 6.94484 13.334 7.99967C13.334 9.41416 12.7721 10.7707 11.7719 11.7709C10.7717 12.7711 9.41514 13.333 8.00065 13.333ZM10.6673 7.33301H8.66732V5.33301C8.66732 5.1562 8.59708 4.98663 8.47206 4.8616C8.34703 4.73658 8.17746 4.66634 8.00065 4.66634C7.82384 4.66634 7.65427 4.73658 7.52925 4.8616C7.40423 4.98663 7.33399 5.1562 7.33399 5.33301V7.33301H5.33399C5.15718 7.33301 4.98761 7.40325 4.86258 7.52827C4.73756 7.65329 4.66732 7.82286 4.66732 7.99967C4.66732 8.17649 4.73756 8.34606 4.86258 8.47108C4.98761 8.5961 5.15718 8.66634 5.33399 8.66634H7.33399V10.6663C7.33399 10.8432 7.40423 11.0127 7.52925 11.1377C7.65427 11.2628 7.82384 11.333 8.00065 11.333C8.17746 11.333 8.34703 11.2628 8.47206 11.1377C8.59708 11.0127 8.66732 10.8432 8.66732 10.6663V8.66634H10.6673C10.8441 8.66634 11.0137 8.5961 11.1387 8.47108C11.2637 8.34606 11.334 8.17649 11.334 7.99967C11.334 7.82286 11.2637 7.65329 11.1387 7.52827C11.0137 7.40325 10.8441 7.33301 10.6673 7.33301Z" fill="white"/>
</svg>
