<svg width="16" height="16" viewBox="0 0 16 16" fill="none" xmlns="http://www.w3.org/2000/svg">
<path d="M8.00065 1.3335C6.68211 1.3335 5.39318 1.72449 4.29685 2.45703C3.20052 3.18957 2.34604 4.23077 1.84146 5.44894C1.33687 6.66711 1.20485 8.00756 1.46209 9.30077C1.71932 10.594 2.35426 11.7819 3.28661 12.7142C4.21896 13.6466 5.40685 14.2815 6.70005 14.5387C7.99326 14.796 9.3337 14.6639 10.5519 14.1594C11.7701 13.6548 12.8112 12.8003 13.5438 11.704C14.2763 10.6076 14.6673 9.31871 14.6673 8.00016C14.6673 7.12468 14.4949 6.25778 14.1599 5.44894C13.8248 4.6401 13.3338 3.90517 12.7147 3.28612C12.0956 2.66706 11.3607 2.176 10.5519 1.84097C9.74304 1.50593 8.87613 1.3335 8.00065 1.3335ZM8.00065 13.3335C6.94582 13.3335 5.91467 13.0207 5.03761 12.4347C4.16055 11.8486 3.47696 11.0157 3.0733 10.0411C2.66963 9.0666 2.56401 7.99425 2.7698 6.95968C2.97559 5.92512 3.48354 4.97481 4.22942 4.22893C4.9753 3.48305 5.92561 2.9751 6.96017 2.76931C7.99474 2.56352 9.06709 2.66914 10.0416 3.07281C11.0162 3.47647 11.8491 4.16006 12.4352 5.03712C13.0212 5.91418 13.334 6.94533 13.334 8.00016C13.334 9.41465 12.7721 10.7712 11.7719 11.7714C10.7717 12.7716 9.41514 13.3335 8.00065 13.3335ZM10.6673 7.3335H8.66732V5.3335C8.66732 5.15669 8.59708 4.98712 8.47206 4.86209C8.34703 4.73707 8.17746 4.66683 8.00065 4.66683C7.82384 4.66683 7.65427 4.73707 7.52925 4.86209C7.40423 4.98712 7.33399 5.15669 7.33399 5.3335V7.3335H5.33399C5.15718 7.3335 4.98761 7.40373 4.86258 7.52876C4.73756 7.65378 4.66732 7.82335 4.66732 8.00016C4.66732 8.17697 4.73756 8.34654 4.86258 8.47157C4.98761 8.59659 5.15718 8.66683 5.33399 8.66683H7.33399V10.6668C7.33399 10.8436 7.40423 11.0132 7.52925 11.1382C7.65427 11.2633 7.82384 11.3335 8.00065 11.3335C8.17746 11.3335 8.34703 11.2633 8.47206 11.1382C8.59708 11.0132 8.66732 10.8436 8.66732 10.6668V8.66683H10.6673C10.8441 8.66683 11.0137 8.59659 11.1387 8.47157C11.2637 8.34654 11.334 8.17697 11.334 8.00016C11.334 7.82335 11.2637 7.65378 11.1387 7.52876C11.0137 7.40373 10.8441 7.3335 10.6673 7.3335Z" fill="#111111"/>
</svg>
