<?xml version="1.0"?>
<svg xmlns="http://www.w3.org/2000/svg" xmlns:xlink="http://www.w3.org/1999/xlink" version="1.1" id="Capa_1" x="0px" y="0px" width="512px" height="512px" viewBox="0 0 32.02 32.02" style="enable-background:new 0 0 32.02 32.02;" xml:space="preserve"><g transform="matrix(-1 1.22465e-16 -1.22465e-16 -1 32.02 32.02)"><g>
	<path d="M32.02,27.26c0,0.274-0.225,0.5-0.5,0.5c-0.004,0.001-0.012,0-0.021,0h-31c-0.185,0-0.353-0.103-0.438-0.261   c-0.088-0.161-0.08-0.357,0.02-0.512L14.665,4.488c0.09-0.14,0.241-0.225,0.406-0.229c0.172-0.001,0.32,0.071,0.418,0.205   L31.838,26.87C31.948,26.965,32.02,27.104,32.02,27.26z" data-original="#000000" class="active-path" fill="#000000"/>
</g></g> </svg>
