<?xml version="1.0" encoding="UTF-8"?>
<svg width="15px" height="11px" viewBox="0 0 15 11" version="1.1" xmlns="http://www.w3.org/2000/svg" xmlns:xlink="http://www.w3.org/1999/xlink">
    <title>F858302F-C6C6-47A2-9A4D-0B57FE7213F7</title>
    <g id="Hubble" stroke="none" stroke-width="1" fill="none" fill-rule="evenodd">
        <g id="Hubble---Chain---Sync-Log" transform="translate(-176.000000, -410.000000)" fill="#111111" fill-rule="nonzero">
            <g id="Group-17" transform="translate(91.000000, 378.000000)">
                <path d="M88.4343383,40.2163673 L89.3727548,39.3072764 C89.0794996,38.7598668 88.9328721,38.1733565 88.9328721,37.5477456 C88.9328721,36.5115775 89.299441,35.6269245 90.0325788,34.8937867 C90.7657166,34.1606488 91.6503696,33.7940799 92.6865378,33.7940799 L92.6865378,33.7940799 L92.6865378,35.6709128 L95.1792064,33.1782441 L92.6865378,30.65625 L92.6865378,32.5330828 C91.2984635,32.5330828 90.1156678,33.0218414 89.1381507,33.9993585 C88.1606336,34.9768756 87.671875,36.1596713 87.671875,37.5477456 C87.671875,38.5057124 87.9260294,39.3952529 88.4343383,40.2163673 L88.4343383,40.2163673 Z M92.6865378,44.4392412 L92.6865378,42.5624084 C94.0550617,42.5624084 95.2280822,42.0736498 96.2055993,41.0961327 C97.1831164,40.1186156 97.671875,38.9358199 97.671875,37.5477456 C97.671875,36.5897788 97.4177206,35.7002383 96.9094117,34.8791239 L96.9094117,34.8791239 L96.0003207,35.7882148 C96.2935759,36.3551747 96.4402034,36.941685 96.4402034,37.5477456 C96.4402034,38.5839137 96.0736345,39.4685667 95.3404967,40.2017045 C94.6073589,40.9348424 93.7227059,41.3014113 92.6865378,41.3014113 L92.6865378,41.3014113 L92.6865378,39.4245784 L90.1645436,41.9172471 L92.6865378,44.4392412 Z" id="recurring-icon" transform="translate(92.671875, 37.547746) scale(1, -1) rotate(-90.000000) translate(-92.671875, -37.547746) "></path>
            </g>
        </g>
    </g>
</svg>
